<svg ed:hSpacing="30" id="page100" ed:vSpacing="30" width="1066" ed:name="页面-1" xmlns="http://www.w3.org/2000/svg" xmlns:xlink="http://www.w3.org/1999/xlink" height="1804" xmlns:ed="https://www.edrawsoft.cn/xml/2017/SVGExtensions/" xmlns:ev="http://www.w3.org/2001/xml-events" viewBox="0 0 1066 1804"><style type="text/css"><![CDATA[
g[ed\:togtopicid],g[ed\:hyperlink],g[ed\:comment],g[ed\:note] {cursor:pointer;}
g[id] {-moz-user-select: none;-ms-user-select: none;user-select: none;}
svg text::selection,svg tspan::selection{background-color: #4285f4;color: #ffffff;fill: #ffffff;}
.st10 {fill:#000000;font-family:Microsoft YaHei;font-size:10pt}
.st9 {fill:#000000;font-family:Microsoft YaHei;font-size:14pt;font-weight:bold}
.st12 {fill:#00b050;font-family:Microsoft YaHei;font-size:10pt}
.st8 {fill:#303030;font-family:Microsoft YaHei;font-size:14pt;font-weight:bold}
.st11 {fill:#ff0000;font-family:Microsoft YaHei;font-size:10pt}
.st7 {fill:#ffffff;font-family:Microsoft YaHei;font-size:18pt;font-weight:bold}
]]></style><defs/><rect fill="#ffffff" x="0" width="1066" y="0" height="1804"/><path fill="none" id="103" ed:parentid="101" stroke-linecap="round" stroke="#454545" ed:tosuperid="102" transform="matrix(1,0,0,1,166.95,451.78)" d="M6.3,400.3L37.8,400.3L37.8,-394.3C37.8,-397.6,40.5,-400.3,43.8,-400.3L69.3,-400.3" stroke-linejoin="round" stroke-width="2"/><path fill="none" id="105" ed:parentid="101" stroke-linecap="round" stroke="#454545" ed:tosuperid="104" transform="matrix(1,0,0,1,166.95,630.78)" d="M6.3,221.3L37.8,221.3L37.8,-215.3C37.8,-218.6,40.5,-221.3,43.8,-221.3L69.3,-221.3" stroke-linejoin="round" stroke-width="2"/><path fill="none" id="107" ed:parentid="101" stroke-linecap="round" stroke="#454545" ed:tosuperid="106" transform="matrix(1,0,0,1,166.95,944.66)" d="M6.3,-92.6L37.8,-92.6L37.8,86.6C37.8,89.9,40.5,92.6,43.8,92.6L69.3,92.6" stroke-linejoin="round" stroke-width="2"/><path fill="none" id="109" ed:parentid="101" stroke-linecap="round" stroke="#454545" ed:tosuperid="108" transform="matrix(1,0,0,1,166.95,1252.34)" d="M6.3,-400.3L37.8,-400.3L37.8,394.3C37.8,397.6,40.5,400.3,43.8,400.3L69.3,400.3" stroke-linejoin="round" stroke-width="2"/><path fill="none" id="111" ed:parentid="102" stroke-linecap="round" stroke="#454545" ed:tosuperid="110" transform="matrix(1,0,0,1,327.77,45)" d="M-13.5,6.5L0,6.5L0,-0.5C0,-3.8,2.7,-6.5,6,-6.5L13.5,-6.5" stroke-linejoin="round"/><path fill="none" id="113" ed:parentid="102" stroke-linecap="round" stroke="#454545" ed:tosuperid="112" transform="matrix(1,0,0,1,327.77,58)" d="M0,-6.5L0,0.5C0,3.8,2.7,6.5,6,6.5L13.5,6.5" stroke-linejoin="round"/><path fill="none" id="157" ed:parentid="150" stroke-linecap="round" stroke="#454545" ed:tosuperid="153" transform="matrix(1,0,0,1,450.77,650)" d="M-13.5,6.5L0,6.5L0,-0.5C0,-3.8,2.7,-6.5,6,-6.5L13.5,-6.5" stroke-linejoin="round"/><path fill="none" id="158" ed:parentid="150" stroke-linecap="round" stroke="#454545" ed:tosuperid="154" transform="matrix(1,0,0,1,450.77,663)" d="M0,-6.5L0,0.5C0,3.8,2.7,6.5,6,6.5L13.5,6.5" stroke-linejoin="round"/><path fill="none" id="159" ed:parentid="148" stroke-linecap="round" stroke="#454545" ed:tosuperid="146" transform="matrix(1,0,0,1,424.77,143)" d="M-13.5,19.5L0,19.5L0,-13.5C0,-16.8,2.7,-19.5,6,-19.5L13.5,-19.5" stroke-linejoin="round"/><path fill="none" id="160" ed:parentid="148" stroke-linecap="round" stroke="#454545" ed:tosuperid="147" transform="matrix(1,0,0,1,424.77,156)" d="M0,6.5L0,-0.5C0,-3.8,2.7,-6.5,6,-6.5L13.5,-6.5" stroke-linejoin="round"/><path fill="none" id="161" ed:parentid="148" stroke-linecap="round" stroke="#454545" ed:tosuperid="149" transform="matrix(1,0,0,1,424.77,169)" d="M0,-6.5L0,0.5C0,3.8,2.7,6.5,6,6.5L13.5,6.5" stroke-linejoin="round"/><path fill="none" id="162" ed:parentid="148" stroke-linecap="round" stroke="#454545" ed:tosuperid="152" transform="matrix(1,0,0,1,424.77,182)" d="M0,-19.5L0,13.5C0,16.8,2.7,19.5,6,19.5L13.5,19.5" stroke-linejoin="round"/><path fill="none" id="163" ed:parentid="151" stroke-linecap="round" stroke="#454545" ed:tosuperid="155" transform="matrix(1,0,0,1,450.77,234)" d="M-13.5,6.5L0,6.5L0,-0.5C0,-3.8,2.7,-6.5,6,-6.5L13.5,-6.5" stroke-linejoin="round"/><path fill="none" id="164" ed:parentid="151" stroke-linecap="round" stroke="#454545" ed:tosuperid="156" transform="matrix(1,0,0,1,450.77,247)" d="M0,-6.5L0,0.5C0,3.8,2.7,6.5,6,6.5L13.5,6.5" stroke-linejoin="round"/><path fill="none" id="165" ed:parentid="104" stroke-linecap="round" stroke="#454545" ed:tosuperid="148" transform="matrix(1,0,0,1,327.77,286)" d="M-13.5,123.5L0,123.5L0,-117.5C0,-120.8,2.7,-123.5,6,-123.5L13.5,-123.5" stroke-linejoin="round"/><path fill="none" id="166" ed:parentid="104" stroke-linecap="round" stroke="#454545" ed:tosuperid="150" transform="matrix(1,0,0,1,327.77,533)" d="M0,-123.5L0,117.5C0,120.8,2.7,123.5,6,123.5L13.5,123.5" stroke-linejoin="round"/><path fill="none" id="167" ed:parentid="104" stroke-linecap="round" stroke="#454545" ed:tosuperid="151" transform="matrix(1,0,0,1,327.77,325)" d="M0,84.5L0,-78.5C0,-81.8,2.7,-84.5,6,-84.5L13.5,-84.5" stroke-linejoin="round"/><path fill="none" id="169" ed:parentid="104" stroke-linecap="round" stroke="#454545" ed:tosuperid="168" transform="matrix(1,0,0,1,327.77,422.5)" d="M0,-13L0,7C0,10.3,2.7,13,6,13L13.5,13" stroke-linejoin="round"/><path fill="none" id="171" ed:parentid="168" stroke-linecap="round" stroke="#454545" ed:tosuperid="170" transform="matrix(1,0,0,1,463.77,357.5)" d="M-13.5,78L0,78L0,-72C0,-75.3,2.7,-78,6,-78L13.5,-78" stroke-linejoin="round"/><path fill="none" id="173" ed:parentid="168" stroke-linecap="round" stroke="#454545" ed:tosuperid="172" transform="matrix(1,0,0,1,463.77,383.5)" d="M0,52L0,-46C0,-49.3,2.7,-52,6,-52L13.5,-52" stroke-linejoin="round"/><path fill="none" id="175" ed:parentid="168" stroke-linecap="round" stroke="#454545" ed:tosuperid="174" transform="matrix(1,0,0,1,463.77,422.5)" d="M0,13L0,-7C0,-10.3,2.7,-13,6,-13L13.5,-13" stroke-linejoin="round"/><path fill="none" id="177" ed:parentid="168" stroke-linecap="round" stroke="#454545" ed:tosuperid="176" transform="matrix(1,0,0,1,463.77,468)" d="M0,-32.5L0,26.5C0,29.8,2.7,32.5,6,32.5L13.5,32.5" stroke-linejoin="round"/><path fill="none" id="179" ed:parentid="168" stroke-linecap="round" stroke="#454545" ed:tosuperid="178" transform="matrix(1,0,0,1,463.77,513.5)" d="M0,-78L0,72C0,75.3,2.7,78,6,78L13.5,78" stroke-linejoin="round"/><path fill="none" id="181" ed:parentid="170" stroke-linecap="round" stroke="#454545" ed:tosuperid="180" transform="matrix(1,0,0,1,676.2,279.5)" d="M-13.5,0L0,0C0,0,2.7,0,6,0L13.5,0" stroke-linejoin="round"/><path fill="none" id="183" ed:parentid="172" stroke-linecap="round" stroke="#454545" ed:tosuperid="182" transform="matrix(1,0,0,1,653.13,318.5)" d="M-13.5,13L0,13L0,-7C0,-10.3,2.7,-13,6,-13L13.5,-13" stroke-linejoin="round"/><path fill="none" id="185" ed:parentid="174" stroke-linecap="round" stroke="#454545" ed:tosuperid="184" transform="matrix(1,0,0,1,652.42,396.5)" d="M-13.5,13L0,13L0,-7C0,-10.3,2.7,-13,6,-13L13.5,-13" stroke-linejoin="round"/><path fill="none" id="187" ed:parentid="176" stroke-linecap="round" stroke="#454545" ed:tosuperid="186" transform="matrix(1,0,0,1,661.73,481)" d="M-13.5,19.5L0,19.5L0,-13.5C0,-16.8,2.7,-19.5,6,-19.5L13.5,-19.5" stroke-linejoin="round"/><path fill="none" id="189" ed:parentid="172" stroke-linecap="round" stroke="#454545" ed:tosuperid="188" transform="matrix(1,0,0,1,653.13,331.5)" d="M0,0C0,0,2.7,0,6,0L13.5,0" stroke-linejoin="round"/><path fill="none" id="191" ed:parentid="172" stroke-linecap="round" stroke="#454545" ed:tosuperid="190" transform="matrix(1,0,0,1,653.13,344.5)" d="M0,-13L0,7C0,10.3,2.7,13,6,13L13.5,13" stroke-linejoin="round"/><path fill="none" id="193" ed:parentid="174" stroke-linecap="round" stroke="#454545" ed:tosuperid="192" transform="matrix(1,0,0,1,652.42,409.5)" d="M0,0C0,0,2.7,0,6,0L13.5,0" stroke-linejoin="round"/><path fill="none" id="195" ed:parentid="174" stroke-linecap="round" stroke="#454545" ed:tosuperid="194" transform="matrix(1,0,0,1,652.42,422.5)" d="M0,-13L0,7C0,10.3,2.7,13,6,13L13.5,13" stroke-linejoin="round"/><path fill="none" id="197" ed:parentid="176" stroke-linecap="round" stroke="#454545" ed:tosuperid="196" transform="matrix(1,0,0,1,661.73,494)" d="M0,6.5L0,-0.5C0,-3.8,2.7,-6.5,6,-6.5L13.5,-6.5" stroke-linejoin="round"/><path fill="none" id="199" ed:parentid="176" stroke-linecap="round" stroke="#454545" ed:tosuperid="198" transform="matrix(1,0,0,1,661.73,507)" d="M0,-6.5L0,0.5C0,3.8,2.7,6.5,6,6.5L13.5,6.5" stroke-linejoin="round"/><path fill="none" id="201" ed:parentid="176" stroke-linecap="round" stroke="#454545" ed:tosuperid="200" transform="matrix(1,0,0,1,661.73,520)" d="M0,-19.5L0,13.5C0,16.8,2.7,19.5,6,19.5L13.5,19.5" stroke-linejoin="round"/><path fill="none" id="203" ed:parentid="178" stroke-linecap="round" stroke="#454545" ed:tosuperid="202" transform="matrix(1,0,0,1,695.55,578.5)" d="M-13.5,13L0,13L0,-7C0,-10.3,2.7,-13,6,-13L13.5,-13" stroke-linejoin="round"/><path fill="none" id="205" ed:parentid="178" stroke-linecap="round" stroke="#454545" ed:tosuperid="204" transform="matrix(1,0,0,1,695.55,591.5)" d="M0,0C0,0,2.7,0,6,0L13.5,0" stroke-linejoin="round"/><path fill="none" id="207" ed:parentid="178" stroke-linecap="round" stroke="#454545" ed:tosuperid="206" transform="matrix(1,0,0,1,695.55,604.5)" d="M0,-13L0,7C0,10.3,2.7,13,6,13L13.5,13" stroke-linejoin="round"/><path fill="none" id="209" ed:parentid="106" stroke-linecap="round" stroke="#454545" ed:tosuperid="208" transform="matrix(1,0,0,1,327.77,938.13)" d="M-13.5,99.1L0,99.1L0,-93.1C0,-96.4,2.7,-99.1,6,-99.1L13.5,-99.1" stroke-linejoin="round"/><path fill="none" id="211" ed:parentid="208" stroke-linecap="round" stroke="#454545" ed:tosuperid="210" transform="matrix(1,0,0,1,407.27,780.5)" d="M-13.5,58.5L0,58.5L0,-52.5C0,-55.8,2.7,-58.5,6,-58.5L13.5,-58.5" stroke-linejoin="round"/><path fill="none" id="213" ed:parentid="208" stroke-linecap="round" stroke="#454545" ed:tosuperid="212" transform="matrix(1,0,0,1,407.27,819.5)" d="M0,19.5L0,-13.5C0,-16.8,2.7,-19.5,6,-19.5L13.5,-19.5" stroke-linejoin="round"/><path fill="none" id="215" ed:parentid="212" stroke-linecap="round" stroke="#454545" ed:tosuperid="214" transform="matrix(1,0,0,1,584.55,787)" d="M0,13L0,-7C0,-10.3,2.7,-13,6,-13L13.5,-13" stroke-linejoin="round"/><path fill="none" id="217" ed:parentid="212" stroke-linecap="round" stroke="#454545" ed:tosuperid="216" transform="matrix(1,0,0,1,584.55,800)" d="M0,0C0,0,2.7,0,6,0L13.5,0" stroke-linejoin="round"/><path fill="none" id="219" ed:parentid="212" stroke-linecap="round" stroke="#454545" ed:tosuperid="218" transform="matrix(1,0,0,1,584.55,813)" d="M0,-13L0,7C0,10.3,2.7,13,6,13L13.5,13" stroke-linejoin="round"/><path fill="none" id="221" ed:parentid="212" stroke-linecap="round" stroke="#454545" ed:tosuperid="220" transform="matrix(1,0,0,1,584.55,826)" d="M0,-26L0,20C0,23.3,2.7,26,6,26L13.5,26" stroke-linejoin="round"/><path fill="none" id="223" ed:parentid="208" stroke-linecap="round" stroke="#454545" ed:tosuperid="222" transform="matrix(1,0,0,1,407.27,858.5)" d="M0,-19.5L0,13.5C0,16.8,2.7,19.5,6,19.5L13.5,19.5" stroke-linejoin="round"/><path fill="none" id="225" ed:parentid="208" stroke-linecap="round" stroke="#454545" ed:tosuperid="224" transform="matrix(1,0,0,1,407.27,871.5)" d="M0,-32.5L0,26.5C0,29.8,2.7,32.5,6,32.5L13.5,32.5" stroke-linejoin="round"/><path fill="none" id="227" ed:parentid="208" stroke-linecap="round" stroke="#454545" ed:tosuperid="226" transform="matrix(1,0,0,1,407.27,884.5)" d="M0,-45.5L0,39.5C0,42.8,2.7,45.5,6,45.5L13.5,45.5" stroke-linejoin="round"/><path fill="none" id="229" ed:parentid="208" stroke-linecap="round" stroke="#454545" ed:tosuperid="228" transform="matrix(1,0,0,1,407.27,897.5)" d="M0,-58.5L0,52.5C0,55.8,2.7,58.5,6,58.5L13.5,58.5" stroke-linejoin="round"/><path fill="none" id="231" ed:parentid="212" stroke-linecap="round" stroke="#454545" ed:tosuperid="230" transform="matrix(1,0,0,1,584.55,774)" d="M-13.5,26L0,26L0,-20C0,-23.3,2.7,-26,6,-26L13.5,-26" stroke-linejoin="round"/><path fill="none" id="233" ed:parentid="238" stroke-linecap="round" stroke="#454545" ed:tosuperid="232" transform="matrix(1,0,0,1,399.77,1008)" d="M0,0C0,0,2.7,0,6,0L13.5,0" stroke-linejoin="round"/><path fill="none" id="235" ed:parentid="238" stroke-linecap="round" stroke="#454545" ed:tosuperid="234" transform="matrix(1,0,0,1,399.77,995)" d="M-13.5,13L0,13L0,-7C0,-10.3,2.7,-13,6,-13L13.5,-13" stroke-linejoin="round"/><path fill="none" id="237" ed:parentid="238" stroke-linecap="round" stroke="#454545" ed:tosuperid="236" transform="matrix(1,0,0,1,399.77,1021)" d="M0,-13L0,7C0,10.3,2.7,13,6,13L13.5,13" stroke-linejoin="round"/><path fill="none" id="239" ed:parentid="106" stroke-linecap="round" stroke="#454545" ed:tosuperid="238" transform="matrix(1,0,0,1,327.77,1022.63)" d="M0,14.6L0,-8.6C0,-11.9,2.7,-14.6,6,-14.6L13.5,-14.6" stroke-linejoin="round"/><path fill="none" id="241" ed:parentid="106" stroke-linecap="round" stroke="#454545" ed:tosuperid="240" transform="matrix(1,0,0,1,327.77,1048.63)" d="M0,-11.4L0,5.4C0,8.7,2.7,11.4,6,11.4L13.5,11.4" stroke-linejoin="round"/><path fill="none" id="243" ed:parentid="248" stroke-linecap="round" stroke="#454545" ed:tosuperid="242" transform="matrix(1,0,0,1,398.77,1232.25)" d="M0,3.3C0,-0.6,2.7,-3.3,6,-3.3L13.5,-3.3" stroke-linejoin="round"/><path fill="none" id="245" ed:parentid="248" stroke-linecap="round" stroke="#454545" ed:tosuperid="244" transform="matrix(1,0,0,1,398.77,1290.75)" d="M0,-55.3L0,49.3C0,52.6,2.7,55.3,6,55.3L13.5,55.3" stroke-linejoin="round"/><path fill="none" id="247" ed:parentid="242" stroke-linecap="round" stroke="#454545" ed:tosuperid="246" transform="matrix(1,0,0,1,511.94,1196.5)" d="M-13.5,32.5L0,32.5L0,-26.5C0,-29.8,2.7,-32.5,6,-32.5L13.5,-32.5" stroke-linejoin="round"/><path fill="none" id="249" ed:parentid="106" stroke-linecap="round" stroke="#454545" ed:tosuperid="248" transform="matrix(1,0,0,1,327.77,1136.38)" d="M0,-99.1L0,93.1C0,96.4,2.7,99.1,6,99.1L13.5,99.1" stroke-linejoin="round"/><path fill="none" id="251" ed:parentid="242" stroke-linecap="round" stroke="#454545" ed:tosuperid="250" transform="matrix(1,0,0,1,511.94,1209.5)" d="M0,19.5L0,-13.5C0,-16.8,2.7,-19.5,6,-19.5L13.5,-19.5" stroke-linejoin="round"/><path fill="none" id="253" ed:parentid="248" stroke-linecap="round" stroke="#454545" ed:tosuperid="252" transform="matrix(1,0,0,1,398.77,1180.25)" d="M-13.5,55.3L0,55.3L0,-49.3C0,-52.6,2.7,-55.3,6,-55.3L13.5,-55.3" stroke-linejoin="round"/><path fill="none" id="255" ed:parentid="252" stroke-linecap="round" stroke="#454545" ed:tosuperid="254" transform="matrix(1,0,0,1,488.48,1118.5)" d="M-13.5,6.5L0,6.5L0,-0.5C0,-3.8,2.7,-6.5,6,-6.5L13.5,-6.5" stroke-linejoin="round"/><path fill="none" id="257" ed:parentid="252" stroke-linecap="round" stroke="#454545" ed:tosuperid="256" transform="matrix(1,0,0,1,488.48,1131.5)" d="M0,-6.5L0,0.5C0,3.8,2.7,6.5,6,6.5L13.5,6.5" stroke-linejoin="round"/><path fill="none" id="259" ed:parentid="256" stroke-linecap="round" stroke="#454545" ed:tosuperid="258" transform="matrix(1,0,0,1,598.48,1138)" d="M-13.5,0L0,0C0,0,2.7,0,6,0L13.5,0" stroke-linejoin="round"/><path fill="none" id="261" ed:parentid="242" stroke-linecap="round" stroke="#454545" ed:tosuperid="260" transform="matrix(1,0,0,1,511.94,1229)" d="M0,0C0,0,2.7,0,6,0L13.5,0" stroke-linejoin="round"/><path fill="none" id="263" ed:parentid="260" stroke-linecap="round" stroke="#454545" ed:tosuperid="262" transform="matrix(1,0,0,1,613.22,1222.5)" d="M-13.5,6.5L0,6.5L0,-0.5C0,-3.8,2.7,-6.5,6,-6.5L13.5,-6.5" stroke-linejoin="round"/><path fill="none" id="265" ed:parentid="260" stroke-linecap="round" stroke="#454545" ed:tosuperid="264" transform="matrix(1,0,0,1,613.22,1235.5)" d="M0,-6.5L0,0.5C0,3.8,2.7,6.5,6,6.5L13.5,6.5" stroke-linejoin="round"/><path fill="none" id="267" ed:parentid="242" stroke-linecap="round" stroke="#454545" ed:tosuperid="266" transform="matrix(1,0,0,1,511.94,1261.5)" d="M0,-32.5L0,26.5C0,29.8,2.7,32.5,6,32.5L13.5,32.5" stroke-linejoin="round"/><path fill="none" id="271" ed:parentid="350" stroke-linecap="round" stroke="#454545" ed:tosuperid="268" transform="matrix(1,0,0,1,430.77,1500.88)" d="M-13.5,23.9L0,23.9L0,-17.9C0,-21.2,2.7,-23.9,6,-23.9L13.5,-23.9" stroke-linejoin="round"/><path fill="none" id="272" ed:parentid="352" stroke-linecap="round" stroke="#454545" ed:tosuperid="269" transform="matrix(1,0,0,1,430.77,1637.5)" d="M0,-13L0,7C0,10.3,2.7,13,6,13L13.5,13" stroke-linejoin="round"/><path fill="none" id="273" ed:parentid="352" stroke-linecap="round" stroke="#454545" ed:tosuperid="270" transform="matrix(1,0,0,1,430.77,1611.5)" d="M-13.5,13L0,13L0,-7C0,-10.3,2.7,-13,6,-13L13.5,-13" stroke-linejoin="round"/><path fill="none" id="275" ed:parentid="268" stroke-linecap="round" stroke="#454545" ed:tosuperid="274" transform="matrix(1,0,0,1,565.88,1455.25)" d="M-13.5,21.8L0,21.8L0,-15.8C0,-19.1,2.7,-21.8,6,-21.8L13.5,-21.8" stroke-linejoin="round"/><path fill="none" id="277" ed:parentid="268" stroke-linecap="round" stroke="#454545" ed:tosuperid="276" transform="matrix(1,0,0,1,565.88,1498.75)" d="M0,-21.8L0,15.8C0,19.1,2.7,21.8,6,21.8L13.5,21.8" stroke-linejoin="round"/><path fill="none" id="281" ed:parentid="276" stroke-linecap="round" stroke="#454545" ed:tosuperid="280" transform="matrix(1,0,0,1,662.88,1507.5)" d="M-13.5,13L0,13L0,-7C0,-10.3,2.7,-13,6,-13L13.5,-13" stroke-linejoin="round"/><path fill="none" id="283" ed:parentid="266" stroke-linecap="round" stroke="#454545" ed:tosuperid="282" transform="matrix(1,0,0,1,719.95,1281)" d="M-13.5,13L0,13L0,-7C0,-10.3,2.7,-13,6,-13L13.5,-13" stroke-linejoin="round"/><path fill="none" id="285" ed:parentid="266" stroke-linecap="round" stroke="#454545" ed:tosuperid="284" transform="matrix(1,0,0,1,719.95,1294)" d="M0,0C0,0,2.7,0,6,0L13.5,0" stroke-linejoin="round"/><path fill="none" id="287" ed:parentid="266" stroke-linecap="round" stroke="#454545" ed:tosuperid="286" transform="matrix(1,0,0,1,719.95,1307)" d="M0,-13L0,7C0,10.3,2.7,13,6,13L13.5,13" stroke-linejoin="round"/><path fill="none" id="289" ed:parentid="274" stroke-linecap="round" stroke="#454545" ed:tosuperid="288" transform="matrix(1,0,0,1,649.88,1416)" d="M-13.5,17.5L0,17.5L0,-11.5C0,-14.8,2.7,-17.5,6,-17.5L13.5,-17.5" stroke-linejoin="round"/><path fill="none" id="291" ed:parentid="274" stroke-linecap="round" stroke="#454545" ed:tosuperid="290" transform="matrix(1,0,0,1,649.88,1429)" d="M0,4.5L0,1.5C0,-1.8,2.7,-4.5,6,-4.5L13.5,-4.5" stroke-linejoin="round"/><path fill="none" id="293" ed:parentid="274" stroke-linecap="round" stroke="#454545" ed:tosuperid="292" transform="matrix(1,0,0,1,649.88,1451)" d="M0,-17.5L0,11.5C0,14.8,2.7,17.5,6,17.5L13.5,17.5" stroke-linejoin="round"/><path fill="none" id="295" ed:parentid="276" stroke-linecap="round" stroke="#454545" ed:tosuperid="294" transform="matrix(1,0,0,1,662.88,1520.5)" d="M0,0C0,0,2.7,0,6,0L13.5,0" stroke-linejoin="round"/><path fill="none" id="297" ed:parentid="276" stroke-linecap="round" stroke="#454545" ed:tosuperid="296" transform="matrix(1,0,0,1,662.88,1533.5)" d="M0,-13L0,7C0,10.3,2.7,13,6,13L13.5,13" stroke-linejoin="round"/><path fill="none" id="351" ed:parentid="108" stroke-linecap="round" stroke="#454545" ed:tosuperid="350" transform="matrix(1,0,0,1,346.77,1588.69)" d="M-13.5,63.9L0,63.9L0,-57.9C0,-61.2,2.7,-63.9,6,-63.9L13.5,-63.9" stroke-linejoin="round"/><path fill="none" id="353" ed:parentid="108" stroke-linecap="round" stroke="#454545" ed:tosuperid="352" transform="matrix(1,0,0,1,346.77,1638.56)" d="M0,14.1L0,-8.1C0,-11.4,2.7,-14.1,6,-14.1L13.5,-14.1" stroke-linejoin="round"/><path fill="none" id="355" ed:parentid="350" stroke-linecap="round" stroke="#454545" ed:tosuperid="354" transform="matrix(1,0,0,1,430.77,1548.63)" d="M0,-23.9L0,17.9C0,21.2,2.7,23.9,6,23.9L13.5,23.9" stroke-linejoin="round"/><path fill="none" id="361" ed:parentid="108" stroke-linecap="round" stroke="#454545" ed:tosuperid="360" transform="matrix(1,0,0,1,346.77,1690.56)" d="M0,-37.9L0,31.9C0,35.2,2.7,37.9,6,37.9L13.5,37.9" stroke-linejoin="round"/><path fill="none" id="363" ed:parentid="360" stroke-linecap="round" stroke="#454545" ed:tosuperid="362" transform="matrix(1,0,0,1,546.55,1715.5)" d="M-13.5,13L0,13L0,-7C0,-10.3,2.7,-13,6,-13L13.5,-13" stroke-linejoin="round"/><path fill="none" id="365" ed:parentid="360" stroke-linecap="round" stroke="#454545" ed:tosuperid="364" transform="matrix(1,0,0,1,546.55,1741.5)" d="M0,-13L0,7C0,10.3,2.7,13,6,13L13.5,13" stroke-linejoin="round"/><path fill="none" id="367" ed:parentid="360" stroke-linecap="round" stroke="#454545" ed:tosuperid="366" transform="matrix(1,0,0,1,546.55,1728.5)" d="M0,0C0,0,2.7,0,6,0L13.5,0" stroke-linejoin="round"/><path fill="none" id="369" ed:parentid="106" stroke-linecap="round" stroke="#454545" ed:tosuperid="368" transform="matrix(1,0,0,1,327.77,1061.63)" d="M0,-24.4L0,18.4C0,21.7,2.7,24.4,6,24.4L13.5,24.4" stroke-linejoin="round"/><path fill="none" id="371" ed:parentid="108" stroke-linecap="round" stroke="#454545" ed:tosuperid="370" transform="matrix(1,0,0,1,346.77,1716.56)" d="M0,-63.9L0,57.9C0,61.2,2.7,63.9,6,63.9L13.5,63.9" stroke-linejoin="round"/><path fill="none" id="373" ed:parentid="269" stroke-linecap="round" stroke="#454545" ed:tosuperid="372" transform="matrix(1,0,0,1,582.91,1637.5)" d="M-13.5,13L0,13L0,-7C0,-10.3,2.7,-13,6,-13L13.5,-13" stroke-linejoin="round"/><path fill="none" id="376" ed:parentid="269" stroke-linecap="round" stroke="#454545" ed:tosuperid="375" transform="matrix(1,0,0,1,582.91,1650.5)" d="M0,0C0,0,2.7,0,6,0L13.5,0" stroke-linejoin="round"/><path fill="none" id="378" ed:parentid="269" stroke-linecap="round" stroke="#454545" ed:tosuperid="377" transform="matrix(1,0,0,1,582.91,1663.5)" d="M0,-13L0,7C0,10.3,2.7,13,6,13L13.5,13" stroke-linejoin="round"/><g id="101" ed:height="60" ed:width="151.265625" ed:layout="rightmap" transform="matrix(1,0,0,1,22,822.06)" ed:topictype="mainidea"><path fill="#173679" stroke="#173679" d="M4,0L147.3,0C150,0,151.3,1.3,151.3,4L151.3,56C151.3,58.7,150,60,147.3,60L4,60C1.3,60,0,58.7,0,56L0,4C0,1.3,1.3,0,4,0z" stroke-linejoin="round" stroke-width="2"/><text class="st7"><tspan x="20" y="37.1" style="white-space:pre">AQS 框架</tspan></text></g><g id="102" ed:height="39" ed:parentid="101" ed:width="78" transform="matrix(1,0,0,1,236.27,32)"><path fill="#f9f9f9" stroke="#454545" d="M4,0L74,0C76.7,0,78,1.3,78,4L78,35C78,37.7,76.7,39,74,39L4,39C1.3,39,0,37.7,0,35L0,4C0,1.3,1.3,0,4,0z" stroke-linejoin="round" stroke-width="2"/><text class="st8"><tspan x="18" y="25.1" style="white-space:pre">概述</tspan></text></g><g id="104" ed:height="39" ed:parentid="101" ed:width="78" transform="matrix(1,0,0,1,236.27,390)"><path fill="#f9f9f9" stroke="#454545" d="M4,0L74,0C76.7,0,78,1.3,78,4L78,35C78,37.7,76.7,39,74,39L4,39C1.3,39,0,37.7,0,35L0,4C0,1.3,1.3,0,4,0z" stroke-linejoin="round" stroke-width="2"/><text class="st8"><tspan x="18" y="25.1" style="white-space:pre">架构</tspan></text></g><g id="106" ed:height="39" ed:parentid="101" ed:width="78" transform="matrix(1,0,0,1,236.27,1017.75)"><path fill="#f9f9f9" stroke="#454545" d="M4,0L74,0C76.7,0,78,1.3,78,4L78,35C78,37.7,76.7,39,74,39L4,39C1.3,39,0,37.7,0,35L0,4C0,1.3,1.3,0,4,0z" stroke-linejoin="round" stroke-width="2"/><text class="st9"><tspan x="18" y="25.1" style="white-space:pre">原理</tspan></text></g><g id="108" ed:height="39" ed:parentid="101" ed:width="97" transform="matrix(1,0,0,1,236.27,1633.13)"><path fill="#f9f9f9" stroke="#454545" d="M4,0L93,0C95.7,0,97,1.3,97,4L97,35C97,37.7,95.7,39,93,39L4,39C1.3,39,0,37.7,0,35L0,4C0,1.3,1.3,0,4,0z" stroke-linejoin="round" stroke-width="2"/><text class="st8"><tspan x="18" y="25.1" style="white-space:pre">实现类</tspan></text></g><g id="110" ed:height="19.5" ed:parentid="102" ed:width="110" transform="matrix(1,0,0,1,341.27,19)"><path fill="none" stroke="#454545" d="M0,19.5L110,19.5" stroke-linejoin="round"/><text class="st10"><tspan x="8" y="11.8" style="white-space:pre">抽象队列同步器</tspan></text></g><g id="112" ed:height="19.5" ed:parentid="102" ed:width="266" transform="matrix(1,0,0,1,341.27,45)"><path fill="none" stroke="#454545" d="M0,19.5L266,19.5" stroke-linejoin="round"/><text class="st10"><tspan x="8" y="11.8" style="white-space:pre">定义了一套多线程访问共享资源的同步框架</tspan></text></g><g id="146" ed:height="19.5" ed:parentid="148" ed:width="116.796875" transform="matrix(1,0,0,1,438.27,104)"><path fill="none" stroke="#454545" d="M0,19.5L116.8,19.5" stroke-linejoin="round"/><text class="st11"><tspan x="8" y="11.8" style="white-space:pre">volatile int state</tspan></text></g><g id="147" ed:height="19.5" ed:parentid="148" ed:width="78.3125" transform="matrix(1,0,0,1,438.27,130)"><path fill="none" stroke="#454545" d="M0,19.5L78.3,19.5" stroke-linejoin="round"/><text class="st10"><tspan x="8" y="11.8" style="white-space:pre">getState()</tspan></text></g><g id="148" ed:height="19.5" ed:parentid="104" ed:width="70" transform="matrix(1,0,0,1,341.27,143)"><path fill="none" stroke="#454545" d="M0,19.5L70,19.5" stroke-linejoin="round"/><text class="st10"><tspan x="8" y="11.8" style="white-space:pre">共享资源</tspan></text></g><g id="149" ed:height="19.5" ed:parentid="148" ed:width="76.015625" transform="matrix(1,0,0,1,438.27,156)"><path fill="none" stroke="#454545" d="M0,19.5L76,19.5" stroke-linejoin="round"/><text class="st10"><tspan x="8" y="11.8" style="white-space:pre">setState()</tspan></text></g><g id="150" ed:height="19.5" ed:parentid="104" ed:width="96" transform="matrix(1,0,0,1,341.27,637)"><path fill="none" stroke="#454545" d="M0,19.5L96,19.5" stroke-linejoin="round"/><text class="st10"><tspan x="8" y="11.8" style="white-space:pre">线程等待队列</tspan></text></g><g id="151" ed:height="19.5" ed:parentid="104" ed:width="96" transform="matrix(1,0,0,1,341.27,221)"><path fill="none" stroke="#454545" d="M0,19.5L96,19.5" stroke-linejoin="round"/><text class="st10"><tspan x="8" y="11.8" style="white-space:pre">资源共享方式</tspan></text></g><g id="152" ed:height="19.5" ed:parentid="148" ed:width="157.3125" transform="matrix(1,0,0,1,438.27,182)"><path fill="none" stroke="#454545" d="M0,19.5L157.3,19.5" stroke-linejoin="round"/><text class="st10"><tspan x="8" y="11.8" style="white-space:pre">compareAndSetState()</tspan></text></g><g id="153" ed:height="19.5" ed:parentid="150" ed:width="46.21875" transform="matrix(1,0,0,1,464.27,624)"><path fill="none" stroke="#454545" d="M0,19.5L46.2,19.5" stroke-linejoin="round"/><text class="st10"><tspan x="8" y="11.8" style="white-space:pre">FIFO</tspan></text></g><g id="154" ed:height="19.5" ed:parentid="150" ed:width="57" transform="matrix(1,0,0,1,464.27,650)"><path fill="none" stroke="#454545" d="M0,19.5L57,19.5" stroke-linejoin="round"/><text class="st10"><tspan x="8" y="11.8" style="white-space:pre">双链表</tspan></text></g><g id="155" ed:height="19.5" ed:parentid="151" ed:width="44" transform="matrix(1,0,0,1,464.27,208)"><path fill="none" stroke="#454545" d="M0,19.5L44,19.5" stroke-linejoin="round"/><text class="st10"><tspan x="8" y="11.8" style="white-space:pre">独占</tspan></text></g><g id="156" ed:height="19.5" ed:parentid="151" ed:width="44" transform="matrix(1,0,0,1,464.27,234)"><path fill="none" stroke="#454545" d="M0,19.5L44,19.5" stroke-linejoin="round"/><text class="st10"><tspan x="8" y="11.8" style="white-space:pre">共享</tspan></text></g><g id="168" ed:height="19.5" ed:parentid="104" ed:width="109" transform="matrix(1,0,0,1,341.27,416)"><path fill="none" stroke="#454545" d="M0,19.5L109,19.5" stroke-linejoin="round"/><text class="st10"><tspan x="8" y="11.8" style="white-space:pre">资源获取与释放</tspan></text></g><g id="170" ed:height="19.5" ed:parentid="168" ed:width="185.4375" transform="matrix(1,0,0,1,477.27,260)"><path fill="none" stroke="#454545" d="M0,19.5L185.4,19.5" stroke-linejoin="round"/><text class="st10"><tspan x="8" y="11.8" style="white-space:pre">boolean isHeldExclusively()</tspan></text></g><g id="172" ed:height="19.5" ed:parentid="168" ed:width="162.359375" transform="matrix(1,0,0,1,477.27,312)"><path fill="none" stroke="#454545" d="M0,19.5L162.4,19.5" stroke-linejoin="round"/><text class="st11"><tspan x="8" y="11.8" style="white-space:pre">boolean tryAcquire(int)</tspan></text></g><g id="174" ed:height="19.5" ed:parentid="168" ed:width="161.65625" transform="matrix(1,0,0,1,477.27,390)"><path fill="none" stroke="#454545" d="M0,19.5L161.7,19.5" stroke-linejoin="round"/><text class="st11"><tspan x="8" y="11.8" style="white-space:pre">boolean tryRelease(int)</tspan></text></g><g id="176" ed:height="19.5" ed:parentid="168" ed:width="170.96875" transform="matrix(1,0,0,1,477.27,481)"><path fill="none" stroke="#454545" d="M0,19.5L171,19.5" stroke-linejoin="round"/><text class="st12"><tspan x="8" y="11.8" style="white-space:pre">int tryAcquireShared(int)</tspan></text></g><g id="178" ed:height="19.5" ed:parentid="168" ed:width="204.78125" transform="matrix(1,0,0,1,477.27,572)"><path fill="none" stroke="#454545" d="M0,19.5L204.8,19.5" stroke-linejoin="round"/><text class="st12"><tspan x="8" y="11.8" style="white-space:pre">boolean tryReleaseShared(int)</tspan></text></g><g id="180" ed:height="19.5" ed:parentid="170" ed:width="331.75" transform="matrix(1,0,0,1,689.7,260)"><path fill="none" stroke="#454545" d="M0,19.5L331.8,19.5" stroke-linejoin="round"/><text class="st10"><tspan x="8" y="11.8" style="white-space:pre">是否独占资源，只有用到 condition 才需要实现该方法</tspan></text></g><g id="182" ed:height="19.5" ed:parentid="172" ed:width="135" transform="matrix(1,0,0,1,666.63,286)"><path fill="none" stroke="#454545" d="M0,19.5L135,19.5" stroke-linejoin="round"/><text class="st10"><tspan x="8" y="11.8" style="white-space:pre">独占，尝试获取资源</tspan></text></g><g id="184" ed:height="19.5" ed:parentid="174" ed:width="135" transform="matrix(1,0,0,1,665.92,364)"><path fill="none" stroke="#454545" d="M0,19.5L135,19.5" stroke-linejoin="round"/><text class="st10"><tspan x="8" y="11.8" style="white-space:pre">独占，尝试释放资源</tspan></text></g><g id="186" ed:height="19.5" ed:parentid="176" ed:width="135" transform="matrix(1,0,0,1,675.23,442)"><path fill="none" stroke="#454545" d="M0,19.5L135,19.5" stroke-linejoin="round"/><text class="st10"><tspan x="8" y="11.8" style="white-space:pre">共享，尝试获取资源</tspan></text></g><g id="188" ed:height="19.5" ed:parentid="172" ed:width="99" transform="matrix(1,0,0,1,666.63,312)"><path fill="none" stroke="#454545" d="M0,19.5L99,19.5" stroke-linejoin="round"/><text class="st10"><tspan x="8" y="11.8" style="white-space:pre">true 表示成功</tspan></text></g><g id="190" ed:height="19.5" ed:parentid="172" ed:width="103.359375" transform="matrix(1,0,0,1,666.63,338)"><path fill="none" stroke="#454545" d="M0,19.5L103.4,19.5" stroke-linejoin="round"/><text class="st10"><tspan x="8" y="11.8" style="white-space:pre">false 表示失败</tspan></text></g><g id="192" ed:height="19.5" ed:parentid="174" ed:width="99" transform="matrix(1,0,0,1,665.92,390)"><path fill="none" stroke="#454545" d="M0,19.5L99,19.5" stroke-linejoin="round"/><text class="st10"><tspan x="8" y="11.8" style="white-space:pre">true 表示成功</tspan></text></g><g id="194" ed:height="19.5" ed:parentid="174" ed:width="103.359375" transform="matrix(1,0,0,1,665.92,416)"><path fill="none" stroke="#454545" d="M0,19.5L103.4,19.5" stroke-linejoin="round"/><text class="st10"><tspan x="8" y="11.8" style="white-space:pre">false 表示失败</tspan></text></g><g id="196" ed:height="19.5" ed:parentid="176" ed:width="198.453125" transform="matrix(1,0,0,1,675.23,468)"><path fill="none" stroke="#454545" d="M0,19.5L198.5,19.5" stroke-linejoin="round"/><text class="st10"><tspan x="8" y="11.8" style="white-space:pre">0 表示成功但没有剩余可用资源</tspan></text></g><g id="198" ed:height="19.5" ed:parentid="176" ed:width="169.09375" transform="matrix(1,0,0,1,675.23,494)"><path fill="none" stroke="#454545" d="M0,19.5L169.1,19.5" stroke-linejoin="round"/><text class="st10"><tspan x="8" y="11.8" style="white-space:pre">>0 表示成功且有剩余资源</tspan></text></g><g id="200" ed:height="19.5" ed:parentid="176" ed:width="92.09375" transform="matrix(1,0,0,1,675.23,520)"><path fill="none" stroke="#454545" d="M0,19.5L92.1,19.5" stroke-linejoin="round"/><text class="st10"><tspan x="8" y="11.8" style="white-space:pre">&lt;0 表示失败</tspan></text></g><g id="202" ed:height="19.5" ed:parentid="178" ed:width="109" transform="matrix(1,0,0,1,709.05,546)"><path fill="none" stroke="#454545" d="M0,19.5L109,19.5" stroke-linejoin="round"/><text class="st10"><tspan x="8" y="11.8" style="white-space:pre">共享，释放资源</tspan></text></g><g id="204" ed:height="19.5" ed:parentid="178" ed:width="242" transform="matrix(1,0,0,1,709.05,572)"><path fill="none" stroke="#454545" d="M0,19.5L242,19.5" stroke-linejoin="round"/><text class="st10"><tspan x="8" y="11.8" style="white-space:pre">true 表示释放后允许唤醒后续等待节点</tspan></text></g><g id="206" ed:height="19.5" ed:parentid="178" ed:width="258.359375" transform="matrix(1,0,0,1,709.05,598)"><path fill="none" stroke="#454545" d="M0,19.5L258.4,19.5" stroke-linejoin="round"/><text class="st10"><tspan x="8" y="11.8" style="white-space:pre">false 表示释放后不允许唤醒后续等待节点</tspan></text></g><g id="208" ed:height="19.5" ed:parentid="106" ed:width="52.5" transform="matrix(1,0,0,1,341.27,819.5)"><path fill="none" stroke="#454545" d="M0,19.5L52.5,19.5" stroke-linejoin="round"/><text class="st10"><tspan x="8" y="11.8" style="white-space:pre">Node</tspan></text></g><g id="210" ed:height="19.5" ed:parentid="208" ed:width="200" transform="matrix(1,0,0,1,420.77,702.5)"><path fill="none" stroke="#454545" d="M0,19.5L200,19.5" stroke-linejoin="round"/><text class="st10"><tspan x="8" y="11.8" style="white-space:pre">表示每一个等待获取资源的线程</tspan></text></g><g id="212" ed:height="19.5" ed:parentid="208" ed:width="150.28125" transform="matrix(1,0,0,1,420.77,780.5)"><path fill="none" stroke="#454545" d="M0,19.5L150.3,19.5" stroke-linejoin="round"/><text class="st10"><tspan x="8" y="11.8" style="white-space:pre">volatile int waitStatus</tspan></text></g><g id="214" ed:height="19.5" ed:parentid="212" ed:width="92.5625" transform="matrix(1,0,0,1,598.05,754.5)"><path fill="none" stroke="#454545" d="M0,19.5L92.6,19.5" stroke-linejoin="round"/><text class="st10"><tspan x="8" y="11.8" style="white-space:pre">CANCELLED</tspan></text></g><g id="216" ed:height="19.5" ed:parentid="212" ed:width="65.328125" transform="matrix(1,0,0,1,598.05,780.5)"><path fill="none" stroke="#454545" d="M0,19.5L65.3,19.5" stroke-linejoin="round"/><text class="st10"><tspan x="8" y="11.8" style="white-space:pre">SIGNAL</tspan></text></g><g id="218" ed:height="19.5" ed:parentid="212" ed:width="93.765625" transform="matrix(1,0,0,1,598.05,806.5)"><path fill="none" stroke="#454545" d="M0,19.5L93.8,19.5" stroke-linejoin="round"/><text class="st10"><tspan x="8" y="11.8" style="white-space:pre">CONDITION</tspan></text></g><g id="220" ed:height="19.5" ed:parentid="212" ed:width="93.078125" transform="matrix(1,0,0,1,598.05,832.5)"><path fill="none" stroke="#454545" d="M0,19.5L93.1,19.5" stroke-linejoin="round"/><text class="st10"><tspan x="8" y="11.8" style="white-space:pre">PROPAGATE</tspan></text></g><g id="222" ed:height="19.5" ed:parentid="208" ed:width="132.15625" transform="matrix(1,0,0,1,420.77,858.5)"><path fill="none" stroke="#454545" d="M0,19.5L132.2,19.5" stroke-linejoin="round"/><text class="st10"><tspan x="8" y="11.8" style="white-space:pre">volatile Node prev</tspan></text></g><g id="224" ed:height="19.5" ed:parentid="208" ed:width="131.6875" transform="matrix(1,0,0,1,420.77,884.5)"><path fill="none" stroke="#454545" d="M0,19.5L131.7,19.5" stroke-linejoin="round"/><text class="st10"><tspan x="8" y="11.8" style="white-space:pre">volatile Node next</tspan></text></g><g id="226" ed:height="19.5" ed:parentid="208" ed:width="153.921875" transform="matrix(1,0,0,1,420.77,910.5)"><path fill="none" stroke="#454545" d="M0,19.5L153.9,19.5" stroke-linejoin="round"/><text class="st10"><tspan x="8" y="11.8" style="white-space:pre">volatile Thread thread</tspan></text></g><g id="228" ed:height="19.5" ed:parentid="208" ed:width="172.0625" transform="matrix(1,0,0,1,420.77,936.5)"><path fill="none" stroke="#454545" d="M0,19.5L172.1,19.5" stroke-linejoin="round"/><text class="st10"><tspan x="8" y="11.8" style="white-space:pre">volatile Node nextWaiter</tspan></text></g><g id="230" ed:height="19.5" ed:parentid="212" ed:width="26" transform="matrix(1,0,0,1,598.05,728.5)"><path fill="none" stroke="#454545" d="M0,19.5L26,19.5" stroke-linejoin="round"/><text class="st10"><tspan x="8" y="11.8" style="white-space:pre">0</tspan></text></g><g id="232" ed:height="19.5" ed:parentid="238" ed:width="116.796875" transform="matrix(1,0,0,1,413.27,988.5)"><path fill="none" stroke="#454545" d="M0,19.5L116.8,19.5" stroke-linejoin="round"/><text class="st10"><tspan x="8" y="11.8" style="white-space:pre">volatile int state</tspan></text></g><g id="234" ed:height="19.5" ed:parentid="238" ed:width="135.765625" transform="matrix(1,0,0,1,413.27,962.5)"><path fill="none" stroke="#454545" d="M0,19.5L135.8,19.5" stroke-linejoin="round"/><text class="st10"><tspan x="8" y="11.8" style="white-space:pre">volatile Node head</tspan></text></g><g id="236" ed:height="19.5" ed:parentid="238" ed:width="123.8125" transform="matrix(1,0,0,1,413.27,1014.5)"><path fill="none" stroke="#454545" d="M0,19.5L123.8,19.5" stroke-linejoin="round"/><text class="st10"><tspan x="8" y="11.8" style="white-space:pre">volatile Node tail</tspan></text></g><g id="238" ed:height="19.5" ed:parentid="106" ed:width="45" transform="matrix(1,0,0,1,341.27,988.5)"><path fill="none" stroke="#454545" d="M0,19.5L45,19.5" stroke-linejoin="round"/><text class="st10"><tspan x="8" y="11.8" style="white-space:pre">字段</tspan></text></g><g id="240" ed:height="19.5" ed:parentid="106" ed:width="44" transform="matrix(1,0,0,1,341.27,1040.5)"><path fill="none" stroke="#454545" d="M0,19.5L44,19.5" stroke-linejoin="round"/><text class="st10"><tspan x="8" y="11.8" style="white-space:pre">方法</tspan></text></g><g id="242" ed:height="19.5" ed:parentid="248" ed:width="86.171875" transform="matrix(1,0,0,1,412.27,1209.5)"><path fill="none" stroke="#454545" d="M0,19.5L86.2,19.5" stroke-linejoin="round"/><text class="st10"><tspan x="8" y="11.8" style="white-space:pre">CAS 自旋锁</tspan></text></g><g id="244" ed:height="19.5" ed:parentid="248" ed:width="95.21875" transform="matrix(1,0,0,1,412.27,1326.5)"><path fill="none" stroke="#454545" d="M0,19.5L95.2,19.5" stroke-linejoin="round"/><text class="st10"><tspan x="8" y="11.8" style="white-space:pre">ParkSupport</tspan></text></g><g id="246" ed:height="19.5" ed:parentid="242" ed:width="223.796875" transform="matrix(1,0,0,1,525.44,1144.5)"><path fill="none" stroke="#454545" d="M0,19.5L223.8,19.5" stroke-linejoin="round"/><text class="st10"><tspan x="8" y="11.8" style="white-space:pre">compare and swap/exchange/set</tspan></text></g><g id="248" ed:height="19.5" ed:parentid="106" ed:width="44" transform="matrix(1,0,0,1,341.27,1216)"><path fill="none" stroke="#454545" d="M0,19.5L44,19.5" stroke-linejoin="round"/><text class="st10"><tspan x="8" y="11.8" style="white-space:pre">核心</tspan></text></g><g id="250" ed:height="19.5" ed:parentid="242" ed:width="198.75" transform="matrix(1,0,0,1,525.44,1170.5)"><path fill="none" stroke="#454545" d="M0,19.5L198.8,19.5" stroke-linejoin="round"/><text class="st10"><tspan x="8" y="11.8" style="white-space:pre">Unsafe#compareAndSetXxx()</tspan></text></g><g id="252" ed:height="19.5" ed:parentid="248" ed:width="62.71875" transform="matrix(1,0,0,1,412.27,1105.5)"><path fill="none" stroke="#454545" d="M0,19.5L62.7,19.5" stroke-linejoin="round"/><text class="st10"><tspan x="8" y="11.8" style="white-space:pre">volatile</tspan></text></g><g id="254" ed:height="19.5" ed:parentid="252" ed:width="71" transform="matrix(1,0,0,1,501.98,1092.5)"><path fill="none" stroke="#454545" d="M0,19.5L71,19.5" stroke-linejoin="round"/><text class="st10"><tspan x="8" y="11.8" style="white-space:pre">内存屏障</tspan></text></g><g id="256" ed:height="19.5" ed:parentid="252" ed:width="83" transform="matrix(1,0,0,1,501.98,1118.5)"><path fill="none" stroke="#454545" d="M0,19.5L83,19.5" stroke-linejoin="round"/><text class="st10"><tspan x="8" y="11.8" style="white-space:pre">内存可见性</tspan></text></g><g id="258" ed:height="19.5" ed:parentid="256" ed:width="157.9375" transform="matrix(1,0,0,1,611.98,1118.5)"><path fill="none" stroke="#454545" d="M0,19.5L157.9,19.5" stroke-linejoin="round"/><text class="st10"><tspan x="8" y="11.8" style="white-space:pre">线程本地内存 -> 主内存</tspan></text></g><g id="260" ed:height="19.5" ed:parentid="242" ed:width="74.28125" transform="matrix(1,0,0,1,525.44,1209.5)"><path fill="none" stroke="#454545" d="M0,19.5L74.3,19.5" stroke-linejoin="round"/><text class="st11"><tspan x="8" y="11.8" style="white-space:pre">ABA 问题</tspan></text></g><g id="262" ed:height="19.5" ed:parentid="260" ed:width="148" transform="matrix(1,0,0,1,626.72,1196.5)"><path fill="none" stroke="#454545" d="M0,19.5L148,19.5" stroke-linejoin="round"/><text class="st10"><tspan x="8" y="11.8" style="white-space:pre">通过添加版本号来解决</tspan></text></g><g id="264" ed:height="19.5" ed:parentid="260" ed:width="138.796875" transform="matrix(1,0,0,1,626.72,1222.5)"><path fill="none" stroke="#454545" d="M0,19.5L138.8,19.5" stroke-linejoin="round"/><text class="st10"><tspan x="8" y="11.8" style="white-space:pre">StampedAtomicXxx</tspan></text></g><g id="266" ed:height="19.5" ed:parentid="242" ed:width="181.015625" transform="matrix(1,0,0,1,525.44,1274.5)"><path fill="none" stroke="#454545" d="M0,19.5L181,19.5" stroke-linejoin="round"/><text class="st11"><tspan x="8" y="11.8" style="white-space:pre">如何保证 CAS 操作的原子性</tspan></text></g><g id="268" ed:height="19.5" ed:parentid="350" ed:width="108.109375" transform="matrix(1,0,0,1,444.27,1457.5)"><path fill="none" stroke="#454545" d="M0,19.5L108.1,19.5" stroke-linejoin="round"/><text class="st10"><tspan x="8" y="11.8" style="white-space:pre">ReentrantLock</tspan></text></g><g id="269" ed:height="19.5" ed:parentid="352" ed:width="125.140625" transform="matrix(1,0,0,1,444.27,1631)"><path fill="none" stroke="#454545" d="M0,19.5L125.1,19.5" stroke-linejoin="round"/><text class="st10"><tspan x="8" y="11.8" style="white-space:pre">CountDownLatch</tspan></text></g><g id="270" ed:height="19.5" ed:parentid="352" ed:width="88.90625" transform="matrix(1,0,0,1,444.27,1579)"><path fill="none" stroke="#454545" d="M0,19.5L88.9,19.5" stroke-linejoin="round"/><text class="st10"><tspan x="8" y="11.8" style="white-space:pre">Semaphore</tspan></text></g><g id="274" ed:height="19.5" ed:parentid="268" ed:width="57" transform="matrix(1,0,0,1,579.38,1414)"><path fill="none" stroke="#454545" d="M0,19.5L57,19.5" stroke-linejoin="round"/><text class="st10"><tspan x="8" y="11.8" style="white-space:pre">公平锁</tspan></text></g><g id="276" ed:height="19.5" ed:parentid="268" ed:width="70" transform="matrix(1,0,0,1,579.38,1501)"><path fill="none" stroke="#454545" d="M0,19.5L70,19.5" stroke-linejoin="round"/><text class="st10"><tspan x="8" y="11.8" style="white-space:pre">非公平锁</tspan></text></g><g id="280" ed:height="19.5" ed:parentid="276" ed:width="356" transform="matrix(1,0,0,1,676.38,1475)"><path fill="none" stroke="#454545" d="M0,19.5L356,19.5" stroke-linejoin="round"/><text class="st12"><tspan x="8" y="11.8" style="white-space:pre">直接尝试获取资源，只要自旋成功即可获取锁，否则进队列</tspan></text></g><g id="282" ed:height="19.5" ed:parentid="266" ed:width="135" transform="matrix(1,0,0,1,733.45,1248.5)"><path fill="none" stroke="#454545" d="M0,19.5L135,19.5" stroke-linejoin="round"/><text class="st10"><tspan x="8" y="11.8" style="white-space:pre">底层由汇编语言实现</tspan></text></g><g id="284" ed:height="19.5" ed:parentid="266" ed:width="93.09375" transform="matrix(1,0,0,1,733.45,1274.5)"><path fill="none" stroke="#454545" d="M0,19.5L93.1,19.5" stroke-linejoin="round"/><text class="st10"><tspan x="8" y="11.8" style="white-space:pre">LOCL_IF_MP</tspan></text></g><g id="286" ed:height="19.5" ed:parentid="266" ed:width="74.234375" transform="matrix(1,0,0,1,733.45,1300.5)"><path fill="none" stroke="#454545" d="M0,19.5L74.2,19.5" stroke-linejoin="round"/><text class="st10"><tspan x="8" y="11.8" style="white-space:pre">comxchg</tspan></text></g><g id="288" ed:height="19.5" ed:parentid="274" ed:width="355.546875" transform="matrix(1,0,0,1,663.38,1379)"><path fill="none" stroke="#454545" d="M0,19.5L355.5,19.5" stroke-linejoin="round"/><text class="st12"><tspan x="8" y="11.8" style="white-space:pre">按照申请锁的先后顺序进等待队列，队列 head 才能获取锁</tspan></text></g><g id="290" ed:height="19.5" ed:parentid="274" ed:width="304" transform="matrix(1,0,0,1,663.38,1405)"><path fill="none" stroke="#454545" d="M0,19.5L304,19.5" stroke-linejoin="round"/><text class="st10"><tspan x="8" y="11.8" style="white-space:pre">优点：所有线程都能获取资源，不会饿死在队列中</tspan></text></g><g id="292" ed:height="37.5" ed:parentid="274" ed:width="381.546875" transform="matrix(1,0,0,1,663.38,1431)"><path fill="none" stroke="#454545" d="M0,37.5L381.5,37.5" stroke-linejoin="round"/><text class="st10"><tspan x="8" y="11.8" style="white-space:pre">缺点：吞吐量会下降很多，除了队列 head 其他都要阻塞等待，</tspan><tspan x="8" y="29.8" style="white-space:pre">CPU 唤醒阻塞线程开销会很大</tspan></text></g><g id="294" ed:height="19.5" ed:parentid="276" ed:width="286.03125" transform="matrix(1,0,0,1,676.38,1501)"><path fill="none" stroke="#454545" d="M0,19.5L286,19.5" stroke-linejoin="round"/><text class="st10"><tspan x="8" y="11.8" style="white-space:pre">优点：减少 CPU 唤醒线程开销，吞吐量会高点</tspan></text></g><g id="296" ed:height="19.5" ed:parentid="276" ed:width="292" transform="matrix(1,0,0,1,676.38,1527)"><path fill="none" stroke="#454545" d="M0,19.5L292,19.5" stroke-linejoin="round"/><text class="st10"><tspan x="8" y="11.8" style="white-space:pre">缺点：队列中的线程可能获取不到锁，导致饿死</tspan></text></g><g id="350" ed:height="19.5" ed:parentid="108" ed:width="57" transform="matrix(1,0,0,1,360.27,1505.25)"><path fill="none" stroke="#454545" d="M0,19.5L57,19.5" stroke-linejoin="round"/><text class="st10"><tspan x="8" y="11.8" style="white-space:pre">独占型</tspan></text></g><g id="352" ed:height="19.5" ed:parentid="108" ed:width="57" transform="matrix(1,0,0,1,360.27,1605)"><path fill="none" stroke="#454545" d="M0,19.5L57,19.5" stroke-linejoin="round"/><text class="st10"><tspan x="8" y="11.8" style="white-space:pre">共享型</tspan></text></g><g id="354" ed:height="19.5" ed:parentid="350" ed:width="195.34375" transform="matrix(1,0,0,1,444.27,1553)"><path fill="none" stroke="#454545" d="M0,19.5L195.3,19.5" stroke-linejoin="round"/><text class="st10"><tspan x="8" y="11.8" style="white-space:pre">ThreadPoolExecutor#Worker</tspan></text></g><g id="360" ed:height="19.5" ed:parentid="108" ed:width="172.78125" transform="matrix(1,0,0,1,360.27,1709)"><path fill="none" stroke="#454545" d="M0,19.5L172.8,19.5" stroke-linejoin="round"/><text class="st10"><tspan x="8" y="11.8" style="white-space:pre">ReentrantReadWriteLock</tspan></text></g><g id="362" ed:height="19.5" ed:parentid="360" ed:width="83" transform="matrix(1,0,0,1,560.05,1683)"><path fill="none" stroke="#454545" d="M0,19.5L83,19.5" stroke-linejoin="round"/><text class="st10"><tspan x="8" y="11.8" style="white-space:pre">读：共享型</tspan></text></g><g id="364" ed:height="19.5" ed:parentid="360" ed:width="83" transform="matrix(1,0,0,1,560.05,1735)"><path fill="none" stroke="#454545" d="M0,19.5L83,19.5" stroke-linejoin="round"/><text class="st10"><tspan x="8" y="11.8" style="white-space:pre">写：独占型</tspan></text></g><g id="366" ed:height="19.5" ed:parentid="360" ed:width="70" transform="matrix(1,0,0,1,560.05,1709)"><path fill="none" stroke="#454545" d="M0,19.5L70,19.5" stroke-linejoin="round"/><text class="st10"><tspan x="8" y="11.8" style="white-space:pre">读多写少</tspan></text></g><g id="368" ed:height="19.5" ed:parentid="106" ed:width="120.3125" transform="matrix(1,0,0,1,341.27,1066.5)"><path fill="none" stroke="#454545" d="M0,19.5L120.3,19.5" stroke-linejoin="round"/><text class="st10"><tspan x="8" y="11.8" style="white-space:pre">ConditionObject</tspan></text></g><g id="370" ed:height="19.5" ed:parentid="108" ed:width="94.453125" transform="matrix(1,0,0,1,360.27,1761)"><path fill="none" stroke="#454545" d="M0,19.5L94.5,19.5" stroke-linejoin="round"/><text class="st10"><tspan x="8" y="11.8" style="white-space:pre">CyclicBarrier</tspan></text></g><g id="372" ed:height="19.5" ed:parentid="269" ed:width="129.5625" transform="matrix(1,0,0,1,596.41,1605)"><path fill="none" stroke="#454545" d="M0,19.5L129.6,19.5" stroke-linejoin="round"/><text class="st10"><tspan x="8" y="11.8" style="white-space:pre">int count 共享资源</tspan></text></g><g id="375" ed:height="19.5" ed:parentid="269" ed:width="59.53125" transform="matrix(1,0,0,1,596.41,1631)"><path fill="none" stroke="#454545" d="M0,19.5L59.5,19.5" stroke-linejoin="round"/><text class="st10"><tspan x="8" y="11.8" style="white-space:pre">await()</tspan></text></g><g id="377" ed:height="19.5" ed:parentid="269" ed:width="98.640625" transform="matrix(1,0,0,1,596.41,1657)"><path fill="none" stroke="#454545" d="M0,19.5L98.6,19.5" stroke-linejoin="round"/><text class="st10"><tspan x="8" y="11.8" style="white-space:pre">countDown()</tspan></text></g></svg>