<svg height="1632" xmlns:ed="https://www.edrawsoft.cn/xml/2017/SVGExtensions/" ed:vSpacing="30" ed:hSpacing="30" xmlns:ev="http://www.w3.org/2001/xml-events" viewBox="0 0 1180 1632" width="1180" xmlns="http://www.w3.org/2000/svg" ed:name="Page-1" xmlns:xlink="http://www.w3.org/1999/xlink" id="page100"><style type="text/css"><![CDATA[
g[ed\:togtopicid],g[ed\:hyperlink],g[ed\:comment],g[ed\:note] {cursor:pointer;}
g[id] {-moz-user-select: none;-ms-user-select: none;user-select: none;}
svg text::selection,svg tspan::selection{background-color: #4285f4;color: #ffffff;fill: #ffffff;}
.st4 {fill:#000000;font-family:宋体;font-size:12pt}
.st3 {fill:#000000;font-family:宋体;font-size:14pt}
.st6 {fill:#00b050;font-family:宋体;font-size:12pt}
.st2 {fill:#303030;font-family:宋体;font-size:14pt}
.st7 {fill:#454545;font-family:宋体;font-size:12pt}
.st1 {fill:#454545;font-family:宋体;font-size:18pt}
.st5 {fill:#ff0000;font-family:宋体;font-size:12pt}
]]></style><defs><linearGradient y2="100%" x1="0%" y1="0%" x2="0%" id="lg1"><stop offset="0" stop-color="#ffffff"/><stop offset="0.25" stop-color="#f0f5f0"/><stop offset="0.75" stop-color="#e1ebe1"/><stop offset="1" stop-color="#c8d7c8"/></linearGradient></defs><rect height="1632" width="1180" x="0" fill="#ffffff" y="0"/><path transform="matrix(1,0,0,1,160,429)" d="M3.8,386.6L31.8,386.6L31.8,-380.6C31.8,-383.9,34.4,-386.6,37.8,-386.6L66.8,-386.6" stroke-linecap="round" ed:tosuperid="102" stroke-linejoin="round" stroke="#53a1d4" fill="none" id="103" ed:parentid="101"/><path transform="matrix(1,0,0,1,160,593)" d="M3.8,223.4L31.8,223.4L31.8,-217.4C31.8,-220.7,34.4,-223.4,37.8,-223.4L66.8,-223.4" stroke-linecap="round" ed:tosuperid="104" stroke-linejoin="round" stroke="#53a1d4" fill="none" id="105" ed:parentid="101"/><path transform="matrix(1,0,0,1,160,893)" d="M3.8,-77.4L31.8,-77.4L31.8,71.4C31.8,74.7,34.4,77.4,37.8,77.4L66.8,77.4" stroke-linecap="round" ed:tosuperid="106" stroke-linejoin="round" stroke="#53a1d4" fill="none" id="107" ed:parentid="101"/><path transform="matrix(1,0,0,1,160,1136)" d="M3.8,-319.9L31.8,-319.9L31.8,313.9C31.8,317.2,34.4,319.9,37.8,319.9L66.8,319.9" stroke-linecap="round" ed:tosuperid="108" stroke-linejoin="round" stroke="#53a1d4" fill="none" id="109" ed:parentid="101"/><path transform="matrix(1,0,0,1,318,41)" d="M-13.5,1.6L3.7,1.6C3.7,-0.2,6.4,-1.6,9.7,-1.6L13.5,-1.6" stroke-linecap="round" ed:tosuperid="110" stroke-linejoin="round" stroke="#53a1d4" fill="none" id="111" ed:parentid="102"/><path transform="matrix(1,0,0,1,318,54)" d="M3.7,-10.9L3.7,4.9C3.7,8.2,6.4,10.9,9.7,10.9L13.5,10.9" stroke-linecap="round" ed:tosuperid="112" stroke-linejoin="round" stroke="#53a1d4" fill="none" id="113" ed:parentid="102"/><path transform="matrix(1,0,0,1,459,622)" d="M-13.5,6.3L3.7,6.3L3.7,-0.3C3.7,-3.6,6.4,-6.3,9.7,-6.3L13.5,-6.3" stroke-linecap="round" ed:tosuperid="153" stroke-linejoin="round" stroke="#53a1d4" fill="none" id="157" ed:parentid="150"/><path transform="matrix(1,0,0,1,459,635)" d="M3.7,-6.3L3.7,0.3C3.7,3.6,6.4,6.3,9.7,6.3L13.5,6.3" stroke-linecap="round" ed:tosuperid="154" stroke-linejoin="round" stroke="#53a1d4" fill="none" id="158" ed:parentid="150"/><path transform="matrix(1,0,0,1,427,135)" d="M-13.5,18.8L3.7,18.8L3.7,-12.8C3.7,-16.1,6.4,-18.8,9.7,-18.8L13.5,-18.8" stroke-linecap="round" ed:tosuperid="146" stroke-linejoin="round" stroke="#53a1d4" fill="none" id="159" ed:parentid="148"/><path transform="matrix(1,0,0,1,427,147)" d="M3.7,6.3L3.7,-0.3C3.7,-3.6,6.4,-6.3,9.7,-6.3L13.5,-6.3" stroke-linecap="round" ed:tosuperid="147" stroke-linejoin="round" stroke="#53a1d4" fill="none" id="160" ed:parentid="148"/><path transform="matrix(1,0,0,1,427,160)" d="M3.7,-6.3L3.7,0.3C3.7,3.6,6.4,6.3,9.7,6.3L13.5,6.3" stroke-linecap="round" ed:tosuperid="149" stroke-linejoin="round" stroke="#53a1d4" fill="none" id="161" ed:parentid="148"/><path transform="matrix(1,0,0,1,427,172)" d="M3.7,-18.8L3.7,12.8C3.7,16.1,6.4,18.8,9.7,18.8L13.5,18.8" stroke-linecap="round" ed:tosuperid="152" stroke-linejoin="round" stroke="#53a1d4" fill="none" id="162" ed:parentid="148"/><path transform="matrix(1,0,0,1,459,222)" d="M-13.5,6.3L3.7,6.3L3.7,-0.3C3.7,-3.6,6.4,-6.3,9.7,-6.3L13.5,-6.3" stroke-linecap="round" ed:tosuperid="155" stroke-linejoin="round" stroke="#53a1d4" fill="none" id="163" ed:parentid="151"/><path transform="matrix(1,0,0,1,459,235)" d="M3.7,-6.3L3.7,0.3C3.7,3.6,6.4,6.3,9.7,6.3L13.5,6.3" stroke-linecap="round" ed:tosuperid="156" stroke-linejoin="round" stroke="#53a1d4" fill="none" id="164" ed:parentid="151"/><path transform="matrix(1,0,0,1,318,261)" d="M-13.5,107.9L3.7,107.9L3.7,-101.9C3.7,-105.2,6.4,-107.9,9.7,-107.9L13.5,-107.9" stroke-linecap="round" ed:tosuperid="148" stroke-linejoin="round" stroke="#53a1d4" fill="none" id="165" ed:parentid="104"/><path transform="matrix(1,0,0,1,318,499)" d="M3.7,-129.6L3.7,123.6C3.7,126.9,6.4,129.6,9.7,129.6L13.5,129.6" stroke-linecap="round" ed:tosuperid="150" stroke-linejoin="round" stroke="#53a1d4" fill="none" id="166" ed:parentid="104"/><path transform="matrix(1,0,0,1,318,299)" d="M3.7,70.4L3.7,-64.4C3.7,-67.7,6.4,-70.4,9.7,-70.4L13.5,-70.4" stroke-linecap="round" ed:tosuperid="151" stroke-linejoin="round" stroke="#53a1d4" fill="none" id="167" ed:parentid="104"/><path transform="matrix(1,0,0,1,318,399)" d="M3.7,-29.6L3.7,23.6C3.7,26.9,6.4,29.6,9.7,29.6L13.5,29.6" stroke-linecap="round" ed:tosuperid="168" stroke-linejoin="round" stroke="#53a1d4" fill="none" id="169" ed:parentid="104"/><path transform="matrix(1,0,0,1,475,347)" d="M-13.5,81.3L3.7,81.3L3.7,-75.3C3.7,-78.6,6.4,-81.3,9.7,-81.3L13.5,-81.3" stroke-linecap="round" ed:tosuperid="170" stroke-linejoin="round" stroke="#53a1d4" fill="none" id="171" ed:parentid="168"/><path transform="matrix(1,0,0,1,475,372)" d="M3.7,56.3L3.7,-50.3C3.7,-53.6,6.4,-56.3,9.7,-56.3L13.5,-56.3" stroke-linecap="round" ed:tosuperid="172" stroke-linejoin="round" stroke="#53a1d4" fill="none" id="173" ed:parentid="168"/><path transform="matrix(1,0,0,1,475,410)" d="M3.7,18.8L3.7,-12.8C3.7,-16.1,6.4,-18.8,9.7,-18.8L13.5,-18.8" stroke-linecap="round" ed:tosuperid="174" stroke-linejoin="round" stroke="#53a1d4" fill="none" id="175" ed:parentid="168"/><path transform="matrix(1,0,0,1,475,454)" d="M3.7,-25L3.7,19C3.7,22.3,6.4,25,9.7,25L13.5,25" stroke-linecap="round" ed:tosuperid="176" stroke-linejoin="round" stroke="#53a1d4" fill="none" id="177" ed:parentid="168"/><path transform="matrix(1,0,0,1,475,497)" d="M3.7,-68.8L3.7,62.8C3.7,66.1,6.4,68.8,9.7,68.8L13.5,68.8" stroke-linecap="round" ed:tosuperid="178" stroke-linejoin="round" stroke="#53a1d4" fill="none" id="179" ed:parentid="168"/><path transform="matrix(1,0,0,1,736,266)" d="M-13.5,0L3.7,0C3.7,0,6.4,0,9.7,0L13.5,0" stroke-linecap="round" ed:tosuperid="180" stroke-linejoin="round" stroke="#53a1d4" fill="none" id="181" ed:parentid="170"/><path transform="matrix(1,0,0,1,704,304)" d="M-13.5,12.5L3.7,12.5L3.7,-6.5C3.7,-9.8,6.4,-12.5,9.7,-12.5L13.5,-12.5" stroke-linecap="round" ed:tosuperid="182" stroke-linejoin="round" stroke="#53a1d4" fill="none" id="183" ed:parentid="172"/><path transform="matrix(1,0,0,1,704,379)" d="M-13.5,12.5L3.7,12.5L3.7,-6.5C3.7,-9.8,6.4,-12.5,9.7,-12.5L13.5,-12.5" stroke-linecap="round" ed:tosuperid="184" stroke-linejoin="round" stroke="#53a1d4" fill="none" id="185" ed:parentid="174"/><path transform="matrix(1,0,0,1,720,460)" d="M-13.5,18.8L3.7,18.8L3.7,-12.8C3.7,-16.1,6.4,-18.8,9.7,-18.8L13.5,-18.8" stroke-linecap="round" ed:tosuperid="186" stroke-linejoin="round" stroke="#53a1d4" fill="none" id="187" ed:parentid="176"/><path transform="matrix(1,0,0,1,704,316)" d="M3.7,0C3.7,0,6.4,0,9.7,0L13.5,0" stroke-linecap="round" ed:tosuperid="188" stroke-linejoin="round" stroke="#53a1d4" fill="none" id="189" ed:parentid="172"/><path transform="matrix(1,0,0,1,704,329)" d="M3.7,-12.5L3.7,6.5C3.7,9.8,6.4,12.5,9.7,12.5L13.5,12.5" stroke-linecap="round" ed:tosuperid="190" stroke-linejoin="round" stroke="#53a1d4" fill="none" id="191" ed:parentid="172"/><path transform="matrix(1,0,0,1,704,391)" d="M3.7,0C3.7,0,6.4,0,9.7,0L13.5,0" stroke-linecap="round" ed:tosuperid="192" stroke-linejoin="round" stroke="#53a1d4" fill="none" id="193" ed:parentid="174"/><path transform="matrix(1,0,0,1,704,404)" d="M3.7,-12.5L3.7,6.5C3.7,9.8,6.4,12.5,9.7,12.5L13.5,12.5" stroke-linecap="round" ed:tosuperid="194" stroke-linejoin="round" stroke="#53a1d4" fill="none" id="195" ed:parentid="174"/><path transform="matrix(1,0,0,1,720,472)" d="M3.7,6.3L3.7,-0.3C3.7,-3.6,6.4,-6.3,9.7,-6.3L13.5,-6.3" stroke-linecap="round" ed:tosuperid="196" stroke-linejoin="round" stroke="#53a1d4" fill="none" id="197" ed:parentid="176"/><path transform="matrix(1,0,0,1,720,485)" d="M3.7,-6.3L3.7,0.3C3.7,3.6,6.4,6.3,9.7,6.3L13.5,6.3" stroke-linecap="round" ed:tosuperid="198" stroke-linejoin="round" stroke="#53a1d4" fill="none" id="199" ed:parentid="176"/><path transform="matrix(1,0,0,1,720,497)" d="M3.7,-18.8L3.7,12.8C3.7,16.1,6.4,18.8,9.7,18.8L13.5,18.8" stroke-linecap="round" ed:tosuperid="200" stroke-linejoin="round" stroke="#53a1d4" fill="none" id="201" ed:parentid="176"/><path transform="matrix(1,0,0,1,752,554)" d="M-13.5,12.5L3.7,12.5L3.7,-6.5C3.7,-9.8,6.4,-12.5,9.7,-12.5L13.5,-12.5" stroke-linecap="round" ed:tosuperid="202" stroke-linejoin="round" stroke="#53a1d4" fill="none" id="203" ed:parentid="178"/><path transform="matrix(1,0,0,1,752,566)" d="M3.7,0C3.7,0,6.4,0,9.7,0L13.5,0" stroke-linecap="round" ed:tosuperid="204" stroke-linejoin="round" stroke="#53a1d4" fill="none" id="205" ed:parentid="178"/><path transform="matrix(1,0,0,1,752,579)" d="M3.7,-12.5L3.7,6.5C3.7,9.8,6.4,12.5,9.7,12.5L13.5,12.5" stroke-linecap="round" ed:tosuperid="206" stroke-linejoin="round" stroke="#53a1d4" fill="none" id="207" ed:parentid="178"/><path transform="matrix(1,0,0,1,318,888)" d="M-13.5,82.9L3.7,82.9L3.7,-76.9C3.7,-80.2,6.4,-82.9,9.7,-82.9L13.5,-82.9" stroke-linecap="round" ed:tosuperid="208" stroke-linejoin="round" stroke="#53a1d4" fill="none" id="209" ed:parentid="106"/><path transform="matrix(1,0,0,1,395,749)" d="M-13.5,56.3L3.7,56.3L3.7,-50.3C3.7,-53.6,6.4,-56.3,9.7,-56.3L13.5,-56.3" stroke-linecap="round" ed:tosuperid="210" stroke-linejoin="round" stroke="#53a1d4" fill="none" id="211" ed:parentid="208"/><path transform="matrix(1,0,0,1,395,786)" d="M3.7,18.8L3.7,-12.8C3.7,-16.1,6.4,-18.8,9.7,-18.8L13.5,-18.8" stroke-linecap="round" ed:tosuperid="212" stroke-linejoin="round" stroke="#53a1d4" fill="none" id="213" ed:parentid="208"/><path transform="matrix(1,0,0,1,624,755)" d="M3.7,12.5L3.7,-6.5C3.7,-9.8,6.4,-12.5,9.7,-12.5L13.5,-12.5" stroke-linecap="round" ed:tosuperid="214" stroke-linejoin="round" stroke="#53a1d4" fill="none" id="215" ed:parentid="212"/><path transform="matrix(1,0,0,1,624,768)" d="M3.7,0C3.7,0,6.4,0,9.7,0L13.5,0" stroke-linecap="round" ed:tosuperid="216" stroke-linejoin="round" stroke="#53a1d4" fill="none" id="217" ed:parentid="212"/><path transform="matrix(1,0,0,1,624,780)" d="M3.7,-12.5L3.7,6.5C3.7,9.8,6.4,12.5,9.7,12.5L13.5,12.5" stroke-linecap="round" ed:tosuperid="218" stroke-linejoin="round" stroke="#53a1d4" fill="none" id="219" ed:parentid="212"/><path transform="matrix(1,0,0,1,624,793)" d="M3.7,-25L3.7,19C3.7,22.3,6.4,25,9.7,25L13.5,25" stroke-linecap="round" ed:tosuperid="220" stroke-linejoin="round" stroke="#53a1d4" fill="none" id="221" ed:parentid="212"/><path transform="matrix(1,0,0,1,395,824)" d="M3.7,-18.8L3.7,12.8C3.7,16.1,6.4,18.8,9.7,18.8L13.5,18.8" stroke-linecap="round" ed:tosuperid="222" stroke-linejoin="round" stroke="#53a1d4" fill="none" id="223" ed:parentid="208"/><path transform="matrix(1,0,0,1,395,836)" d="M3.7,-31.3L3.7,25.3C3.7,28.6,6.4,31.3,9.7,31.3L13.5,31.3" stroke-linecap="round" ed:tosuperid="224" stroke-linejoin="round" stroke="#53a1d4" fill="none" id="225" ed:parentid="208"/><path transform="matrix(1,0,0,1,395,849)" d="M3.7,-43.8L3.7,37.8C3.7,41.1,6.4,43.8,9.7,43.8L13.5,43.8" stroke-linecap="round" ed:tosuperid="226" stroke-linejoin="round" stroke="#53a1d4" fill="none" id="227" ed:parentid="208"/><path transform="matrix(1,0,0,1,395,861)" d="M3.7,-56.3L3.7,50.3C3.7,53.6,6.4,56.3,9.7,56.3L13.5,56.3" stroke-linecap="round" ed:tosuperid="228" stroke-linejoin="round" stroke="#53a1d4" fill="none" id="229" ed:parentid="208"/><path transform="matrix(1,0,0,1,624,743)" d="M-13.5,25L3.7,25L3.7,-19C3.7,-22.3,6.4,-25,9.7,-25L13.5,-25" stroke-linecap="round" ed:tosuperid="230" stroke-linejoin="round" stroke="#53a1d4" fill="none" id="231" ed:parentid="212"/><path transform="matrix(1,0,0,1,395,968)" d="M3.7,0C3.7,0,6.4,0,9.7,0L13.5,0" stroke-linecap="round" ed:tosuperid="232" stroke-linejoin="round" stroke="#53a1d4" fill="none" id="233" ed:parentid="238"/><path transform="matrix(1,0,0,1,395,955)" d="M-13.5,12.5L3.7,12.5L3.7,-6.5C3.7,-9.8,6.4,-12.5,9.7,-12.5L13.5,-12.5" stroke-linecap="round" ed:tosuperid="234" stroke-linejoin="round" stroke="#53a1d4" fill="none" id="235" ed:parentid="238"/><path transform="matrix(1,0,0,1,395,980)" d="M3.7,-12.5L3.7,6.5C3.7,9.8,6.4,12.5,9.7,12.5L13.5,12.5" stroke-linecap="round" ed:tosuperid="236" stroke-linejoin="round" stroke="#53a1d4" fill="none" id="237" ed:parentid="238"/><path transform="matrix(1,0,0,1,318,969)" d="M3.7,1.6C3.7,-0.2,6.4,-1.6,9.7,-1.6L13.5,-1.6" stroke-linecap="round" ed:tosuperid="238" stroke-linejoin="round" stroke="#53a1d4" fill="none" id="239" ed:parentid="106"/><path transform="matrix(1,0,0,1,318,994)" d="M3.7,-23.4L3.7,17.4C3.7,20.7,6.4,23.4,9.7,23.4L13.5,23.4" stroke-linecap="round" ed:tosuperid="240" stroke-linejoin="round" stroke="#53a1d4" fill="none" id="241" ed:parentid="106"/><path transform="matrix(1,0,0,1,395,1161)" d="M3.7,-6.3L3.7,0.3C3.7,3.6,6.4,6.3,9.7,6.3L13.5,6.3" stroke-linecap="round" ed:tosuperid="242" stroke-linejoin="round" stroke="#53a1d4" fill="none" id="243" ed:parentid="248"/><path transform="matrix(1,0,0,1,395,1211)" d="M3.7,-56.3L3.7,50.3C3.7,53.6,6.4,56.3,9.7,56.3L13.5,56.3" stroke-linecap="round" ed:tosuperid="244" stroke-linejoin="round" stroke="#53a1d4" fill="none" id="245" ed:parentid="248"/><path transform="matrix(1,0,0,1,520,1130)" d="M-13.5,37.5L3.7,37.5L3.7,-31.5C3.7,-34.8,6.4,-37.5,9.7,-37.5L13.5,-37.5" stroke-linecap="round" ed:tosuperid="246" stroke-linejoin="round" stroke="#53a1d4" fill="none" id="247" ed:parentid="242"/><path transform="matrix(1,0,0,1,318,1063)" d="M3.7,-92.1L3.7,86.1C3.7,89.4,6.4,92.1,9.7,92.1L13.5,92.1" stroke-linecap="round" ed:tosuperid="248" stroke-linejoin="round" stroke="#53a1d4" fill="none" id="249" ed:parentid="106"/><path transform="matrix(1,0,0,1,520,1143)" d="M3.7,25L3.7,-19C3.7,-22.3,6.4,-25,9.7,-25L13.5,-25" stroke-linecap="round" ed:tosuperid="250" stroke-linejoin="round" stroke="#53a1d4" fill="none" id="251" ed:parentid="242"/><path transform="matrix(1,0,0,1,395,1105)" d="M-13.5,50L3.7,50L3.7,-44C3.7,-47.3,6.4,-50,9.7,-50L13.5,-50" stroke-linecap="round" ed:tosuperid="252" stroke-linejoin="round" stroke="#53a1d4" fill="none" id="253" ed:parentid="248"/><path transform="matrix(1,0,0,1,504,1049)" d="M-13.5,6.3L3.7,6.3L3.7,-0.3C3.7,-3.6,6.4,-6.3,9.7,-6.3L13.5,-6.3" stroke-linecap="round" ed:tosuperid="254" stroke-linejoin="round" stroke="#53a1d4" fill="none" id="255" ed:parentid="252"/><path transform="matrix(1,0,0,1,504,1061)" d="M3.7,-6.3L3.7,0.3C3.7,3.6,6.4,6.3,9.7,6.3L13.5,6.3" stroke-linecap="round" ed:tosuperid="256" stroke-linejoin="round" stroke="#53a1d4" fill="none" id="257" ed:parentid="252"/><path transform="matrix(1,0,0,1,629,1068)" d="M-13.5,0L3.7,0C3.7,0,6.4,0,9.7,0L13.5,0" stroke-linecap="round" ed:tosuperid="258" stroke-linejoin="round" stroke="#53a1d4" fill="none" id="259" ed:parentid="256"/><path transform="matrix(1,0,0,1,520,1161)" d="M3.7,6.3L3.7,-0.3C3.7,-3.6,6.4,-6.3,9.7,-6.3L13.5,-6.3" stroke-linecap="round" ed:tosuperid="260" stroke-linejoin="round" stroke="#53a1d4" fill="none" id="261" ed:parentid="242"/><path transform="matrix(1,0,0,1,629,1149)" d="M-13.5,6.3L3.7,6.3L3.7,-0.3C3.7,-3.6,6.4,-6.3,9.7,-6.3L13.5,-6.3" stroke-linecap="round" ed:tosuperid="262" stroke-linejoin="round" stroke="#53a1d4" fill="none" id="263" ed:parentid="260"/><path transform="matrix(1,0,0,1,629,1161)" d="M3.7,-6.3L3.7,0.3C3.7,3.6,6.4,6.3,9.7,6.3L13.5,6.3" stroke-linecap="round" ed:tosuperid="264" stroke-linejoin="round" stroke="#53a1d4" fill="none" id="265" ed:parentid="260"/><path transform="matrix(1,0,0,1,520,1193)" d="M3.7,-25L3.7,19C3.7,22.3,6.4,25,9.7,25L13.5,25" stroke-linecap="round" ed:tosuperid="266" stroke-linejoin="round" stroke="#53a1d4" fill="none" id="267" ed:parentid="242"/><path transform="matrix(1,0,0,1,430,1396)" d="M-13.5,6.3L3.7,6.3L3.7,-0.3C3.7,-3.6,6.4,-6.3,9.7,-6.3L13.5,-6.3" stroke-linecap="round" ed:tosuperid="268" stroke-linejoin="round" stroke="#53a1d4" fill="none" id="271" ed:parentid="350"/><path transform="matrix(1,0,0,1,430,1530)" d="M3.7,-6.3L3.7,0.3C3.7,3.6,6.4,6.3,9.7,6.3L13.5,6.3" stroke-linecap="round" ed:tosuperid="269" stroke-linejoin="round" stroke="#53a1d4" fill="none" id="272" ed:parentid="352"/><path transform="matrix(1,0,0,1,430,1517)" d="M-13.5,6.3L3.7,6.3L3.7,-0.3C3.7,-3.6,6.4,-6.3,9.7,-6.3L13.5,-6.3" stroke-linecap="round" ed:tosuperid="270" stroke-linejoin="round" stroke="#53a1d4" fill="none" id="273" ed:parentid="352"/><path transform="matrix(1,0,0,1,579,1371)" d="M-13.5,18.8L3.7,18.8L3.7,-12.8C3.7,-16.1,6.4,-18.8,9.7,-18.8L13.5,-18.8" stroke-linecap="round" ed:tosuperid="274" stroke-linejoin="round" stroke="#53a1d4" fill="none" id="275" ed:parentid="268"/><path transform="matrix(1,0,0,1,579,1413)" d="M3.7,-23L3.7,17C3.7,20.3,6.4,23,9.7,23L13.5,23" stroke-linecap="round" ed:tosuperid="276" stroke-linejoin="round" stroke="#53a1d4" fill="none" id="277" ed:parentid="268"/><path transform="matrix(1,0,0,1,688,1424)" d="M-13.5,12.5L3.7,12.5L3.7,-6.5C3.7,-9.8,6.4,-12.5,9.7,-12.5L13.5,-12.5" stroke-linecap="round" ed:tosuperid="280" stroke-linejoin="round" stroke="#53a1d4" fill="none" id="281" ed:parentid="276"/><path transform="matrix(1,0,0,1,765,1205)" d="M-13.5,12.5L3.7,12.5L3.7,-6.5C3.7,-9.8,6.4,-12.5,9.7,-12.5L13.5,-12.5" stroke-linecap="round" ed:tosuperid="282" stroke-linejoin="round" stroke="#53a1d4" fill="none" id="283" ed:parentid="266"/><path transform="matrix(1,0,0,1,765,1218)" d="M3.7,0C3.7,0,6.4,0,9.7,0L13.5,0" stroke-linecap="round" ed:tosuperid="284" stroke-linejoin="round" stroke="#53a1d4" fill="none" id="285" ed:parentid="266"/><path transform="matrix(1,0,0,1,765,1230)" d="M3.7,-12.5L3.7,6.5C3.7,9.8,6.4,12.5,9.7,12.5L13.5,12.5" stroke-linecap="round" ed:tosuperid="286" stroke-linejoin="round" stroke="#53a1d4" fill="none" id="287" ed:parentid="266"/><path transform="matrix(1,0,0,1,672,1336)" d="M-13.5,16.8L3.7,16.8L3.7,-10.8C3.7,-14.1,6.4,-16.8,9.7,-16.8L13.5,-16.8" stroke-linecap="round" ed:tosuperid="288" stroke-linejoin="round" stroke="#53a1d4" fill="none" id="289" ed:parentid="274"/><path transform="matrix(1,0,0,1,672,1348)" d="M3.7,4.3L3.7,1.8C3.7,-1.6,6.4,-4.3,9.7,-4.3L13.5,-4.3" stroke-linecap="round" ed:tosuperid="290" stroke-linejoin="round" stroke="#53a1d4" fill="none" id="291" ed:parentid="274"/><path transform="matrix(1,0,0,1,672,1369)" d="M3.7,-16.8L3.7,10.8C3.7,14.1,6.4,16.8,9.7,16.8L13.5,16.8" stroke-linecap="round" ed:tosuperid="292" stroke-linejoin="round" stroke="#53a1d4" fill="none" id="293" ed:parentid="274"/><path transform="matrix(1,0,0,1,688,1436)" d="M3.7,0C3.7,0,6.4,0,9.7,0L13.5,0" stroke-linecap="round" ed:tosuperid="294" stroke-linejoin="round" stroke="#53a1d4" fill="none" id="295" ed:parentid="276"/><path transform="matrix(1,0,0,1,688,1449)" d="M3.7,-12.5L3.7,6.5C3.7,9.8,6.4,12.5,9.7,12.5L13.5,12.5" stroke-linecap="round" ed:tosuperid="296" stroke-linejoin="round" stroke="#53a1d4" fill="none" id="297" ed:parentid="276"/><path transform="matrix(1,0,0,1,337,1429)" d="M-13.5,26.6L3.7,26.6L3.7,-20.6C3.7,-23.9,6.4,-26.6,9.7,-26.6L13.5,-26.6" stroke-linecap="round" ed:tosuperid="350" stroke-linejoin="round" stroke="#53a1d4" fill="none" id="351" ed:parentid="108"/><path transform="matrix(1,0,0,1,337,1490)" d="M3.7,-33.9L3.7,27.9C3.7,31.2,6.4,33.9,9.7,33.9L13.5,33.9" stroke-linecap="round" ed:tosuperid="352" stroke-linejoin="round" stroke="#53a1d4" fill="none" id="353" ed:parentid="108"/><path transform="matrix(1,0,0,1,430,1444)" d="M3.7,-41.8L3.7,35.8C3.7,39.1,6.4,41.8,9.7,41.8L13.5,41.8" stroke-linecap="round" ed:tosuperid="354" stroke-linejoin="round" stroke="#53a1d4" fill="none" id="355" ed:parentid="350"/><path transform="matrix(1,0,0,1,337,1521)" d="M3.7,-65.1L3.7,59.1C3.7,62.4,6.4,65.1,9.7,65.1L13.5,65.1" stroke-linecap="round" ed:tosuperid="360" stroke-linejoin="round" stroke="#53a1d4" fill="none" id="361" ed:parentid="108"/><path transform="matrix(1,0,0,1,558,1574)" d="M-13.5,12.5L3.7,12.5L3.7,-6.5C3.7,-9.8,6.4,-12.5,9.7,-12.5L13.5,-12.5" stroke-linecap="round" ed:tosuperid="362" stroke-linejoin="round" stroke="#53a1d4" fill="none" id="363" ed:parentid="360"/><path transform="matrix(1,0,0,1,558,1599)" d="M3.7,-12.5L3.7,6.5C3.7,9.8,6.4,12.5,9.7,12.5L13.5,12.5" stroke-linecap="round" ed:tosuperid="364" stroke-linejoin="round" stroke="#53a1d4" fill="none" id="365" ed:parentid="360"/><path transform="matrix(1,0,0,1,558,1586)" d="M3.7,0C3.7,0,6.4,0,9.7,0L13.5,0" stroke-linecap="round" ed:tosuperid="366" stroke-linejoin="round" stroke="#53a1d4" fill="none" id="367" ed:parentid="360"/><g transform="matrix(1,0,0,1,23,789)" ed:width="141" ed:topictype="mainidea" ed:height="55" id="101" ed:layout="rightmap"><path d="M4,0L137,0C139.7,0,141,1.3,141,4L141,51C141,53.7,139.7,55,137,55L4,55C1.3,55,0,53.7,0,51L0,4C0,1.3,1.3,0,4,0z" stroke-width="3" stroke-linejoin="round" stroke="#53a1d4" fill="#f5f9fe"/><text class="st1"><tspan style="white-space:pre" x="22" y="35.1">AQS 框架</tspan></text></g><g transform="matrix(1,0,0,1,227,26)" ed:width="77" ed:height="34" id="102" ed:parentid="101"><path d="M4,0L73,0C75.7,0,77,1.3,77,4L77,30C77,32.7,75.7,34,73,34L4,34C1.3,34,0,32.7,0,30L0,4C0,1.3,1.3,0,4,0z" stroke-linejoin="round" stroke="#53a1d4" fill="#f5f9fe"/><text class="st2"><tspan style="white-space:pre" x="18" y="23.1">概述</tspan></text></g><g transform="matrix(1,0,0,1,227,352)" ed:width="77" ed:height="34" id="104" ed:parentid="101"><path d="M4,0L73,0C75.7,0,77,1.3,77,4L77,30C77,32.7,75.7,34,73,34L4,34C1.3,34,0,32.7,0,30L0,4C0,1.3,1.3,0,4,0z" stroke-linejoin="round" stroke="#53a1d4" fill="#f5f9fe"/><text class="st2"><tspan style="white-space:pre" x="18" y="23.1">架构</tspan></text></g><g transform="matrix(1,0,0,1,227,954)" ed:width="77" ed:height="34" id="106" ed:parentid="101"><path d="M4,0L73,0C75.7,0,77,1.3,77,4L77,30C77,32.7,75.7,34,73,34L4,34C1.3,34,0,32.7,0,30L0,4C0,1.3,1.3,0,4,0z" stroke-linejoin="round" stroke="#53a1d4" fill="#f5f9fe"/><text class="st3"><tspan style="white-space:pre" x="18" y="23.1">原理</tspan></text></g><g transform="matrix(1,0,0,1,227,1439)" ed:width="96" ed:height="34" id="108" ed:parentid="101"><path d="M4,0L92,0C94.7,0,96,1.3,96,4L96,30C96,32.7,94.7,34,92,34L4,34C1.3,34,0,32.7,0,30L0,4C0,1.3,1.3,0,4,0z" stroke-linejoin="round" stroke="#53a1d4" fill="#f5f9fe"/><text class="st2"><tspan style="white-space:pre" x="18" y="23.1">实现类</tspan></text></g><g transform="matrix(1,0,0,1,331,21)" ed:width="130" ed:height="18.5" id="110" ed:parentid="102"><path d="M0,18.5L130,18.5" stroke-linejoin="round" stroke="#53a1d4" fill="none"/><text class="st4"><tspan style="white-space:pre" x="8" y="13.8">抽象队列同步器</tspan></text></g><g transform="matrix(1,0,0,1,331,46)" ed:width="322" ed:height="18.5" id="112" ed:parentid="102"><path d="M0,18.5L322,18.5" stroke-linejoin="round" stroke="#53a1d4" fill="none"/><text class="st4"><tspan style="white-space:pre" x="8" y="13.8">定义了一套多线程访问共享资源的同步框架</tspan></text></g><g transform="matrix(1,0,0,1,440,98)" ed:width="162" ed:height="18.5" id="146" ed:parentid="148"><path d="M0,18.5L162,18.5" stroke-linejoin="round" stroke="#53a1d4" fill="none"/><text class="st5"><tspan style="white-space:pre" x="8" y="13.8">volatile int state</tspan></text></g><g transform="matrix(1,0,0,1,440,123)" ed:width="98" ed:height="18.5" id="147" ed:parentid="148"><path d="M0,18.5L98,18.5" stroke-linejoin="round" stroke="#53a1d4" fill="none"/><text class="st4"><tspan style="white-space:pre" x="8" y="13.8">getState()</tspan></text></g><g transform="matrix(1,0,0,1,331,135)" ed:width="82" ed:height="18.5" id="148" ed:parentid="104"><path d="M0,18.5L82,18.5" stroke-linejoin="round" stroke="#53a1d4" fill="none"/><text class="st4"><tspan style="white-space:pre" x="8" y="13.8">共享资源</tspan></text></g><g transform="matrix(1,0,0,1,440,148)" ed:width="98" ed:height="18.5" id="149" ed:parentid="148"><path d="M0,18.5L98,18.5" stroke-linejoin="round" stroke="#53a1d4" fill="none"/><text class="st4"><tspan style="white-space:pre" x="8" y="13.8">setState()</tspan></text></g><g transform="matrix(1,0,0,1,331,610)" ed:width="114" ed:height="18.5" id="150" ed:parentid="104"><path d="M0,18.5L114,18.5" stroke-linejoin="round" stroke="#53a1d4" fill="none"/><text class="st4"><tspan style="white-space:pre" x="8" y="13.8">线程等待队列</tspan></text></g><g transform="matrix(1,0,0,1,331,210)" ed:width="114" ed:height="18.5" id="151" ed:parentid="104"><path d="M0,18.5L114,18.5" stroke-linejoin="round" stroke="#53a1d4" fill="none"/><text class="st4"><tspan style="white-space:pre" x="8" y="13.8">资源共享方式</tspan></text></g><g transform="matrix(1,0,0,1,440,173)" ed:width="178" ed:height="18.5" id="152" ed:parentid="148"><path d="M0,18.5L178,18.5" stroke-linejoin="round" stroke="#53a1d4" fill="none"/><text class="st4"><tspan style="white-space:pre" x="8" y="13.8">compareAndSetState()</tspan></text></g><g transform="matrix(1,0,0,1,472,598)" ed:width="50" ed:height="18.5" id="153" ed:parentid="150"><path d="M0,18.5L50,18.5" stroke-linejoin="round" stroke="#53a1d4" fill="none"/><text class="st4"><tspan style="white-space:pre" x="8" y="13.8">FIFO</tspan></text></g><g transform="matrix(1,0,0,1,472,623)" ed:width="66" ed:height="18.5" id="154" ed:parentid="150"><path d="M0,18.5L66,18.5" stroke-linejoin="round" stroke="#53a1d4" fill="none"/><text class="st4"><tspan style="white-space:pre" x="8" y="13.8">双链表</tspan></text></g><g transform="matrix(1,0,0,1,472,198)" ed:width="50" ed:height="18.5" id="155" ed:parentid="151"><path d="M0,18.5L50,18.5" stroke-linejoin="round" stroke="#53a1d4" fill="none"/><text class="st4"><tspan style="white-space:pre" x="8" y="13.8">独占</tspan></text></g><g transform="matrix(1,0,0,1,472,223)" ed:width="50" ed:height="18.5" id="156" ed:parentid="151"><path d="M0,18.5L50,18.5" stroke-linejoin="round" stroke="#53a1d4" fill="none"/><text class="st4"><tspan style="white-space:pre" x="8" y="13.8">共享</tspan></text></g><g transform="matrix(1,0,0,1,331,410)" ed:width="130" ed:height="18.5" id="168" ed:parentid="104"><path d="M0,18.5L130,18.5" stroke-linejoin="round" stroke="#53a1d4" fill="none"/><text class="st4"><tspan style="white-space:pre" x="8" y="13.8">资源获取与释放</tspan></text></g><g transform="matrix(1,0,0,1,488,248)" ed:width="234" ed:height="18.5" id="170" ed:parentid="168"><path d="M0,18.5L234,18.5" stroke-linejoin="round" stroke="#53a1d4" fill="none"/><text class="st4"><tspan style="white-space:pre" x="8" y="13.8">boolean isHeldExclusively()</tspan></text></g><g transform="matrix(1,0,0,1,488,298)" ed:width="202" ed:height="18.5" id="172" ed:parentid="168"><path d="M0,18.5L202,18.5" stroke-linejoin="round" stroke="#53a1d4" fill="none"/><text class="st5"><tspan style="white-space:pre" x="8" y="13.8">boolean tryAcquire(int)</tspan></text></g><g transform="matrix(1,0,0,1,488,373)" ed:width="202" ed:height="18.5" id="174" ed:parentid="168"><path d="M0,18.5L202,18.5" stroke-linejoin="round" stroke="#53a1d4" fill="none"/><text class="st5"><tspan style="white-space:pre" x="8" y="13.8">boolean tryRelease(int)</tspan></text></g><g transform="matrix(1,0,0,1,488,460)" ed:width="218" ed:height="18.5" id="176" ed:parentid="168"><path d="M0,18.5L218,18.5" stroke-linejoin="round" stroke="#53a1d4" fill="none"/><text class="st6"><tspan style="white-space:pre" x="8" y="13.8">int tryAcquireShared(int)</tspan></text></g><g transform="matrix(1,0,0,1,488,548)" ed:width="250" ed:height="18.5" id="178" ed:parentid="168"><path d="M0,18.5L250,18.5" stroke-linejoin="round" stroke="#53a1d4" fill="none"/><text class="st6"><tspan style="white-space:pre" x="8" y="13.8">boolean tryReleaseShared(int)</tspan></text></g><g transform="matrix(1,0,0,1,749,248)" ed:width="410" ed:height="18.5" id="180" ed:parentid="170"><path d="M0,18.5L410,18.5" stroke-linejoin="round" stroke="#53a1d4" fill="none"/><text class="st4"><tspan style="white-space:pre" x="8" y="13.8">是否独占资源，只有用到 condition 才需要实现该方法</tspan></text></g><g transform="matrix(1,0,0,1,717,273)" ed:width="162" ed:height="18.5" id="182" ed:parentid="172"><path d="M0,18.5L162,18.5" stroke-linejoin="round" stroke="#53a1d4" fill="none"/><text class="st4"><tspan style="white-space:pre" x="8" y="13.8">独占，尝试获取资源</tspan></text></g><g transform="matrix(1,0,0,1,717,348)" ed:width="162" ed:height="18.5" id="184" ed:parentid="174"><path d="M0,18.5L162,18.5" stroke-linejoin="round" stroke="#53a1d4" fill="none"/><text class="st4"><tspan style="white-space:pre" x="8" y="13.8">独占，尝试释放资源</tspan></text></g><g transform="matrix(1,0,0,1,733,423)" ed:width="162" ed:height="18.5" id="186" ed:parentid="176"><path d="M0,18.5L162,18.5" stroke-linejoin="round" stroke="#53a1d4" fill="none"/><text class="st4"><tspan style="white-space:pre" x="8" y="13.8">共享，尝试获取资源</tspan></text></g><g transform="matrix(1,0,0,1,717,298)" ed:width="122" ed:height="18.5" id="188" ed:parentid="172"><path d="M0,18.5L122,18.5" stroke-linejoin="round" stroke="#53a1d4" fill="none"/><text class="st4"><tspan style="white-space:pre" x="8" y="13.8">true 表示成功</tspan></text></g><g transform="matrix(1,0,0,1,717,323)" ed:width="130" ed:height="18.5" id="190" ed:parentid="172"><path d="M0,18.5L130,18.5" stroke-linejoin="round" stroke="#53a1d4" fill="none"/><text class="st4"><tspan style="white-space:pre" x="8" y="13.8">false 表示失败</tspan></text></g><g transform="matrix(1,0,0,1,717,373)" ed:width="122" ed:height="18.5" id="192" ed:parentid="174"><path d="M0,18.5L122,18.5" stroke-linejoin="round" stroke="#53a1d4" fill="none"/><text class="st4"><tspan style="white-space:pre" x="8" y="13.8">true 表示成功</tspan></text></g><g transform="matrix(1,0,0,1,717,398)" ed:width="130" ed:height="18.5" id="194" ed:parentid="174"><path d="M0,18.5L130,18.5" stroke-linejoin="round" stroke="#53a1d4" fill="none"/><text class="st4"><tspan style="white-space:pre" x="8" y="13.8">false 表示失败</tspan></text></g><g transform="matrix(1,0,0,1,733,448)" ed:width="242" ed:height="18.5" id="196" ed:parentid="176"><path d="M0,18.5L242,18.5" stroke-linejoin="round" stroke="#53a1d4" fill="none"/><text class="st4"><tspan style="white-space:pre" x="8" y="13.8">0 表示成功但没有剩余可用资源</tspan></text></g><g transform="matrix(1,0,0,1,733,473)" ed:width="202" ed:height="18.5" id="198" ed:parentid="176"><path d="M0,18.5L202,18.5" stroke-linejoin="round" stroke="#53a1d4" fill="none"/><text class="st4"><tspan style="white-space:pre" x="8" y="13.8">>0 表示成功且有剩余资源</tspan></text></g><g transform="matrix(1,0,0,1,733,498)" ed:width="106" ed:height="18.5" id="200" ed:parentid="176"><path d="M0,18.5L106,18.5" stroke-linejoin="round" stroke="#53a1d4" fill="none"/><text class="st4"><tspan style="white-space:pre" x="8" y="13.8">&lt;0 表示失败</tspan></text></g><g transform="matrix(1,0,0,1,765,523)" ed:width="130" ed:height="18.5" id="202" ed:parentid="178"><path d="M0,18.5L130,18.5" stroke-linejoin="round" stroke="#53a1d4" fill="none"/><text class="st4"><tspan style="white-space:pre" x="8" y="13.8">共享，释放资源</tspan></text></g><g transform="matrix(1,0,0,1,765,548)" ed:width="298" ed:height="18.5" id="204" ed:parentid="178"><path d="M0,18.5L298,18.5" stroke-linejoin="round" stroke="#53a1d4" fill="none"/><text class="st4"><tspan style="white-space:pre" x="8" y="13.8">true 表示释放后允许唤醒后续等待节点</tspan></text></g><g transform="matrix(1,0,0,1,765,573)" ed:width="322" ed:height="18.5" id="206" ed:parentid="178"><path d="M0,18.5L322,18.5" stroke-linejoin="round" stroke="#53a1d4" fill="none"/><text class="st4"><tspan style="white-space:pre" x="8" y="13.8">false 表示释放后不允许唤醒后续等待节点</tspan></text></g><g transform="matrix(1,0,0,1,331,787)" ed:width="50" ed:height="18.5" id="208" ed:parentid="106"><path d="M0,18.5L50,18.5" stroke-linejoin="round" stroke="#53a1d4" fill="none"/><text class="st4"><tspan style="white-space:pre" x="8" y="13.8">Node</tspan></text></g><g transform="matrix(1,0,0,1,408,674)" ed:width="242" ed:height="18.5" id="210" ed:parentid="208"><path d="M0,18.5L242,18.5" stroke-linejoin="round" stroke="#53a1d4" fill="none"/><text class="st4"><tspan style="white-space:pre" x="8" y="13.8">表示每一个等待获取资源的线程</tspan></text></g><g transform="matrix(1,0,0,1,408,749)" ed:width="202" ed:height="18.5" id="212" ed:parentid="208"><path d="M0,18.5L202,18.5" stroke-linejoin="round" stroke="#53a1d4" fill="none"/><text class="st4"><tspan style="white-space:pre" x="8" y="13.8">volatile int waitStatus</tspan></text></g><g transform="matrix(1,0,0,1,637,724)" ed:width="90" ed:height="18.5" id="214" ed:parentid="212"><path d="M0,18.5L90,18.5" stroke-linejoin="round" stroke="#53a1d4" fill="none"/><text class="st4"><tspan style="white-space:pre" x="8" y="13.8">CANCELLED</tspan></text></g><g transform="matrix(1,0,0,1,637,749)" ed:width="66" ed:height="18.5" id="216" ed:parentid="212"><path d="M0,18.5L66,18.5" stroke-linejoin="round" stroke="#53a1d4" fill="none"/><text class="st4"><tspan style="white-space:pre" x="8" y="13.8">SIGNAL</tspan></text></g><g transform="matrix(1,0,0,1,637,774)" ed:width="90" ed:height="18.5" id="218" ed:parentid="212"><path d="M0,18.5L90,18.5" stroke-linejoin="round" stroke="#53a1d4" fill="none"/><text class="st4"><tspan style="white-space:pre" x="8" y="13.8">CONDITION</tspan></text></g><g transform="matrix(1,0,0,1,637,799)" ed:width="90" ed:height="18.5" id="220" ed:parentid="212"><path d="M0,18.5L90,18.5" stroke-linejoin="round" stroke="#53a1d4" fill="none"/><text class="st4"><tspan style="white-space:pre" x="8" y="13.8">PROPAGATE</tspan></text></g><g transform="matrix(1,0,0,1,408,824)" ed:width="162" ed:height="18.5" id="222" ed:parentid="208"><path d="M0,18.5L162,18.5" stroke-linejoin="round" stroke="#53a1d4" fill="none"/><text class="st4"><tspan style="white-space:pre" x="8" y="13.8">volatile Node prev</tspan></text></g><g transform="matrix(1,0,0,1,408,849)" ed:width="162" ed:height="18.5" id="224" ed:parentid="208"><path d="M0,18.5L162,18.5" stroke-linejoin="round" stroke="#53a1d4" fill="none"/><text class="st4"><tspan style="white-space:pre" x="8" y="13.8">volatile Node next</tspan></text></g><g transform="matrix(1,0,0,1,408,874)" ed:width="194" ed:height="18.5" id="226" ed:parentid="208"><path d="M0,18.5L194,18.5" stroke-linejoin="round" stroke="#53a1d4" fill="none"/><text class="st4"><tspan style="white-space:pre" x="8" y="13.8">volatile Thread thread</tspan></text></g><g transform="matrix(1,0,0,1,408,899)" ed:width="210" ed:height="18.5" id="228" ed:parentid="208"><path d="M0,18.5L210,18.5" stroke-linejoin="round" stroke="#53a1d4" fill="none"/><text class="st4"><tspan style="white-space:pre" x="8" y="13.8">volatile Node nextWaiter</tspan></text></g><g transform="matrix(1,0,0,1,637,699)" ed:width="26" ed:height="18.5" id="230" ed:parentid="212"><path d="M0,18.5L26,18.5" stroke-linejoin="round" stroke="#53a1d4" fill="none"/><text class="st7"><tspan style="white-space:pre" x="8" y="13.8">0</tspan></text></g><g transform="matrix(1,0,0,1,408,949)" ed:width="162" ed:height="18.5" id="232" ed:parentid="238"><path d="M0,18.5L162,18.5" stroke-linejoin="round" stroke="#53a1d4" fill="none"/><text class="st4"><tspan style="white-space:pre" x="8" y="13.8">volatile int state</tspan></text></g><g transform="matrix(1,0,0,1,408,924)" ed:width="162" ed:height="18.5" id="234" ed:parentid="238"><path d="M0,18.5L162,18.5" stroke-linejoin="round" stroke="#53a1d4" fill="none"/><text class="st4"><tspan style="white-space:pre" x="8" y="13.8">volatile Node head</tspan></text></g><g transform="matrix(1,0,0,1,408,974)" ed:width="162" ed:height="18.5" id="236" ed:parentid="238"><path d="M0,18.5L162,18.5" stroke-linejoin="round" stroke="#53a1d4" fill="none"/><text class="st4"><tspan style="white-space:pre" x="8" y="13.8">volatile Node tail</tspan></text></g><g transform="matrix(1,0,0,1,331,949)" ed:width="50" ed:height="18.5" id="238" ed:parentid="106"><path d="M0,18.5L50,18.5" stroke-linejoin="round" stroke="#53a1d4" fill="none"/><text class="st4"><tspan style="white-space:pre" x="8" y="13.8">字段</tspan></text></g><g transform="matrix(1,0,0,1,331,999)" ed:width="50" ed:height="18.5" id="240" ed:parentid="106"><path d="M0,18.5L50,18.5" stroke-linejoin="round" stroke="#53a1d4" fill="none"/><text class="st4"><tspan style="white-space:pre" x="8" y="13.8">方法</tspan></text></g><g transform="matrix(1,0,0,1,408,1149)" ed:width="98" ed:height="18.5" id="242" ed:parentid="248"><path d="M0,18.5L98,18.5" stroke-linejoin="round" stroke="#53a1d4" fill="none"/><text class="st4"><tspan style="white-space:pre" x="8" y="13.8">CAS 自旋锁</tspan></text></g><g transform="matrix(1,0,0,1,408,1249)" ed:width="106" ed:height="18.5" id="244" ed:parentid="248"><path d="M0,18.5L106,18.5" stroke-linejoin="round" stroke="#53a1d4" fill="none"/><text class="st4"><tspan style="white-space:pre" x="8" y="13.8">ParkSupport</tspan></text></g><g transform="matrix(1,0,0,1,533,1074)" ed:width="250" ed:height="18.5" id="246" ed:parentid="242"><path d="M0,18.5L250,18.5" stroke-linejoin="round" stroke="#53a1d4" fill="none"/><text class="st4"><tspan style="white-space:pre" x="8" y="13.8">compare and swap/exchange/set</tspan></text></g><g transform="matrix(1,0,0,1,331,1137)" ed:width="50" ed:height="18.5" id="248" ed:parentid="106"><path d="M0,18.5L50,18.5" stroke-linejoin="round" stroke="#53a1d4" fill="none"/><text class="st4"><tspan style="white-space:pre" x="8" y="13.8">核心</tspan></text></g><g transform="matrix(1,0,0,1,533,1099)" ed:width="218" ed:height="18.5" id="250" ed:parentid="242"><path d="M0,18.5L218,18.5" stroke-linejoin="round" stroke="#53a1d4" fill="none"/><text class="st4"><tspan style="white-space:pre" x="8" y="13.8">Unsafe#compareAndSetXxx()</tspan></text></g><g transform="matrix(1,0,0,1,408,1037)" ed:width="82" ed:height="18.5" id="252" ed:parentid="248"><path d="M0,18.5L82,18.5" stroke-linejoin="round" stroke="#53a1d4" fill="none"/><text class="st4"><tspan style="white-space:pre" x="8" y="13.8">volatile</tspan></text></g><g transform="matrix(1,0,0,1,517,1024)" ed:width="82" ed:height="18.5" id="254" ed:parentid="252"><path d="M0,18.5L82,18.5" stroke-linejoin="round" stroke="#53a1d4" fill="none"/><text class="st4"><tspan style="white-space:pre" x="8" y="13.8">内存屏障</tspan></text></g><g transform="matrix(1,0,0,1,517,1049)" ed:width="98" ed:height="18.5" id="256" ed:parentid="252"><path d="M0,18.5L98,18.5" stroke-linejoin="round" stroke="#53a1d4" fill="none"/><text class="st4"><tspan style="white-space:pre" x="8" y="13.8">内存可见性</tspan></text></g><g transform="matrix(1,0,0,1,642,1049)" ed:width="194" ed:height="18.5" id="258" ed:parentid="256"><path d="M0,18.5L194,18.5" stroke-linejoin="round" stroke="#53a1d4" fill="none"/><text class="st4"><tspan style="white-space:pre" x="8" y="13.8">线程本地内存 -> 主内存</tspan></text></g><g transform="matrix(1,0,0,1,533,1137)" ed:width="82" ed:height="18.5" id="260" ed:parentid="242"><path d="M0,18.5L82,18.5" stroke-linejoin="round" stroke="#53a1d4" fill="none"/><text class="st5"><tspan style="white-space:pre" x="8" y="13.8">ABA 问题</tspan></text></g><g transform="matrix(1,0,0,1,642,1124)" ed:width="178" ed:height="18.5" id="262" ed:parentid="260"><path d="M0,18.5L178,18.5" stroke-linejoin="round" stroke="#53a1d4" fill="none"/><text class="st4"><tspan style="white-space:pre" x="8" y="13.8">通过添加版本号来解决</tspan></text></g><g transform="matrix(1,0,0,1,642,1149)" ed:width="146" ed:height="18.5" id="264" ed:parentid="260"><path d="M0,18.5L146,18.5" stroke-linejoin="round" stroke="#53a1d4" fill="none"/><text class="st4"><tspan style="white-space:pre" x="8" y="13.8">StampedAtomicXxx</tspan></text></g><g transform="matrix(1,0,0,1,533,1199)" ed:width="218" ed:height="18.5" id="266" ed:parentid="242"><path d="M0,18.5L218,18.5" stroke-linejoin="round" stroke="#53a1d4" fill="none"/><text class="st5"><tspan style="white-space:pre" x="8" y="13.8">如何保证 CAS 操作的原子性</tspan></text></g><g transform="matrix(1,0,0,1,443,1372)" ed:width="122" ed:height="18.5" id="268" ed:parentid="350"><path d="M0,18.5L122,18.5" stroke-linejoin="round" stroke="#53a1d4" fill="none"/><text class="st4"><tspan style="white-space:pre" x="8" y="13.8">ReentrantLock</tspan></text></g><g transform="matrix(1,0,0,1,443,1518)" ed:width="130" ed:height="18.5" id="269" ed:parentid="352"><path d="M0,18.5L130,18.5" stroke-linejoin="round" stroke="#53a1d4" fill="none"/><text class="st4"><tspan style="white-space:pre" x="8" y="13.8">CountDownLatch</tspan></text></g><g transform="matrix(1,0,0,1,443,1493)" ed:width="90" ed:height="18.5" id="270" ed:parentid="352"><path d="M0,18.5L90,18.5" stroke-linejoin="round" stroke="#53a1d4" fill="none"/><text class="st4"><tspan style="white-space:pre" x="8" y="13.8">Semaphore</tspan></text></g><g transform="matrix(1,0,0,1,592,1334)" ed:width="66" ed:height="18.5" id="274" ed:parentid="268"><path d="M0,18.5L66,18.5" stroke-linejoin="round" stroke="#53a1d4" fill="none"/><text class="st4"><tspan style="white-space:pre" x="8" y="13.8">公平锁</tspan></text></g><g transform="matrix(1,0,0,1,592,1418)" ed:width="82" ed:height="18.5" id="276" ed:parentid="268"><path d="M0,18.5L82,18.5" stroke-linejoin="round" stroke="#53a1d4" fill="none"/><text class="st4"><tspan style="white-space:pre" x="8" y="13.8">非公平锁</tspan></text></g><g transform="matrix(1,0,0,1,701,1393)" ed:width="434" ed:height="18.5" id="280" ed:parentid="276"><path d="M0,18.5L434,18.5" stroke-linejoin="round" stroke="#53a1d4" fill="none"/><text class="st6"><tspan style="white-space:pre" x="8" y="13.8">直接尝试获取资源，只要自旋成功即可获取锁，否则进队列</tspan></text></g><g transform="matrix(1,0,0,1,778,1174)" ed:width="162" ed:height="18.5" id="282" ed:parentid="266"><path d="M0,18.5L162,18.5" stroke-linejoin="round" stroke="#53a1d4" fill="none"/><text class="st4"><tspan style="white-space:pre" x="8" y="13.8">底层由汇编语言实现</tspan></text></g><g transform="matrix(1,0,0,1,778,1199)" ed:width="98" ed:height="18.5" id="284" ed:parentid="266"><path d="M0,18.5L98,18.5" stroke-linejoin="round" stroke="#53a1d4" fill="none"/><text class="st4"><tspan style="white-space:pre" x="8" y="13.8">LOCL_IF_MP</tspan></text></g><g transform="matrix(1,0,0,1,778,1224)" ed:width="74" ed:height="18.5" id="286" ed:parentid="266"><path d="M0,18.5L74,18.5" stroke-linejoin="round" stroke="#53a1d4" fill="none"/><text class="st4"><tspan style="white-space:pre" x="8" y="13.8">comxchg</tspan></text></g><g transform="matrix(1,0,0,1,685,1301)" ed:width="434" ed:height="18.5" id="288" ed:parentid="274"><path d="M0,18.5L434,18.5" stroke-linejoin="round" stroke="#53a1d4" fill="none"/><text class="st6"><tspan style="white-space:pre" x="8" y="13.8">按照申请锁的先后顺序进等待队列，队列 head 才能获取锁</tspan></text></g><g transform="matrix(1,0,0,1,685,1326)" ed:width="370" ed:height="18.5" id="290" ed:parentid="274"><path d="M0,18.5L370,18.5" stroke-linejoin="round" stroke="#53a1d4" fill="none"/><text class="st4"><tspan style="white-space:pre" x="8" y="13.8">优点：所有线程都能获取资源，不会饿死在队列中</tspan></text></g><g transform="matrix(1,0,0,1,685,1351)" ed:width="466" ed:height="35.5" id="292" ed:parentid="274"><path d="M0,35.5L466,35.5" stroke-linejoin="round" stroke="#53a1d4" fill="none"/><text class="st4"><tspan style="white-space:pre" x="8" y="13.8">缺点：吞吐量会下降很多，除了队列 head 其他都要阻塞等待，</tspan><tspan style="white-space:pre" x="8" y="30.8">CPU 唤醒阻塞线程开销会很大</tspan></text></g><g transform="matrix(1,0,0,1,701,1418)" ed:width="346" ed:height="18.5" id="294" ed:parentid="276"><path d="M0,18.5L346,18.5" stroke-linejoin="round" stroke="#53a1d4" fill="none"/><text class="st4"><tspan style="white-space:pre" x="8" y="13.8">优点：减少 CPU 唤醒线程开销，吞吐量会高点</tspan></text></g><g transform="matrix(1,0,0,1,701,1443)" ed:width="354" ed:height="18.5" id="296" ed:parentid="276"><path d="M0,18.5L354,18.5" stroke-linejoin="round" stroke="#53a1d4" fill="none"/><text class="st4"><tspan style="white-space:pre" x="8" y="13.8">缺点：队列中的线程可能获取不到锁，导致饿死</tspan></text></g><g transform="matrix(1,0,0,1,350,1384)" ed:width="66" ed:height="18.5" id="350" ed:parentid="108"><path d="M0,18.5L66,18.5" stroke-linejoin="round" stroke="#53a1d4" fill="none"/><text class="st4"><tspan style="white-space:pre" x="8" y="13.8">独占型</tspan></text></g><g transform="matrix(1,0,0,1,350,1505)" ed:width="66" ed:height="18.5" id="352" ed:parentid="108"><path d="M0,18.5L66,18.5" stroke-linejoin="round" stroke="#53a1d4" fill="none"/><text class="st4"><tspan style="white-space:pre" x="8" y="13.8">共享型</tspan></text></g><g transform="matrix(1,0,0,1,443,1468)" ed:width="218" ed:height="18.5" id="354" ed:parentid="350"><path d="M0,18.5L218,18.5" stroke-linejoin="round" stroke="#53a1d4" fill="none"/><text class="st4"><tspan style="white-space:pre" x="8" y="13.8">ThreadPoolExecutor#Worker</tspan></text></g><g transform="matrix(1,0,0,1,350,1568)" ed:width="194" ed:height="18.5" id="360" ed:parentid="108"><path d="M0,18.5L194,18.5" stroke-linejoin="round" stroke="#53a1d4" fill="none"/><text class="st4"><tspan style="white-space:pre" x="8" y="13.8">ReentrantReadWriteLock</tspan></text></g><g transform="matrix(1,0,0,1,571,1543)" ed:width="98" ed:height="18.5" id="362" ed:parentid="360"><path d="M0,18.5L98,18.5" stroke-linejoin="round" stroke="#53a1d4" fill="none"/><text class="st4"><tspan style="white-space:pre" x="8" y="13.8">读：共享型</tspan></text></g><g transform="matrix(1,0,0,1,571,1593)" ed:width="98" ed:height="18.5" id="364" ed:parentid="360"><path d="M0,18.5L98,18.5" stroke-linejoin="round" stroke="#53a1d4" fill="none"/><text class="st4"><tspan style="white-space:pre" x="8" y="13.8">写：独占型</tspan></text></g><g transform="matrix(1,0,0,1,571,1568)" ed:width="82" ed:height="18.5" id="366" ed:parentid="360"><path d="M0,18.5L82,18.5" stroke-linejoin="round" stroke="#53a1d4" fill="none"/><text class="st4"><tspan style="white-space:pre" x="8" y="13.8">读多写少</tspan></text></g><symbol id="plus"><path d="M11,6C11,8.8,8.8,11,6,11C3.2,11,1,8.8,1,6C1,3.2,3.2,1,6,1C8.8,1,11,3.2,11,6z" fill="url(#lg1)"/><path d="M11,6C11,8.8,8.8,11,6,11C3.2,11,1,8.8,1,6C1,3.2,3.2,1,6,1C8.8,1,11,3.2,11,6zM3,6L9,6M6,3L6,9" stroke-width="0.7" stroke="#46a000" fill="none"/></symbol><symbol id="minus"><path d="M11,6C11,8.8,8.8,11,6,11C3.2,11,1,8.8,1,6C1,3.2,3.2,1,6,1C8.8,1,11,3.2,11,6z" fill="url(#lg1)"/><path d="M11,6C11,8.8,8.8,11,6,11C3.2,11,1,8.8,1,6C1,3.2,3.2,1,6,1C8.8,1,11,3.2,11,6zM3,6L9,6" stroke-width="0.7" stroke="#46a000" fill="none"/></symbol><g transform="translate(165,810)" ed:togtopicid="101"><use xlink:href="#minus"/></g><g transform="translate(305,37)" ed:togtopicid="102"><use xlink:href="#minus"/></g><g transform="translate(305,363)" ed:togtopicid="104"><use xlink:href="#minus"/></g><g transform="translate(305,965)" ed:togtopicid="106"><use xlink:href="#minus"/></g><g transform="translate(324,1450)" ed:togtopicid="108"><use xlink:href="#minus"/></g><g transform="translate(414,138)" ed:togtopicid="148"><use xlink:href="#minus"/></g><g transform="translate(446,613)" ed:togtopicid="150"><use xlink:href="#minus"/></g><g transform="translate(446,213)" ed:togtopicid="151"><use xlink:href="#minus"/></g><g transform="translate(462,413)" ed:togtopicid="168"><use xlink:href="#minus"/></g><g transform="translate(723,251)" ed:togtopicid="170"><use xlink:href="#minus"/></g><g transform="translate(691,301)" ed:togtopicid="172"><use xlink:href="#minus"/></g><g transform="translate(691,376)" ed:togtopicid="174"><use xlink:href="#minus"/></g><g transform="translate(707,463)" ed:togtopicid="176"><use xlink:href="#minus"/></g><g transform="translate(739,551)" ed:togtopicid="178"><use xlink:href="#minus"/></g><g transform="translate(382,790)" ed:togtopicid="208"><use xlink:href="#minus"/></g><g transform="translate(611,752)" ed:togtopicid="212"><use xlink:href="#minus"/></g><g transform="translate(382,952)" ed:togtopicid="238"><use xlink:href="#minus"/></g><g transform="translate(507,1152)" ed:togtopicid="242"><use xlink:href="#minus"/></g><g transform="translate(382,1140)" ed:togtopicid="248"><use xlink:href="#minus"/></g><g transform="translate(491,1040)" ed:togtopicid="252"><use xlink:href="#minus"/></g><g transform="translate(616,1052)" ed:togtopicid="256"><use xlink:href="#minus"/></g><g transform="translate(616,1140)" ed:togtopicid="260"><use xlink:href="#minus"/></g><g transform="translate(752,1202)" ed:togtopicid="266"><use xlink:href="#minus"/></g><g transform="translate(566,1375)" ed:togtopicid="268"><use xlink:href="#minus"/></g><g transform="translate(659,1337)" ed:togtopicid="274"><use xlink:href="#minus"/></g><g transform="translate(675,1421)" ed:togtopicid="276"><use xlink:href="#minus"/></g><g transform="translate(417,1387)" ed:togtopicid="350"><use xlink:href="#minus"/></g><g transform="translate(417,1508)" ed:togtopicid="352"><use xlink:href="#minus"/></g><g transform="translate(545,1571)" ed:togtopicid="360"><use xlink:href="#minus"/></g></svg>