<svg version="1.1" xmlns="http://www.w3.org/2000/svg" xmlns:xlink="http://www.w3.org/1999/xlink" width="1744" height="2028"><defs/><g><g transform="translate(10,10) scale(1,1)"><path fill="none" stroke="#000000" d="M 0 0 L 1724 0 L 1724 2008 L 0 2008 L 0 0" stroke-miterlimit="10"/></g><g transform="translate(10,10) scale(1,1)"><path fill="#ffffff" stroke="none" d="M 0 0 L 0 22 L 149.66900634765625 22 L 160.66900634765625 11 L 160.66900634765625 0 L 0 0"/></g><g transform="translate(10,10) scale(1,1)"><path fill="none" stroke="#000000" d="M 0 0 L 0 22 L 149.66900634765625 22 L 160.66900634765625 11 L 160.66900634765625 0 L 0 0 L 0 0" stroke-miterlimit="10"/></g><g transform="translate(10,10) scale(1,1)"><g><path fill="none" stroke="none"/><text fill="#000000" stroke="none" font-family="Arial" font-size="13px" font-style="normal" font-weight="normal" text-decoration="none" x="70.97900390625" y="17.5">app启动流程</text></g></g><g transform="translate(10,10) scale(1,1)"><g><path fill="none" stroke="none"/><text fill="#000000" stroke="none" font-family="Arial" font-size="13px" font-style="normal" font-weight="bold" text-decoration="none" x="5" y="17.5">interaction</text></g></g><g transform="translate(10,10) scale(1,1)"><rect fill="#C0C0C0" stroke="none" x="31" y="47" width="102.07177734375" height="39" opacity="0.2"/></g><g transform="translate(10,10) scale(1,1)"><rect fill="#ffffff" stroke="none" x="24" y="40" width="102.07177734375" height="39"/></g><g transform="translate(10,10) scale(1,1)"><path fill="none" stroke="#000000" d="M 24 40 L 126.07177734375 40 L 126.07177734375 79 L 24 79 L 24 40 Z Z" stroke-miterlimit="10"/></g><g transform="translate(10,10) scale(1,1)"><g><path fill="none" stroke="none"/><text fill="#000000" stroke="none" font-family="Arial" font-size="13px" font-style="normal" font-weight="bold" text-decoration="none" x="37.470458984375" y="59.5">ActivityThrad</text></g></g><g transform="translate(10,10) scale(1,1)"><path fill="none" stroke="#000000" d="M 76.5 80 L 76.5 1996" stroke-miterlimit="10" stroke-dasharray="3"/></g><g transform="translate(10,10) scale(1,1)"><rect fill="#C0C0C0" stroke="none" x="195" y="47" width="136.72998046875" height="39" opacity="0.2"/></g><g transform="translate(10,10) scale(1,1)"><rect fill="#ffffff" stroke="none" x="188" y="40" width="136.72998046875" height="39"/></g><g transform="translate(10,10) scale(1,1)"><path fill="none" stroke="#000000" d="M 188 40 L 324.72998046875 40 L 324.72998046875 79 L 188 79 L 188 40 Z Z" stroke-miterlimit="10"/></g><g transform="translate(10,10) scale(1,1)"><g><path fill="none" stroke="none"/><text fill="#000000" stroke="none" font-family="Arial" font-size="13px" font-style="normal" font-weight="bold" text-decoration="none" x="202.16552734375" y="59.5">IApplicationThread</text></g></g><g transform="translate(10,10) scale(1,1)"><path fill="none" stroke="#000000" d="M 257.5 80 L 257.5 1484" stroke-miterlimit="10" stroke-dasharray="3"/></g><g transform="translate(10,10) scale(1,1)"><rect fill="#C0C0C0" stroke="none" x="411" y="47" width="64" height="39" opacity="0.2"/></g><g transform="translate(10,10) scale(1,1)"><rect fill="#ffffff" stroke="none" x="404" y="40" width="64" height="39"/></g><g transform="translate(10,10) scale(1,1)"><path fill="none" stroke="#000000" d="M 404 40 L 468 40 L 468 79 L 404 79 L 404 40 Z Z" stroke-miterlimit="10"/></g><g transform="translate(10,10) scale(1,1)"><g><path fill="none" stroke="none"/><text fill="#000000" stroke="none" font-family="Arial" font-size="13px" font-style="normal" font-weight="bold" text-decoration="none" x="425.891357421875" y="59.5">mH</text></g></g><g transform="translate(10,10) scale(1,1)"><path fill="none" stroke="#000000" d="M 437.5 80 L 437.5 1596" stroke-miterlimit="10" stroke-dasharray="3"/></g><g transform="translate(10,10) scale(1,1)"><rect fill="#C0C0C0" stroke="none" x="995" y="47" width="117.2236328125" height="39" opacity="0.2"/></g><g transform="translate(10,10) scale(1,1)"><rect fill="#ffffff" stroke="none" x="988" y="40" width="117.2236328125" height="39"/></g><g transform="translate(10,10) scale(1,1)"><path fill="none" stroke="#000000" d="M 988 40 L 1105.2236328125 40 L 1105.2236328125 79 L 988 79 L 988 40 Z Z" stroke-miterlimit="10"/></g><g transform="translate(10,10) scale(1,1)"><g><path fill="none" stroke="none"/><text fill="#000000" stroke="none" font-family="Arial" font-size="13px" font-style="normal" font-weight="bold" text-decoration="none" x="1001.81005859375" y="59.5">Instrumentation</text></g></g><g transform="translate(10,10) scale(1,1)"><path fill="none" stroke="#000000" d="M 1047.5 80 L 1047.5 1840" stroke-miterlimit="10" stroke-dasharray="3"/></g><g transform="translate(10,10) scale(1,1)"><rect fill="#C0C0C0" stroke="none" x="559" y="47" width="71.736328125" height="39" opacity="0.2"/></g><g transform="translate(10,10) scale(1,1)"><rect fill="#ffffff" stroke="none" x="552" y="40" width="71.736328125" height="39"/></g><g transform="translate(10,10) scale(1,1)"><path fill="none" stroke="#000000" d="M 552 40 L 623.736328125 40 L 623.736328125 79 L 552 79 L 552 40 Z Z" stroke-miterlimit="10"/></g><g transform="translate(10,10) scale(1,1)"><g><path fill="none" stroke="none"/><text fill="#000000" stroke="none" font-family="Arial" font-size="13px" font-style="normal" font-weight="bold" text-decoration="none" x="573.78271484375" y="59.5">AMS</text></g></g><g transform="translate(10,10) scale(1,1)"><path fill="none" stroke="#000000" d="M 588.5 80 L 588.5 1077" stroke-miterlimit="10" stroke-dasharray="3"/></g><g transform="translate(10,10) scale(1,1)"><rect fill="#C0C0C0" stroke="none" x="1167" y="47" width="104.71240234375" height="39" opacity="0.2"/></g><g transform="translate(10,10) scale(1,1)"><rect fill="#ffffff" stroke="none" x="1160" y="40" width="104.71240234375" height="39"/></g><g transform="translate(10,10) scale(1,1)"><path fill="none" stroke="#000000" d="M 1160 40 L 1264.71240234375 40 L 1264.71240234375 79 L 1160 79 L 1160 40 Z Z" stroke-miterlimit="10"/></g><g transform="translate(10,10) scale(1,1)"><g><path fill="none" stroke="none"/><text fill="#000000" stroke="none" font-family="Arial" font-size="13px" font-style="normal" font-weight="bold" text-decoration="none" x="1180.5576171875" y="59.5">Application</text></g></g><g transform="translate(10,10) scale(1,1)"><path fill="none" stroke="#000000" d="M 1213.5 80 L 1213.5 972" stroke-miterlimit="10" stroke-dasharray="3"/></g><g transform="translate(10,10) scale(1,1)"><rect fill="#ffffff" stroke="none" x="576" y="178.5" width="14" height="14"/></g><g transform="translate(10,10) scale(1,1)"><path fill="none" stroke="#000000" d="M 576 178.5 L 590 178.5 L 590 192.5 L 576 192.5 L 576 178.5 Z Z" stroke-miterlimit="10"/></g><g transform="translate(10,10) scale(1,1)"><rect fill="#ffffff" stroke="none" x="68" y="270.5" width="14" height="14"/></g><g transform="translate(10,10) scale(1,1)"><path fill="none" stroke="#000000" d="M 68 270.5 L 82 270.5 L 82 284.5 L 68 284.5 L 68 270.5 Z Z" stroke-miterlimit="10"/></g><g transform="translate(10,10) scale(1,1)"><rect fill="#C0C0C0" stroke="none" x="847" y="47" width="94.11181640625" height="39" opacity="0.2"/></g><g transform="translate(10,10) scale(1,1)"><rect fill="#ffffff" stroke="none" x="840" y="40" width="94.11181640625" height="39"/></g><g transform="translate(10,10) scale(1,1)"><path fill="none" stroke="#000000" d="M 840 40 L 934.11181640625 40 L 934.11181640625 79 L 840 79 L 840 40 Z Z" stroke-miterlimit="10"/></g><g transform="translate(10,10) scale(1,1)"><g><path fill="none" stroke="none"/><text fill="#000000" stroke="none" font-family="Arial" font-size="13px" font-style="normal" font-weight="bold" text-decoration="none" x="852.37548828125" y="59.5">ContextImpl</text></g></g><g transform="translate(10,10) scale(1,1)"><path fill="none" stroke="#000000" d="M 888.5 80 L 888.5 688" stroke-miterlimit="10" stroke-dasharray="3"/></g><g transform="translate(10,10) scale(1,1)"><rect fill="#C0C0C0" stroke="none" x="699" y="47" width="89.78271484375" height="39" opacity="0.2"/></g><g transform="translate(10,10) scale(1,1)"><rect fill="#ffffff" stroke="none" x="692" y="40" width="89.78271484375" height="39"/></g><g transform="translate(10,10) scale(1,1)"><path fill="none" stroke="#000000" d="M 692 40 L 781.78271484375 40 L 781.78271484375 79 L 692 79 L 692 40 Z Z" stroke-miterlimit="10"/></g><g transform="translate(10,10) scale(1,1)"><g><path fill="none" stroke="none"/><text fill="#000000" stroke="none" font-family="Arial" font-size="13px" font-style="normal" font-weight="bold" text-decoration="none" x="704.0009765625" y="59.5">LoadedApk</text></g></g><g transform="translate(10,10) scale(1,1)"><path fill="none" stroke="#000000" d="M 737.5 80 L 737.5 774" stroke-miterlimit="10" stroke-dasharray="3"/></g><g transform="translate(10,10) scale(1,1)"><rect fill="#ffffff" stroke="none" x="72" y="488" width="14" height="14"/></g><g transform="translate(10,10) scale(1,1)"><path fill="none" stroke="#000000" d="M 72 488 L 86 488 L 86 502 L 72 502 L 72 488 Z Z" stroke-miterlimit="10"/></g><g transform="translate(10,10) scale(1,1)"><rect fill="#ffffff" stroke="none" x="740" y="552.5" width="14" height="14"/></g><g transform="translate(10,10) scale(1,1)"><path fill="none" stroke="#000000" d="M 740 552.5 L 754 552.5 L 754 566.5 L 740 566.5 L 740 552.5 Z Z" stroke-miterlimit="10"/></g><g transform="translate(10,10) scale(1,1)"><rect fill="#ffffff" stroke="none" x="740" y="592.5" width="14" height="14"/></g><g transform="translate(10,10) scale(1,1)"><path fill="none" stroke="#000000" d="M 740 592.5 L 754 592.5 L 754 606.5 L 740 606.5 L 740 592.5 Z Z" stroke-miterlimit="10"/></g><g transform="translate(10,10) scale(1,1)"><rect fill="#ffffff" stroke="none" x="1042" y="720.5" width="14" height="14"/></g><g transform="translate(10,10) scale(1,1)"><path fill="none" stroke="#000000" d="M 1042 720.5 L 1056 720.5 L 1056 734.5 L 1042 734.5 L 1042 720.5 Z Z" stroke-miterlimit="10"/></g><g transform="translate(10,10) scale(1,1)"><rect fill="#ffffff" stroke="none" x="1040" y="864.5" width="14" height="14"/></g><g transform="translate(10,10) scale(1,1)"><path fill="none" stroke="#000000" d="M 1040 864.5 L 1054 864.5 L 1054 878.5 L 1040 878.5 L 1040 864.5 Z Z" stroke-miterlimit="10"/></g><g transform="translate(10,10) scale(1,1)"><rect fill="#C0C0C0" stroke="none" x="1307" y="47" width="168.5634765625" height="39" opacity="0.2"/></g><g transform="translate(10,10) scale(1,1)"><rect fill="#ffffff" stroke="none" x="1300" y="40" width="168.5634765625" height="39"/></g><g transform="translate(10,10) scale(1,1)"><path fill="none" stroke="#000000" d="M 1300 40 L 1468.5634765625 40 L 1468.5634765625 79 L 1300 79 L 1300 40 Z Z" stroke-miterlimit="10"/></g><g transform="translate(10,10) scale(1,1)"><g><path fill="none" stroke="none"/><text fill="#000000" stroke="none" font-family="Arial" font-size="13px" font-style="normal" font-weight="bold" text-decoration="none" x="1316.371337890625" y="59.5">ActivityStackSupervisor</text></g></g><g transform="translate(10,10) scale(1,1)"><path fill="none" stroke="#000000" d="M 1385.5 80 L 1385.5 1092" stroke-miterlimit="10" stroke-dasharray="3"/></g><g transform="translate(10,10) scale(1,1)"><rect fill="#ffffff" stroke="none" x="1380" y="1004.5" width="14" height="14"/></g><g transform="translate(10,10) scale(1,1)"><path fill="none" stroke="#000000" d="M 1380 1004.5 L 1394 1004.5 L 1394 1018.5 L 1380 1018.5 L 1380 1004.5 Z Z" stroke-miterlimit="10"/></g><g transform="translate(10,10) scale(1,1)"><rect fill="#ffffff" stroke="none" x="260" y="232.5" width="14" height="14"/></g><g transform="translate(10,10) scale(1,1)"><path fill="none" stroke="#000000" d="M 260 232.5 L 274 232.5 L 274 246.5 L 260 246.5 L 260 232.5 Z Z" stroke-miterlimit="10"/></g><g transform="translate(10,10) scale(1,1)"><rect fill="#ffffff" stroke="none" x="260" y="1064.5" width="14" height="14"/></g><g transform="translate(10,10) scale(1,1)"><path fill="none" stroke="#000000" d="M 260 1064.5 L 274 1064.5 L 274 1078.5 L 260 1078.5 L 260 1064.5 Z Z" stroke-miterlimit="10"/></g><g transform="translate(10,10) scale(1,1)"><rect fill="#ffffff" stroke="none" x="428" y="1104.5" width="14" height="14"/></g><g transform="translate(10,10) scale(1,1)"><path fill="none" stroke="#000000" d="M 428 1104.5 L 442 1104.5 L 442 1118.5 L 428 1118.5 L 428 1104.5 Z Z" stroke-miterlimit="10"/></g><g transform="translate(10,10) scale(1,1)"><rect fill="#ffffff" stroke="none" x="86" y="1192.5" width="14" height="14"/></g><g transform="translate(10,10) scale(1,1)"><path fill="none" stroke="#000000" d="M 86 1192.5 L 100 1192.5 L 100 1206.5 L 86 1206.5 L 86 1192.5 Z Z" stroke-miterlimit="10"/></g><g transform="translate(10,10) scale(1,1)"><rect fill="#ffffff" stroke="none" x="88" y="1240.5" width="14" height="14"/></g><g transform="translate(10,10) scale(1,1)"><path fill="none" stroke="#000000" d="M 88 1240.5 L 102 1240.5 L 102 1254.5 L 88 1254.5 L 88 1240.5 Z Z" stroke-miterlimit="10"/></g><g transform="translate(10,10) scale(1,1)"><rect fill="#C0C0C0" stroke="none" x="1531" y="47" width="71.736328125" height="39" opacity="0.2"/></g><g transform="translate(10,10) scale(1,1)"><rect fill="#ffffff" stroke="none" x="1524" y="40" width="71.736328125" height="39"/></g><g transform="translate(10,10) scale(1,1)"><path fill="none" stroke="#000000" d="M 1524 40 L 1595.736328125 40 L 1595.736328125 79 L 1524 79 L 1524 40 Z Z" stroke-miterlimit="10"/></g><g transform="translate(10,10) scale(1,1)"><g><path fill="none" stroke="none"/><text fill="#000000" stroke="none" font-family="Arial" font-size="13px" font-style="normal" font-weight="bold" text-decoration="none" x="1539.28271484375" y="59.5">Activity</text></g></g><g transform="translate(10,10) scale(1,1)"><path fill="none" stroke="#000000" d="M 1560.5 80 L 1560.5 1992" stroke-miterlimit="10" stroke-dasharray="3"/></g><g transform="translate(10,10) scale(1,1)"><rect fill="#ffffff" stroke="none" x="88" y="1304.5" width="14" height="14"/></g><g transform="translate(10,10) scale(1,1)"><path fill="none" stroke="#000000" d="M 88 1304.5 L 102 1304.5 L 102 1318.5 L 88 1318.5 L 88 1304.5 Z Z" stroke-miterlimit="10"/></g><g transform="translate(10,10) scale(1,1)"><rect fill="#ffffff" stroke="none" x="1042" y="1368.5" width="14" height="14"/></g><g transform="translate(10,10) scale(1,1)"><path fill="none" stroke="#000000" d="M 1042 1368.5 L 1056 1368.5 L 1056 1382.5 L 1042 1382.5 L 1042 1368.5 Z Z" stroke-miterlimit="10"/></g><g transform="translate(10,10) scale(1,1)"><rect fill="#ffffff" stroke="none" x="88" y="1508.5" width="14" height="14"/></g><g transform="translate(10,10) scale(1,1)"><path fill="none" stroke="#000000" d="M 88 1508.5 L 102 1508.5 L 102 1522.5 L 88 1522.5 L 88 1508.5 Z Z" stroke-miterlimit="10"/></g><g transform="translate(10,10) scale(1,1)"><rect fill="#ffffff" stroke="none" x="1556" y="1560.5" width="14" height="14"/></g><g transform="translate(10,10) scale(1,1)"><path fill="none" stroke="#000000" d="M 1556 1560.5 L 1570 1560.5 L 1570 1574.5 L 1556 1574.5 L 1556 1560.5 Z Z" stroke-miterlimit="10"/></g><g transform="translate(10,10) scale(1,1)"><rect fill="#ffffff" stroke="none" x="1048" y="1604.5" width="14" height="14"/></g><g transform="translate(10,10) scale(1,1)"><path fill="none" stroke="#000000" d="M 1048 1604.5 L 1062 1604.5 L 1062 1618.5 L 1048 1618.5 L 1048 1604.5 Z Z" stroke-miterlimit="10"/></g><g transform="translate(10,10) scale(1,1)"><rect fill="#ffffff" stroke="none" x="104" y="1684.5" width="14" height="14"/></g><g transform="translate(10,10) scale(1,1)"><path fill="none" stroke="#000000" d="M 104 1684.5 L 118 1684.5 L 118 1698.5 L 104 1698.5 L 104 1684.5 Z Z" stroke-miterlimit="10"/></g><g transform="translate(10,10) scale(1,1)"><rect fill="#ffffff" stroke="none" x="1556" y="1716.5" width="14" height="14"/></g><g transform="translate(10,10) scale(1,1)"><path fill="none" stroke="#000000" d="M 1556 1716.5 L 1570 1716.5 L 1570 1730.5 L 1556 1730.5 L 1556 1716.5 Z Z" stroke-miterlimit="10"/></g><g transform="translate(10,10) scale(1,1)"><rect fill="#ffffff" stroke="none" x="1052" y="1772.5" width="14" height="14"/></g><g transform="translate(10,10) scale(1,1)"><path fill="none" stroke="#000000" d="M 1052 1772.5 L 1066 1772.5 L 1066 1786.5 L 1052 1786.5 L 1052 1772.5 Z Z" stroke-miterlimit="10"/></g><g transform="translate(10,10) scale(1,1)"><path fill="none" stroke="#000000" d="M 76 83 L 106 83 L 106 103 L 82 103" stroke-miterlimit="10"/></g><g transform="translate(10,10) scale(1,1)"><path fill="#000000" stroke="none" d="M 92.16267485762415 98.79048224398402 L 82 103 L 92.16267485762415 107.20951775601598"/></g><g transform="translate(10,10) scale(1,1)"><path fill="none" stroke="#000000" d="M 92.16267485762415 98.79048224398402 L 82 103 L 92.16267485762415 107.20951775601598 L 92.16267485762415 98.79048224398402" stroke-miterlimit="10"/></g><g transform="translate(10,10) scale(1,1)"><g><path fill="none" stroke="none"/><text fill="#000000" stroke="none" font-family="Arial" font-size="13px" font-style="normal" font-weight="normal" text-decoration="none" x="92.878662109375" y="96.5">1 : main</text></g></g><g transform="translate(10,10) scale(1,1)"><rect fill="#ffffff" stroke="none" x="69" y="103" width="13" height="118"/></g><g transform="translate(10,10) scale(1,1)"><path fill="none" stroke="#000000" d="M 69 103 L 82 103 L 82 221 L 69 221 L 69 103 Z Z" stroke-miterlimit="10"/></g><g transform="translate(10,10) scale(1,1)"><path fill="none" stroke="#000000" d="M 437 86 L 467 86 L 467 106 L 443 106" stroke-miterlimit="10"/></g><g transform="translate(10,10) scale(1,1)"><path fill="#000000" stroke="none" d="M 453.16267485762415 101.79048224398402 L 443 106 L 453.16267485762415 110.20951775601598"/></g><g transform="translate(10,10) scale(1,1)"><path fill="none" stroke="#000000" d="M 453.16267485762415 101.79048224398402 L 443 106 L 453.16267485762415 110.20951775601598 L 453.16267485762415 101.79048224398402" stroke-miterlimit="10"/></g><g transform="translate(10,10) scale(1,1)"><g><path fill="none" stroke="none"/><text fill="#000000" stroke="none" font-family="Arial" font-size="13px" font-style="normal" font-weight="normal" text-decoration="none" x="451.5" y="101.5">2 : handleMessage</text></g></g><g transform="translate(10,10) scale(1,1)"><rect fill="#ffffff" stroke="none" x="430" y="106" width="13" height="1346"/></g><g transform="translate(10,10) scale(1,1)"><path fill="none" stroke="#000000" d="M 430 106 L 443 106 L 443 1452 L 430 1452 L 430 106 Z Z" stroke-miterlimit="10"/></g><g transform="translate(10,10) scale(1,1)"><path fill="none" stroke="#000000" d="M 82 118 L 112 118 L 112 138 L 89 138" stroke-miterlimit="10"/></g><g transform="translate(10,10) scale(1,1)"><path fill="#000000" stroke="none" d="M 99.16267485762415 133.790482243984 L 89 138 L 99.16267485762415 142.209517756016"/></g><g transform="translate(10,10) scale(1,1)"><path fill="none" stroke="#000000" d="M 99.16267485762415 133.790482243984 L 89 138 L 99.16267485762415 142.209517756016 L 99.16267485762415 133.790482243984" stroke-miterlimit="10"/></g><g transform="translate(10,10) scale(1,1)"><g><path fill="none" stroke="none"/><text fill="#000000" stroke="none" font-family="Arial" font-size="13px" font-style="normal" font-weight="normal" text-decoration="none" x="98.5" y="132.5">3 : attach(false)</text></g></g><g transform="translate(10,10) scale(1,1)"><rect fill="#ffffff" stroke="none" x="76" y="138" width="13" height="28"/></g><g transform="translate(10,10) scale(1,1)"><path fill="none" stroke="#000000" d="M 76 138 L 89 138 L 89 166 L 76 166 L 76 138 Z Z" stroke-miterlimit="10"/></g><g transform="translate(10,10) scale(1,1)"><path fill="none" stroke="#000000" d="M 89 156 L 581 156" stroke-miterlimit="10"/></g><g transform="translate(10,10) scale(1,1)"><path fill="#000000" stroke="none" d="M 570.8373251423759 160.209517756016 L 581 156 L 570.8373251423758 151.790482243984"/></g><g transform="translate(10,10) scale(1,1)"><path fill="none" stroke="#000000" d="M 570.8373251423759 160.209517756016 L 581 156 L 570.8373251423758 151.790482243984 L 570.8373251423759 160.209517756016" stroke-miterlimit="10"/></g><g transform="translate(10,10) scale(1,1)"><g><path fill="none" stroke="none"/><text fill="#000000" stroke="none" font-family="Arial" font-size="13px" font-style="normal" font-weight="normal" text-decoration="none" x="276.114990234375" y="152.5">4 : attachApplication</text></g></g><g transform="translate(10,10) scale(1,1)"><rect fill="#ffffff" stroke="none" x="581" y="156" width="13" height="800"/></g><g transform="translate(10,10) scale(1,1)"><path fill="none" stroke="#000000" d="M 581 156 L 594 156 L 594 956 L 581 956 L 581 156 Z Z" stroke-miterlimit="10"/></g><g transform="translate(10,10) scale(1,1)"><path fill="none" stroke="#000000" d="M 594 166 L 624 166 L 624 186 L 601 186" stroke-miterlimit="10"/></g><g transform="translate(10,10) scale(1,1)"><path fill="#000000" stroke="none" d="M 611.1626748576241 181.790482243984 L 601 186 L 611.1626748576241 190.209517756016"/></g><g transform="translate(10,10) scale(1,1)"><path fill="none" stroke="#000000" d="M 611.1626748576241 181.790482243984 L 601 186 L 611.1626748576241 190.209517756016 L 611.1626748576241 181.790482243984" stroke-miterlimit="10"/></g><g transform="translate(10,10) scale(1,1)"><g><path fill="none" stroke="none"/><text fill="#000000" stroke="none" font-family="Arial" font-size="13px" font-style="normal" font-weight="normal" text-decoration="none" x="614.114990234375" y="181.5">5 : attachApplicationLocked</text></g></g><g transform="translate(10,10) scale(1,1)"><rect fill="#ffffff" stroke="none" x="588" y="186" width="13" height="28"/></g><g transform="translate(10,10) scale(1,1)"><path fill="none" stroke="#000000" d="M 588 186 L 601 186 L 601 214 L 588 214 L 588 186 Z Z" stroke-miterlimit="10"/></g><g transform="translate(10,10) scale(1,1)"><path fill="none" stroke="#000000" d="M 576 186 L 263 186" stroke-miterlimit="10"/></g><g transform="translate(10,10) scale(1,1)"><path fill="#000000" stroke="none" d="M 273.16267485762415 181.790482243984 L 263 186 L 273.16267485762415 190.209517756016"/></g><g transform="translate(10,10) scale(1,1)"><path fill="none" stroke="#000000" d="M 273.16267485762415 181.790482243984 L 263 186 L 273.16267485762415 190.209517756016 L 273.16267485762415 181.790482243984" stroke-miterlimit="10"/></g><g transform="translate(10,10) scale(1,1)"><g><path fill="none" stroke="none"/><text fill="#000000" stroke="none" font-family="Arial" font-size="13px" font-style="normal" font-weight="normal" text-decoration="none" x="345.114990234375" y="183.5">6 : thread.bindApplication</text></g></g><g transform="translate(10,10) scale(1,1)"><rect fill="#ffffff" stroke="none" x="250" y="186" width="13" height="70"/></g><g transform="translate(10,10) scale(1,1)"><path fill="none" stroke="#000000" d="M 250 186 L 263 186 L 263 256 L 250 256 L 250 186 Z Z" stroke-miterlimit="10"/></g><g transform="translate(10,10) scale(1,1)"><path fill="none" stroke="#000000" d="M 263 194 L 293 194 L 293 214 L 270 214" stroke-miterlimit="10"/></g><g transform="translate(10,10) scale(1,1)"><path fill="#000000" stroke="none" d="M 280.16267485762415 209.790482243984 L 270 214 L 280.16267485762415 218.209517756016"/></g><g transform="translate(10,10) scale(1,1)"><path fill="none" stroke="#000000" d="M 280.16267485762415 209.790482243984 L 270 214 L 280.16267485762415 218.209517756016 L 280.16267485762415 209.790482243984" stroke-miterlimit="10"/></g><g transform="translate(10,10) scale(1,1)"><g><path fill="none" stroke="none"/><text fill="#000000" stroke="none" font-family="Arial" font-size="13px" font-style="normal" font-weight="normal" text-decoration="none" x="275.114990234375" y="209.5">7 : bindApplication</text></g></g><g transform="translate(10,10) scale(1,1)"><rect fill="#ffffff" stroke="none" x="257" y="214" width="13" height="34"/></g><g transform="translate(10,10) scale(1,1)"><path fill="none" stroke="#000000" d="M 257 214 L 270 214 L 270 248 L 257 248 L 257 214 Z Z" stroke-miterlimit="10"/></g><g transform="translate(10,10) scale(1,1)"><path fill="none" stroke="#000000" d="M 274 240 L 437 240" stroke-miterlimit="10"/></g><g transform="translate(10,10) scale(1,1)"><path fill="#000000" stroke="none" d="M 426.83732514237585 244.209517756016 L 437 240 L 426.83732514237585 235.790482243984"/></g><g transform="translate(10,10) scale(1,1)"><path fill="none" stroke="#000000" d="M 426.83732514237585 244.209517756016 L 437 240 L 426.83732514237585 235.790482243984 L 426.83732514237585 244.209517756016" stroke-miterlimit="10"/></g><g transform="translate(10,10) scale(1,1)"><g><path fill="none" stroke="none"/><text fill="#000000" stroke="none" font-family="Arial" font-size="13px" font-style="normal" font-weight="normal" text-decoration="none" x="263.114990234375" y="236.5">8 : sendMessage(H.BIND_APPLICATION, data)</text></g></g><g transform="translate(10,10) scale(1,1)"><rect fill="#ffffff" stroke="none" x="437" y="240" width="13" height="48"/></g><g transform="translate(10,10) scale(1,1)"><path fill="none" stroke="#000000" d="M 437 240 L 450 240 L 450 288 L 437 288 L 437 240 Z Z" stroke-miterlimit="10"/></g><g transform="translate(10,10) scale(1,1)"><path fill="none" stroke="#000000" d="M 437 278 L 82 278" stroke-miterlimit="10"/></g><g transform="translate(10,10) scale(1,1)"><path fill="#000000" stroke="none" d="M 92.16267485762415 273.790482243984 L 82 278 L 92.16267485762415 282.209517756016"/></g><g transform="translate(10,10) scale(1,1)"><path fill="none" stroke="#000000" d="M 92.16267485762415 273.790482243984 L 82 278 L 92.16267485762415 282.209517756016 L 92.16267485762415 273.790482243984" stroke-miterlimit="10"/></g><g transform="translate(10,10) scale(1,1)"><g><path fill="none" stroke="none"/><text fill="#000000" stroke="none" font-family="Arial" font-size="13px" font-style="normal" font-weight="normal" text-decoration="none" x="126.114990234375" y="275.5">9 : handleBindApplication(AppBindData data)</text></g></g><g transform="translate(10,10) scale(1,1)"><path fill="none" stroke="#000000" d="M 76 286 L 106 286 L 106 306 L 82 306" stroke-miterlimit="10"/></g><g transform="translate(10,10) scale(1,1)"><path fill="#000000" stroke="none" d="M 92.16267485762415 301.790482243984 L 82 306 L 92.16267485762415 310.209517756016"/></g><g transform="translate(10,10) scale(1,1)"><path fill="none" stroke="#000000" d="M 92.16267485762415 301.790482243984 L 82 306 L 92.16267485762415 310.209517756016 L 92.16267485762415 301.790482243984" stroke-miterlimit="10"/></g><g transform="translate(10,10) scale(1,1)"><g><path fill="none" stroke="none"/><text fill="#000000" stroke="none" font-family="Arial" font-size="13px" font-style="normal" font-weight="normal" text-decoration="none" x="107.5" y="301.5">10 : handleBindApplicaton</text></g></g><g transform="translate(10,10) scale(1,1)"><rect fill="#ffffff" stroke="none" x="69" y="306" width="13" height="542"/></g><g transform="translate(10,10) scale(1,1)"><path fill="none" stroke="#000000" d="M 69 306 L 82 306 L 82 848 L 69 848 L 69 306 Z Z" stroke-miterlimit="10"/></g><g transform="translate(10,10) scale(1,1)"><path fill="none" stroke="#000000" d="M 82 328 L 112 328 L 112 348 L 89 348" stroke-miterlimit="10"/></g><g transform="translate(10,10) scale(1,1)"><path fill="#000000" stroke="none" d="M 99.16267485762415 343.790482243984 L 89 348 L 99.16267485762415 352.209517756016"/></g><g transform="translate(10,10) scale(1,1)"><path fill="none" stroke="#000000" d="M 99.16267485762415 343.790482243984 L 89 348 L 99.16267485762415 352.209517756016 L 99.16267485762415 343.790482243984" stroke-miterlimit="10"/></g><g transform="translate(10,10) scale(1,1)"><g><path fill="none" stroke="none"/><text fill="#000000" stroke="none" font-family="Arial" font-size="13px" font-style="normal" font-weight="normal" text-decoration="none" x="93.982421875" y="343.5">11 : getPackageInfoNoCheck</text></g></g><g transform="translate(10,10) scale(1,1)"><rect fill="#ffffff" stroke="none" x="76" y="348" width="13" height="28"/></g><g transform="translate(10,10) scale(1,1)"><path fill="none" stroke="#000000" d="M 76 348 L 89 348 L 89 376 L 76 376 L 76 348 Z Z" stroke-miterlimit="10"/></g><g transform="translate(10,10) scale(1,1)"><path fill="none" stroke="#000000" d="M 82 392 L 112 392 L 112 412 L 89 412" stroke-miterlimit="10"/></g><g transform="translate(10,10) scale(1,1)"><path fill="#000000" stroke="none" d="M 99.16267485762415 407.790482243984 L 89 412 L 99.16267485762415 416.209517756016"/></g><g transform="translate(10,10) scale(1,1)"><path fill="none" stroke="#000000" d="M 99.16267485762415 407.790482243984 L 89 412 L 99.16267485762415 416.209517756016 L 99.16267485762415 407.790482243984" stroke-miterlimit="10"/></g><g transform="translate(10,10) scale(1,1)"><g><path fill="none" stroke="none"/><text fill="#000000" stroke="none" font-family="Arial" font-size="13px" font-style="normal" font-weight="normal" text-decoration="none" x="86.5" y="407.5">12 : 实例化 mInstrumentation</text></g></g><g transform="translate(10,10) scale(1,1)"><rect fill="#ffffff" stroke="none" x="76" y="412" width="13" height="28"/></g><g transform="translate(10,10) scale(1,1)"><path fill="none" stroke="#000000" d="M 76 412 L 89 412 L 89 440 L 76 440 L 76 412 Z Z" stroke-miterlimit="10"/></g><g transform="translate(10,10) scale(1,1)"><path fill="none" stroke="#000000" d="M 89 432 L 119 432 L 119 452 L 89 452" stroke-miterlimit="10"/></g><g transform="translate(10,10) scale(1,1)"><path fill="#000000" stroke="none" d="M 99.16267485762415 447.790482243984 L 89 452 L 99.16267485762415 456.209517756016"/></g><g transform="translate(10,10) scale(1,1)"><path fill="none" stroke="#000000" d="M 99.16267485762415 447.790482243984 L 89 452 L 99.16267485762415 456.209517756016 L 99.16267485762415 447.790482243984" stroke-miterlimit="10"/></g><g transform="translate(10,10) scale(1,1)"><g><path fill="none" stroke="none"/><text fill="#000000" stroke="none" font-family="Arial" font-size="13px" font-style="normal" font-weight="normal" text-decoration="none" x="94.5" y="447.5">13 : data.info.makeApplication</text></g></g><g transform="translate(10,10) scale(1,1)"><rect fill="#ffffff" stroke="none" x="76" y="452" width="13" height="28"/></g><g transform="translate(10,10) scale(1,1)"><path fill="none" stroke="#000000" d="M 76 452 L 89 452 L 89 480 L 76 480 L 76 452 Z Z" stroke-miterlimit="10"/></g><g transform="translate(10,10) scale(1,1)"><path fill="none" stroke="#000000" d="M 82 496 L 730 496" stroke-miterlimit="10"/></g><g transform="translate(10,10) scale(1,1)"><path fill="#000000" stroke="none" d="M 719.8373251423759 500.209517756016 L 730 496 L 719.8373251423758 491.790482243984"/></g><g transform="translate(10,10) scale(1,1)"><path fill="none" stroke="#000000" d="M 719.8373251423759 500.209517756016 L 730 496 L 719.8373251423758 491.790482243984 L 719.8373251423759 500.209517756016" stroke-miterlimit="10"/></g><g transform="translate(10,10) scale(1,1)"><g><path fill="none" stroke="none"/><text fill="#000000" stroke="none" font-family="Arial" font-size="13px" font-style="normal" font-weight="normal" text-decoration="none" x="318.5" y="492.5">14 : data.info.makeApplication</text></g></g><g transform="translate(10,10) scale(1,1)"><rect fill="#ffffff" stroke="none" x="730" y="496" width="13" height="184"/></g><g transform="translate(10,10) scale(1,1)"><path fill="none" stroke="#000000" d="M 730 496 L 743 496 L 743 680 L 730 680 L 730 496 Z Z" stroke-miterlimit="10"/></g><g transform="translate(10,10) scale(1,1)"><path fill="none" stroke="#000000" d="M 743 502 L 773 502 L 773 522 L 750 522" stroke-miterlimit="10"/></g><g transform="translate(10,10) scale(1,1)"><path fill="#000000" stroke="none" d="M 760.1626748576241 517.790482243984 L 750 522 L 760.1626748576241 526.209517756016"/></g><g transform="translate(10,10) scale(1,1)"><path fill="none" stroke="#000000" d="M 760.1626748576241 517.790482243984 L 750 522 L 760.1626748576241 526.209517756016 L 760.1626748576241 517.790482243984" stroke-miterlimit="10"/></g><g transform="translate(10,10) scale(1,1)"><g><path fill="none" stroke="none"/><text fill="#000000" stroke="none" font-family="Arial" font-size="13px" font-style="normal" font-weight="normal" text-decoration="none" x="754.5" y="516.5">15 : makeApplication</text></g></g><g transform="translate(10,10) scale(1,1)"><rect fill="#ffffff" stroke="none" x="737" y="522" width="13" height="150"/></g><g transform="translate(10,10) scale(1,1)"><path fill="none" stroke="#000000" d="M 737 522 L 750 522 L 750 672 L 737 672 L 737 522 Z Z" stroke-miterlimit="10"/></g><g transform="translate(10,10) scale(1,1)"><path fill="none" stroke="#000000" d="M 754 560 L 881 560" stroke-miterlimit="10"/></g><g transform="translate(10,10) scale(1,1)"><path fill="#000000" stroke="none" d="M 870.8373251423759 564.209517756016 L 881 560 L 870.8373251423758 555.790482243984"/></g><g transform="translate(10,10) scale(1,1)"><path fill="none" stroke="#000000" d="M 870.8373251423759 564.209517756016 L 881 560 L 870.8373251423758 555.790482243984 L 870.8373251423759 564.209517756016" stroke-miterlimit="10"/></g><g transform="translate(10,10) scale(1,1)"><g><path fill="none" stroke="none"/><text fill="#000000" stroke="none" font-family="Arial" font-size="13px" font-style="normal" font-weight="normal" text-decoration="none" x="748.5" y="548.5">16 : ContextImpl.createAppContext</text></g></g><g transform="translate(10,10) scale(1,1)"><rect fill="#ffffff" stroke="none" x="881" y="560" width="13" height="64"/></g><g transform="translate(10,10) scale(1,1)"><path fill="none" stroke="#000000" d="M 881 560 L 894 560 L 894 624 L 881 624 L 881 560 Z Z" stroke-miterlimit="10"/></g><g transform="translate(10,10) scale(1,1)"><path fill="none" stroke="#000000" d="M 894 566 L 924 566 L 924 586 L 901 586" stroke-miterlimit="10"/></g><g transform="translate(10,10) scale(1,1)"><path fill="#000000" stroke="none" d="M 911.1626748576241 581.790482243984 L 901 586 L 911.1626748576241 590.209517756016"/></g><g transform="translate(10,10) scale(1,1)"><path fill="none" stroke="#000000" d="M 911.1626748576241 581.790482243984 L 901 586 L 911.1626748576241 590.209517756016 L 911.1626748576241 581.790482243984" stroke-miterlimit="10"/></g><g transform="translate(10,10) scale(1,1)"><g><path fill="none" stroke="none"/><text fill="#000000" stroke="none" font-family="Arial" font-size="13px" font-style="normal" font-weight="normal" text-decoration="none" x="903.5" y="580.5">17 : createAppContext</text></g></g><g transform="translate(10,10) scale(1,1)"><rect fill="#ffffff" stroke="none" x="888" y="586" width="13" height="28"/></g><g transform="translate(10,10) scale(1,1)"><path fill="none" stroke="#000000" d="M 888 586 L 901 586 L 901 614 L 888 614 L 888 586 Z Z" stroke-miterlimit="10"/></g><g transform="translate(10,10) scale(1,1)"><path fill="none" stroke="#000000" d="M 888 600 L 754 600" stroke-miterlimit="10" stroke-dasharray="3"/></g><g transform="translate(10,10) scale(1,1)"><path fill="none" stroke="#000000" d="M 764.1626748576241 595.790482243984 L 754 600 L 764.1626748576241 604.209517756016" stroke-miterlimit="10"/></g><g transform="translate(10,10) scale(1,1)"><g><path fill="none" stroke="none"/><text fill="#000000" stroke="none" font-family="Arial" font-size="13px" font-style="normal" font-weight="normal" text-decoration="none" x="774.5" y="616.5">18 : appContext</text></g></g><g transform="translate(10,10) scale(1,1)"><path fill="none" stroke="#000000" d="M 750 656 L 1040 656" stroke-miterlimit="10"/></g><g transform="translate(10,10) scale(1,1)"><path fill="#000000" stroke="none" d="M 1029.837325142376 660.209517756016 L 1040 656 L 1029.837325142376 651.790482243984"/></g><g transform="translate(10,10) scale(1,1)"><path fill="none" stroke="#000000" d="M 1029.837325142376 660.209517756016 L 1040 656 L 1029.837325142376 651.790482243984 L 1029.837325142376 660.209517756016" stroke-miterlimit="10"/></g><g transform="translate(10,10) scale(1,1)"><g><path fill="none" stroke="none"/><text fill="#000000" stroke="none" font-family="Arial" font-size="13px" font-style="normal" font-weight="normal" text-decoration="none" x="788.5" y="652.5">19 : mInstrumentation.newApplication</text></g></g><g transform="translate(10,10) scale(1,1)"><rect fill="#ffffff" stroke="none" x="1040" y="656" width="13" height="104"/></g><g transform="translate(10,10) scale(1,1)"><path fill="none" stroke="#000000" d="M 1040 656 L 1053 656 L 1053 760 L 1040 760 L 1040 656 Z Z" stroke-miterlimit="10"/></g><g transform="translate(10,10) scale(1,1)"><path fill="none" stroke="#000000" d="M 1053 662 L 1083 662 L 1083 682 L 1060 682" stroke-miterlimit="10"/></g><g transform="translate(10,10) scale(1,1)"><path fill="#000000" stroke="none" d="M 1070.162674857624 677.790482243984 L 1060 682 L 1070.162674857624 686.209517756016"/></g><g transform="translate(10,10) scale(1,1)"><path fill="none" stroke="#000000" d="M 1070.162674857624 677.790482243984 L 1060 682 L 1070.162674857624 686.209517756016 L 1070.162674857624 677.790482243984" stroke-miterlimit="10"/></g><g transform="translate(10,10) scale(1,1)"><g><path fill="none" stroke="none"/><text fill="#000000" stroke="none" font-family="Arial" font-size="13px" font-style="normal" font-weight="normal" text-decoration="none" x="1064.5" y="677.5">20 : newApplication</text></g></g><g transform="translate(10,10) scale(1,1)"><rect fill="#ffffff" stroke="none" x="1047" y="682" width="13" height="28"/></g><g transform="translate(10,10) scale(1,1)"><path fill="none" stroke="#000000" d="M 1047 682 L 1060 682 L 1060 710 L 1047 710 L 1047 682 Z Z" stroke-miterlimit="10"/></g><g transform="translate(10,10) scale(1,1)"><path fill="none" stroke="#000000" d="M 1056 728 L 1206 728" stroke-miterlimit="10"/></g><g transform="translate(10,10) scale(1,1)"><path fill="#000000" stroke="none" d="M 1195.837325142376 732.209517756016 L 1206 728 L 1195.837325142376 723.790482243984"/></g><g transform="translate(10,10) scale(1,1)"><path fill="none" stroke="#000000" d="M 1195.837325142376 732.209517756016 L 1206 728 L 1195.837325142376 723.790482243984 L 1195.837325142376 732.209517756016" stroke-miterlimit="10"/></g><g transform="translate(10,10) scale(1,1)"><g><path fill="none" stroke="none"/><text fill="#000000" stroke="none" font-family="Arial" font-size="13px" font-style="normal" font-weight="normal" text-decoration="none" x="1062.5" y="724.5">21 : app.attach(context)</text></g></g><g transform="translate(10,10) scale(1,1)"><rect fill="#ffffff" stroke="none" x="1206" y="728" width="13" height="56"/></g><g transform="translate(10,10) scale(1,1)"><path fill="none" stroke="#000000" d="M 1206 728 L 1219 728 L 1219 784 L 1206 784 L 1206 728 Z Z" stroke-miterlimit="10"/></g><g transform="translate(10,10) scale(1,1)"><path fill="none" stroke="#000000" d="M 1219 732 L 1249 732 L 1249 752 L 1226 752" stroke-miterlimit="10"/></g><g transform="translate(10,10) scale(1,1)"><path fill="#000000" stroke="none" d="M 1236.162674857624 747.790482243984 L 1226 752 L 1236.162674857624 756.209517756016"/></g><g transform="translate(10,10) scale(1,1)"><path fill="none" stroke="#000000" d="M 1236.162674857624 747.790482243984 L 1226 752 L 1236.162674857624 756.209517756016 L 1236.162674857624 747.790482243984" stroke-miterlimit="10"/></g><g transform="translate(10,10) scale(1,1)"><g><path fill="none" stroke="none"/><text fill="#000000" stroke="none" font-family="Arial" font-size="13px" font-style="normal" font-weight="normal" text-decoration="none" x="1226.5" y="748.5">22 : attachBaseContext(context)</text></g></g><g transform="translate(10,10) scale(1,1)"><rect fill="#ffffff" stroke="none" x="1213" y="752" width="13" height="28"/></g><g transform="translate(10,10) scale(1,1)"><path fill="none" stroke="#000000" d="M 1213 752 L 1226 752 L 1226 780 L 1213 780 L 1213 752 Z Z" stroke-miterlimit="10"/></g><g transform="translate(10,10) scale(1,1)"><path fill="none" stroke="#000000" d="M 1040 748 L 82 748" stroke-miterlimit="10" stroke-dasharray="3"/></g><g transform="translate(10,10) scale(1,1)"><path fill="none" stroke="#000000" d="M 92.16267485762415 743.790482243984 L 82 748 L 92.16267485762415 752.209517756016" stroke-miterlimit="10"/></g><g transform="translate(10,10) scale(1,1)"><g><path fill="none" stroke="none"/><text fill="#000000" stroke="none" font-family="Arial" font-size="13px" font-style="normal" font-weight="normal" text-decoration="none" x="440.5" y="743.5">23 : 通过反射生成 application 对象并返回</text></g></g><g transform="translate(10,10) scale(1,1)"><path fill="none" stroke="#000000" d="M 82 796 L 1040 796" stroke-miterlimit="10"/></g><g transform="translate(10,10) scale(1,1)"><path fill="#000000" stroke="none" d="M 1029.837325142376 800.209517756016 L 1040 796 L 1029.837325142376 791.790482243984"/></g><g transform="translate(10,10) scale(1,1)"><path fill="none" stroke="#000000" d="M 1029.837325142376 800.209517756016 L 1040 796 L 1029.837325142376 791.790482243984 L 1029.837325142376 800.209517756016" stroke-miterlimit="10"/></g><g transform="translate(10,10) scale(1,1)"><g><path fill="none" stroke="none"/><text fill="#000000" stroke="none" font-family="Arial" font-size="13px" font-style="normal" font-weight="normal" text-decoration="none" x="411.5" y="792.5">24 : mInstrumentation.callApplicationOnCreate(app)</text></g></g><g transform="translate(10,10) scale(1,1)"><rect fill="#ffffff" stroke="none" x="1040" y="796" width="13" height="91"/></g><g transform="translate(10,10) scale(1,1)"><path fill="none" stroke="#000000" d="M 1040 796 L 1053 796 L 1053 887 L 1040 887 L 1040 796 Z Z" stroke-miterlimit="10"/></g><g transform="translate(10,10) scale(1,1)"><path fill="none" stroke="#000000" d="M 1053 816 L 1083 816 L 1083 836 L 1060 836" stroke-miterlimit="10"/></g><g transform="translate(10,10) scale(1,1)"><path fill="#000000" stroke="none" d="M 1070.162674857624 831.790482243984 L 1060 836 L 1070.162674857624 840.209517756016"/></g><g transform="translate(10,10) scale(1,1)"><path fill="none" stroke="#000000" d="M 1070.162674857624 831.790482243984 L 1060 836 L 1070.162674857624 840.209517756016 L 1070.162674857624 831.790482243984" stroke-miterlimit="10"/></g><g transform="translate(10,10) scale(1,1)"><g><path fill="none" stroke="none"/><text fill="#000000" stroke="none" font-family="Arial" font-size="13px" font-style="normal" font-weight="normal" text-decoration="none" x="1061.5" y="832.5">25 : callApplicationOnCreate</text></g></g><g transform="translate(10,10) scale(1,1)"><rect fill="#ffffff" stroke="none" x="1047" y="836" width="13" height="28"/></g><g transform="translate(10,10) scale(1,1)"><path fill="none" stroke="#000000" d="M 1047 836 L 1060 836 L 1060 864 L 1047 864 L 1047 836 Z Z" stroke-miterlimit="10"/></g><g transform="translate(10,10) scale(1,1)"><path fill="none" stroke="#000000" d="M 1054 872 L 1206 872" stroke-miterlimit="10"/></g><g transform="translate(10,10) scale(1,1)"><path fill="#000000" stroke="none" d="M 1195.837325142376 876.209517756016 L 1206 872 L 1195.837325142376 867.790482243984"/></g><g transform="translate(10,10) scale(1,1)"><path fill="none" stroke="#000000" d="M 1195.837325142376 876.209517756016 L 1206 872 L 1195.837325142376 867.790482243984 L 1195.837325142376 876.209517756016" stroke-miterlimit="10"/></g><g transform="translate(10,10) scale(1,1)"><g><path fill="none" stroke="none"/><text fill="#000000" stroke="none" font-family="Arial" font-size="13px" font-style="normal" font-weight="normal" text-decoration="none" x="1077.5" y="868.5">26 : app.onCreate</text></g></g><g transform="translate(10,10) scale(1,1)"><rect fill="#ffffff" stroke="none" x="1206" y="872" width="13" height="56"/></g><g transform="translate(10,10) scale(1,1)"><path fill="none" stroke="#000000" d="M 1206 872 L 1219 872 L 1219 928 L 1206 928 L 1206 872 Z Z" stroke-miterlimit="10"/></g><g transform="translate(10,10) scale(1,1)"><path fill="none" stroke="#000000" d="M 1219 876 L 1249 876 L 1249 896 L 1226 896" stroke-miterlimit="10"/></g><g transform="translate(10,10) scale(1,1)"><path fill="#000000" stroke="none" d="M 1236.162674857624 891.790482243984 L 1226 896 L 1236.162674857624 900.209517756016"/></g><g transform="translate(10,10) scale(1,1)"><path fill="none" stroke="#000000" d="M 1236.162674857624 891.790482243984 L 1226 896 L 1236.162674857624 900.209517756016 L 1236.162674857624 891.790482243984" stroke-miterlimit="10"/></g><g transform="translate(10,10) scale(1,1)"><g><path fill="none" stroke="none"/><text fill="#000000" stroke="none" font-family="Arial" font-size="13px" font-style="normal" font-weight="normal" text-decoration="none" x="1228.5" y="891.5">27 : onCreate</text></g></g><g transform="translate(10,10) scale(1,1)"><rect fill="#ffffff" stroke="none" x="1213" y="896" width="13" height="28"/></g><g transform="translate(10,10) scale(1,1)"><path fill="none" stroke="#000000" d="M 1213 896 L 1226 896 L 1226 924 L 1213 924 L 1213 896 Z Z" stroke-miterlimit="10"/></g><g transform="translate(10,10) scale(1,1)"><path fill="none" stroke="#000000" d="M 594 940 L 1378 940" stroke-miterlimit="10"/></g><g transform="translate(10,10) scale(1,1)"><path fill="#000000" stroke="none" d="M 1367.837325142376 944.209517756016 L 1378 940 L 1367.837325142376 935.790482243984"/></g><g transform="translate(10,10) scale(1,1)"><path fill="none" stroke="#000000" d="M 1367.837325142376 944.209517756016 L 1378 940 L 1367.837325142376 935.790482243984 L 1367.837325142376 944.209517756016" stroke-miterlimit="10"/></g><g transform="translate(10,10) scale(1,1)"><g><path fill="none" stroke="none"/><text fill="#000000" stroke="none" font-family="Arial" font-size="13px" font-style="normal" font-weight="normal" text-decoration="none" x="833.5" y="936.5">28 : mStackSupervisor.attachApplicationLocked(app)</text></g></g><g transform="translate(10,10) scale(1,1)"><rect fill="#ffffff" stroke="none" x="1378" y="940" width="13" height="123"/></g><g transform="translate(10,10) scale(1,1)"><path fill="none" stroke="#000000" d="M 1378 940 L 1391 940 L 1391 1063 L 1378 1063 L 1378 940 Z Z" stroke-miterlimit="10"/></g><g transform="translate(10,10) scale(1,1)"><path fill="none" stroke="#000000" d="M 1391 952 L 1421 952 L 1421 972 L 1398 972" stroke-miterlimit="10"/></g><g transform="translate(10,10) scale(1,1)"><path fill="#000000" stroke="none" d="M 1408.162674857624 967.790482243984 L 1398 972 L 1408.162674857624 976.209517756016"/></g><g transform="translate(10,10) scale(1,1)"><path fill="none" stroke="#000000" d="M 1408.162674857624 967.790482243984 L 1398 972 L 1408.162674857624 976.209517756016 L 1408.162674857624 967.790482243984" stroke-miterlimit="10"/></g><g transform="translate(10,10) scale(1,1)"><g><path fill="none" stroke="none"/><text fill="#000000" stroke="none" font-family="Arial" font-size="13px" font-style="normal" font-weight="normal" text-decoration="none" x="1394.5" y="967.5">29 : attachApplicationLocked</text></g></g><g transform="translate(10,10) scale(1,1)"><rect fill="#ffffff" stroke="none" x="1385" y="972" width="13" height="75"/></g><g transform="translate(10,10) scale(1,1)"><path fill="none" stroke="#000000" d="M 1385 972 L 1398 972 L 1398 1047 L 1385 1047 L 1385 972 Z Z" stroke-miterlimit="10"/></g><g transform="translate(10,10) scale(1,1)"><path fill="none" stroke="#000000" d="M 1398 984 L 1428 984 L 1428 1004 L 1405 1004" stroke-miterlimit="10"/></g><g transform="translate(10,10) scale(1,1)"><path fill="#000000" stroke="none" d="M 1415.162674857624 999.790482243984 L 1405 1004 L 1415.162674857624 1008.209517756016"/></g><g transform="translate(10,10) scale(1,1)"><path fill="none" stroke="#000000" d="M 1415.162674857624 999.790482243984 L 1405 1004 L 1415.162674857624 1008.209517756016 L 1415.162674857624 999.790482243984" stroke-miterlimit="10"/></g><g transform="translate(10,10) scale(1,1)"><g><path fill="none" stroke="none"/><text fill="#000000" stroke="none" font-family="Arial" font-size="13px" font-style="normal" font-weight="normal" text-decoration="none" x="1412.5" y="998.5">30 : realStartActivityLocked</text></g></g><g transform="translate(10,10) scale(1,1)"><rect fill="#ffffff" stroke="none" x="1392" y="1004" width="13" height="28"/></g><g transform="translate(10,10) scale(1,1)"><path fill="none" stroke="#000000" d="M 1392 1004 L 1405 1004 L 1405 1032 L 1392 1032 L 1392 1004 Z Z" stroke-miterlimit="10"/></g><g transform="translate(10,10) scale(1,1)"><path fill="none" stroke="#000000" d="M 1380 1012 L 263 1012" stroke-miterlimit="10"/></g><g transform="translate(10,10) scale(1,1)"><path fill="#000000" stroke="none" d="M 273.16267485762415 1007.790482243984 L 263 1012 L 273.16267485762415 1016.209517756016"/></g><g transform="translate(10,10) scale(1,1)"><path fill="none" stroke="#000000" d="M 273.16267485762415 1007.790482243984 L 263 1012 L 273.16267485762415 1016.209517756016 L 273.16267485762415 1007.790482243984" stroke-miterlimit="10"/></g><g transform="translate(10,10) scale(1,1)"><g><path fill="none" stroke="none"/><text fill="#000000" stroke="none" font-family="Arial" font-size="13px" font-style="normal" font-weight="normal" text-decoration="none" x="705.5" y="1007.5">31 : app.thread.scheduleLaunchActivity</text></g></g><g transform="translate(10,10) scale(1,1)"><rect fill="#ffffff" stroke="none" x="250" y="1012" width="13" height="76"/></g><g transform="translate(10,10) scale(1,1)"><path fill="none" stroke="#000000" d="M 250 1012 L 263 1012 L 263 1088 L 250 1088 L 250 1012 Z Z" stroke-miterlimit="10"/></g><g transform="translate(10,10) scale(1,1)"><path fill="none" stroke="#000000" d="M 263 1020 L 293 1020 L 293 1040 L 270 1040" stroke-miterlimit="10"/></g><g transform="translate(10,10) scale(1,1)"><path fill="#000000" stroke="none" d="M 280.16267485762415 1035.7904822439841 L 270 1040 L 280.16267485762415 1044.2095177560159"/></g><g transform="translate(10,10) scale(1,1)"><path fill="none" stroke="#000000" d="M 280.16267485762415 1035.7904822439841 L 270 1040 L 280.16267485762415 1044.2095177560159 L 280.16267485762415 1035.7904822439841" stroke-miterlimit="10"/></g><g transform="translate(10,10) scale(1,1)"><g><path fill="none" stroke="none"/><text fill="#000000" stroke="none" font-family="Arial" font-size="13px" font-style="normal" font-weight="normal" text-decoration="none" x="274.5" y="1036.5">32 : scheduleLaunchActivity</text></g></g><g transform="translate(10,10) scale(1,1)"><rect fill="#ffffff" stroke="none" x="257" y="1040" width="13" height="40"/></g><g transform="translate(10,10) scale(1,1)"><path fill="none" stroke="#000000" d="M 257 1040 L 270 1040 L 270 1080 L 257 1080 L 257 1040 Z Z" stroke-miterlimit="10"/></g><g transform="translate(10,10) scale(1,1)"><path fill="none" stroke="#000000" d="M 274 1072 L 437 1072" stroke-miterlimit="10"/></g><g transform="translate(10,10) scale(1,1)"><path fill="#000000" stroke="none" d="M 426.83732514237585 1076.2095177560159 L 437 1072 L 426.83732514237585 1067.7904822439841"/></g><g transform="translate(10,10) scale(1,1)"><path fill="none" stroke="#000000" d="M 426.83732514237585 1076.2095177560159 L 437 1072 L 426.83732514237585 1067.7904822439841 L 426.83732514237585 1076.2095177560159" stroke-miterlimit="10"/></g><g transform="translate(10,10) scale(1,1)"><g><path fill="none" stroke="none"/><text fill="#000000" stroke="none" font-family="Arial" font-size="13px" font-style="normal" font-weight="normal" text-decoration="none" x="270.5" y="1068.5">33 : sendMessage(H.LAUNCH_ACTIVITY, r)</text></g></g><g transform="translate(10,10) scale(1,1)"><rect fill="#ffffff" stroke="none" x="437" y="1072" width="13" height="56"/></g><g transform="translate(10,10) scale(1,1)"><path fill="none" stroke="#000000" d="M 437 1072 L 450 1072 L 450 1128 L 437 1128 L 437 1072 Z Z" stroke-miterlimit="10"/></g><g transform="translate(10,10) scale(1,1)"><path fill="none" stroke="#000000" d="M 428 1112 L 82 1112" stroke-miterlimit="10"/></g><g transform="translate(10,10) scale(1,1)"><path fill="#000000" stroke="none" d="M 92.16267485762415 1107.7904822439841 L 82 1112 L 92.16267485762415 1116.2095177560159"/></g><g transform="translate(10,10) scale(1,1)"><path fill="none" stroke="#000000" d="M 92.16267485762415 1107.7904822439841 L 82 1112 L 92.16267485762415 1116.2095177560159 L 92.16267485762415 1107.7904822439841" stroke-miterlimit="10"/></g><g transform="translate(10,10) scale(1,1)"><g><path fill="none" stroke="none"/><text fill="#000000" stroke="none" font-family="Arial" font-size="13px" font-style="normal" font-weight="normal" text-decoration="none" x="91.5" y="1111.5">34 : handleLaunchActivity(r, null, "LAUNCH_ACTIVITY")</text></g></g><g transform="translate(10,10) scale(1,1)"><rect fill="#ffffff" stroke="none" x="69" y="1112" width="13" height="868"/></g><g transform="translate(10,10) scale(1,1)"><path fill="none" stroke="#000000" d="M 69 1112 L 82 1112 L 82 1980 L 69 1980 L 69 1112 Z Z" stroke-miterlimit="10"/></g><g transform="translate(10,10) scale(1,1)"><path fill="none" stroke="#000000" d="M 82 1128 L 112 1128 L 112 1148 L 89 1148" stroke-miterlimit="10"/></g><g transform="translate(10,10) scale(1,1)"><path fill="#000000" stroke="none" d="M 99.16267485762415 1143.7904822439841 L 89 1148 L 99.16267485762415 1152.2095177560159"/></g><g transform="translate(10,10) scale(1,1)"><path fill="none" stroke="#000000" d="M 99.16267485762415 1143.7904822439841 L 89 1148 L 99.16267485762415 1152.2095177560159 L 99.16267485762415 1143.7904822439841" stroke-miterlimit="10"/></g><g transform="translate(10,10) scale(1,1)"><g><path fill="none" stroke="none"/><text fill="#000000" stroke="none" font-family="Arial" font-size="13px" font-style="normal" font-weight="normal" text-decoration="none" x="94.5" y="1143.5">35 : handleLaunchActivity</text></g></g><g transform="translate(10,10) scale(1,1)"><rect fill="#ffffff" stroke="none" x="76" y="1148" width="13" height="816"/></g><g transform="translate(10,10) scale(1,1)"><path fill="none" stroke="#000000" d="M 76 1148 L 89 1148 L 89 1964 L 76 1964 L 76 1148 Z Z" stroke-miterlimit="10"/></g><g transform="translate(10,10) scale(1,1)"><path fill="none" stroke="#000000" d="M 89 1160 L 119 1160 L 119 1180 L 96 1180" stroke-miterlimit="10"/></g><g transform="translate(10,10) scale(1,1)"><path fill="#000000" stroke="none" d="M 106.16267485762415 1175.7904822439841 L 96 1180 L 106.16267485762415 1184.2095177560159"/></g><g transform="translate(10,10) scale(1,1)"><path fill="none" stroke="#000000" d="M 106.16267485762415 1175.7904822439841 L 96 1180 L 106.16267485762415 1184.2095177560159 L 106.16267485762415 1175.7904822439841" stroke-miterlimit="10"/></g><g transform="translate(10,10) scale(1,1)"><g><path fill="none" stroke="none"/><text fill="#000000" stroke="none" font-family="Arial" font-size="13px" font-style="normal" font-weight="normal" text-decoration="none" x="95.5" y="1175.5">36 : performLaunchActivity(r, customIntent)</text></g></g><g transform="translate(10,10) scale(1,1)"><rect fill="#ffffff" stroke="none" x="83" y="1180" width="13" height="760"/></g><g transform="translate(10,10) scale(1,1)"><path fill="none" stroke="#000000" d="M 83 1180 L 96 1180 L 96 1940 L 83 1940 L 83 1180 Z Z" stroke-miterlimit="10"/></g><g transform="translate(10,10) scale(1,1)"><path fill="none" stroke="#000000" d="M 100 1200 L 1040 1200" stroke-miterlimit="10"/></g><g transform="translate(10,10) scale(1,1)"><path fill="#000000" stroke="none" d="M 1029.837325142376 1204.2095177560159 L 1040 1200 L 1029.837325142376 1195.7904822439841"/></g><g transform="translate(10,10) scale(1,1)"><path fill="none" stroke="#000000" d="M 1029.837325142376 1204.2095177560159 L 1040 1200 L 1029.837325142376 1195.7904822439841 L 1029.837325142376 1204.2095177560159" stroke-miterlimit="10"/></g><g transform="translate(10,10) scale(1,1)"><g><path fill="none" stroke="none"/><text fill="#000000" stroke="none" font-family="Arial" font-size="13px" font-style="normal" font-weight="normal" text-decoration="none" x="451.5" y="1196.5">37 : mInstrumentation.newActivity(cl, clsName, intent)</text></g></g><g transform="translate(10,10) scale(1,1)"><rect fill="#ffffff" stroke="none" x="1040" y="1200" width="13" height="72"/></g><g transform="translate(10,10) scale(1,1)"><path fill="none" stroke="#000000" d="M 1040 1200 L 1053 1200 L 1053 1272 L 1040 1272 L 1040 1200 Z Z" stroke-miterlimit="10"/></g><g transform="translate(10,10) scale(1,1)"><path fill="none" stroke="#000000" d="M 1053 1208 L 1083 1208 L 1083 1228 L 1060 1228" stroke-miterlimit="10"/></g><g transform="translate(10,10) scale(1,1)"><path fill="#000000" stroke="none" d="M 1070.162674857624 1223.7904822439841 L 1060 1228 L 1070.162674857624 1232.2095177560159"/></g><g transform="translate(10,10) scale(1,1)"><path fill="none" stroke="#000000" d="M 1070.162674857624 1223.7904822439841 L 1060 1228 L 1070.162674857624 1232.2095177560159 L 1070.162674857624 1223.7904822439841" stroke-miterlimit="10"/></g><g transform="translate(10,10) scale(1,1)"><g><path fill="none" stroke="none"/><text fill="#000000" stroke="none" font-family="Arial" font-size="13px" font-style="normal" font-weight="normal" text-decoration="none" x="1065.5" y="1224.5">38 : newActivity</text></g></g><g transform="translate(10,10) scale(1,1)"><rect fill="#ffffff" stroke="none" x="1047" y="1228" width="13" height="28"/></g><g transform="translate(10,10) scale(1,1)"><path fill="none" stroke="#000000" d="M 1047 1228 L 1060 1228 L 1060 1256 L 1047 1256 L 1047 1228 Z Z" stroke-miterlimit="10"/></g><g transform="translate(10,10) scale(1,1)"><path fill="none" stroke="#000000" d="M 1047 1248 L 102 1248" stroke-miterlimit="10" stroke-dasharray="3"/></g><g transform="translate(10,10) scale(1,1)"><path fill="none" stroke="#000000" d="M 112.16267485762415 1243.7904822439841 L 102 1248 L 112.16267485762415 1252.2095177560159" stroke-miterlimit="10"/></g><g transform="translate(10,10) scale(1,1)"><g><path fill="none" stroke="none"/><text fill="#000000" stroke="none" font-family="Arial" font-size="13px" font-style="normal" font-weight="normal" text-decoration="none" x="466.5" y="1244.5">39 : 通过反射生成 activity 对象并返回</text></g></g><g transform="translate(10,10) scale(1,1)"><path fill="none" stroke="#000000" d="M 96 1284 L 1553 1284" stroke-miterlimit="10"/></g><g transform="translate(10,10) scale(1,1)"><path fill="#000000" stroke="none" d="M 1542.837325142376 1288.2095177560159 L 1553 1284 L 1542.837325142376 1279.7904822439841"/></g><g transform="translate(10,10) scale(1,1)"><path fill="none" stroke="#000000" d="M 1542.837325142376 1288.2095177560159 L 1553 1284 L 1542.837325142376 1279.7904822439841 L 1542.837325142376 1288.2095177560159" stroke-miterlimit="10"/></g><g transform="translate(10,10) scale(1,1)"><g><path fill="none" stroke="none"/><text fill="#000000" stroke="none" font-family="Arial" font-size="13px" font-style="normal" font-weight="normal" text-decoration="none" x="671.5" y="1280.5">40 : activity.attach, 包括 PhoneWindow 实例化等操作</text></g></g><g transform="translate(10,10) scale(1,1)"><rect fill="#ffffff" stroke="none" x="1553" y="1284" width="13" height="64"/></g><g transform="translate(10,10) scale(1,1)"><path fill="none" stroke="#000000" d="M 1553 1284 L 1566 1284 L 1566 1348 L 1553 1348 L 1553 1284 Z Z" stroke-miterlimit="10"/></g><g transform="translate(10,10) scale(1,1)"><path fill="none" stroke="#000000" d="M 1566 1292 L 1596 1292 L 1596 1312 L 1573 1312" stroke-miterlimit="10"/></g><g transform="translate(10,10) scale(1,1)"><path fill="#000000" stroke="none" d="M 1583.162674857624 1307.7904822439841 L 1573 1312 L 1583.162674857624 1316.2095177560159"/></g><g transform="translate(10,10) scale(1,1)"><path fill="none" stroke="#000000" d="M 1583.162674857624 1307.7904822439841 L 1573 1312 L 1583.162674857624 1316.2095177560159 L 1583.162674857624 1307.7904822439841" stroke-miterlimit="10"/></g><g transform="translate(10,10) scale(1,1)"><g><path fill="none" stroke="none"/><text fill="#000000" stroke="none" font-family="Arial" font-size="13px" font-style="normal" font-weight="normal" text-decoration="none" x="1581.78271484375" y="1306.5">41 : attach</text></g></g><g transform="translate(10,10) scale(1,1)"><rect fill="#ffffff" stroke="none" x="1560" y="1312" width="13" height="28"/></g><g transform="translate(10,10) scale(1,1)"><path fill="none" stroke="#000000" d="M 1560 1312 L 1573 1312 L 1573 1340 L 1560 1340 L 1560 1312 Z Z" stroke-miterlimit="10"/></g><g transform="translate(10,10) scale(1,1)"><path fill="none" stroke="#000000" d="M 102 1312 L 1040 1312" stroke-miterlimit="10"/></g><g transform="translate(10,10) scale(1,1)"><path fill="#000000" stroke="none" d="M 1029.837325142376 1316.2095177560159 L 1040 1312 L 1029.837325142376 1307.7904822439841"/></g><g transform="translate(10,10) scale(1,1)"><path fill="none" stroke="#000000" d="M 1029.837325142376 1316.2095177560159 L 1040 1312 L 1029.837325142376 1307.7904822439841 L 1029.837325142376 1316.2095177560159" stroke-miterlimit="10"/></g><g transform="translate(10,10) scale(1,1)"><g><path fill="none" stroke="none"/><text fill="#000000" stroke="none" font-family="Arial" font-size="13px" font-style="normal" font-weight="normal" text-decoration="none" x="434.5" y="1308.5">42 : mInstrumentation.callActivityOnCreate(activity, r.state)</text></g></g><g transform="translate(10,10) scale(1,1)"><rect fill="#ffffff" stroke="none" x="1040" y="1312" width="13" height="84"/></g><g transform="translate(10,10) scale(1,1)"><path fill="none" stroke="#000000" d="M 1040 1312 L 1053 1312 L 1053 1396 L 1040 1396 L 1040 1312 Z Z" stroke-miterlimit="10"/></g><g transform="translate(10,10) scale(1,1)"><path fill="none" stroke="#000000" d="M 1053 1316 L 1083 1316 L 1083 1336 L 1060 1336" stroke-miterlimit="10"/></g><g transform="translate(10,10) scale(1,1)"><path fill="#000000" stroke="none" d="M 1070.162674857624 1331.7904822439841 L 1060 1336 L 1070.162674857624 1340.2095177560159"/></g><g transform="translate(10,10) scale(1,1)"><path fill="none" stroke="#000000" d="M 1070.162674857624 1331.7904822439841 L 1060 1336 L 1070.162674857624 1340.2095177560159 L 1070.162674857624 1331.7904822439841" stroke-miterlimit="10"/></g><g transform="translate(10,10) scale(1,1)"><g><path fill="none" stroke="none"/><text fill="#000000" stroke="none" font-family="Arial" font-size="13px" font-style="normal" font-weight="normal" text-decoration="none" x="1057.5" y="1332.5">43 : callActivityOnCreate</text></g></g><g transform="translate(10,10) scale(1,1)"><rect fill="#ffffff" stroke="none" x="1047" y="1336" width="13" height="28"/></g><g transform="translate(10,10) scale(1,1)"><path fill="none" stroke="#000000" d="M 1047 1336 L 1060 1336 L 1060 1364 L 1047 1364 L 1047 1336 Z Z" stroke-miterlimit="10"/></g><g transform="translate(10,10) scale(1,1)"><path fill="none" stroke="#000000" d="M 1056 1376 L 1553 1376" stroke-miterlimit="10"/></g><g transform="translate(10,10) scale(1,1)"><path fill="#000000" stroke="none" d="M 1542.837325142376 1380.2095177560159 L 1553 1376 L 1542.837325142376 1371.7904822439841"/></g><g transform="translate(10,10) scale(1,1)"><path fill="none" stroke="#000000" d="M 1542.837325142376 1380.2095177560159 L 1553 1376 L 1542.837325142376 1371.7904822439841 L 1542.837325142376 1380.2095177560159" stroke-miterlimit="10"/></g><g transform="translate(10,10) scale(1,1)"><g><path fill="none" stroke="none"/><text fill="#000000" stroke="none" font-family="Arial" font-size="13px" font-style="normal" font-weight="normal" text-decoration="none" x="1204.5" y="1372.5">44 : activity.performCreate(bundle)</text></g></g><g transform="translate(10,10) scale(1,1)"><rect fill="#ffffff" stroke="none" x="1553" y="1376" width="13" height="112"/></g><g transform="translate(10,10) scale(1,1)"><path fill="none" stroke="#000000" d="M 1553 1376 L 1566 1376 L 1566 1488 L 1553 1488 L 1553 1376 Z Z" stroke-miterlimit="10"/></g><g transform="translate(10,10) scale(1,1)"><path fill="none" stroke="#000000" d="M 1566 1380 L 1596 1380 L 1596 1400 L 1573 1400" stroke-miterlimit="10"/></g><g transform="translate(10,10) scale(1,1)"><path fill="#000000" stroke="none" d="M 1583.162674857624 1395.7904822439841 L 1573 1400 L 1583.162674857624 1404.2095177560159"/></g><g transform="translate(10,10) scale(1,1)"><path fill="none" stroke="#000000" d="M 1583.162674857624 1395.7904822439841 L 1573 1400 L 1583.162674857624 1404.2095177560159 L 1583.162674857624 1395.7904822439841" stroke-miterlimit="10"/></g><g transform="translate(10,10) scale(1,1)"><g><path fill="none" stroke="none"/><text fill="#000000" stroke="none" font-family="Arial" font-size="13px" font-style="normal" font-weight="normal" text-decoration="none" x="1577.5" y="1396.5">45 : performOnCreate</text></g></g><g transform="translate(10,10) scale(1,1)"><rect fill="#ffffff" stroke="none" x="1560" y="1400" width="13" height="76"/></g><g transform="translate(10,10) scale(1,1)"><path fill="none" stroke="#000000" d="M 1560 1400 L 1573 1400 L 1573 1476 L 1560 1476 L 1560 1400 Z Z" stroke-miterlimit="10"/></g><g transform="translate(10,10) scale(1,1)"><path fill="none" stroke="#000000" d="M 1573 1416 L 1603 1416 L 1603 1436 L 1580 1436" stroke-miterlimit="10"/></g><g transform="translate(10,10) scale(1,1)"><path fill="#000000" stroke="none" d="M 1590.162674857624 1431.7904822439841 L 1580 1436 L 1590.162674857624 1440.2095177560159"/></g><g transform="translate(10,10) scale(1,1)"><path fill="none" stroke="#000000" d="M 1590.162674857624 1431.7904822439841 L 1580 1436 L 1590.162674857624 1440.2095177560159 L 1590.162674857624 1431.7904822439841" stroke-miterlimit="10"/></g><g transform="translate(10,10) scale(1,1)"><g><path fill="none" stroke="none"/><text fill="#000000" stroke="none" font-family="Arial" font-size="13px" font-style="normal" font-weight="normal" text-decoration="none" x="1578.5" y="1431.5">46 : onCreate(bundle)</text></g></g><g transform="translate(10,10) scale(1,1)"><rect fill="#ffffff" stroke="none" x="1567" y="1436" width="13" height="28"/></g><g transform="translate(10,10) scale(1,1)"><path fill="none" stroke="#000000" d="M 1567 1436 L 1580 1436 L 1580 1464 L 1567 1464 L 1567 1436 Z Z" stroke-miterlimit="10"/></g><g transform="translate(10,10) scale(1,1)"><path fill="none" stroke="#000000" d="M 102 1516 L 1553 1516" stroke-miterlimit="10"/></g><g transform="translate(10,10) scale(1,1)"><path fill="#000000" stroke="none" d="M 1542.837325142376 1520.2095177560159 L 1553 1516 L 1542.837325142376 1511.7904822439841"/></g><g transform="translate(10,10) scale(1,1)"><path fill="none" stroke="#000000" d="M 1542.837325142376 1520.2095177560159 L 1553 1516 L 1542.837325142376 1511.7904822439841 L 1542.837325142376 1520.2095177560159" stroke-miterlimit="10"/></g><g transform="translate(10,10) scale(1,1)"><g><path fill="none" stroke="none"/><text fill="#000000" stroke="none" font-family="Arial" font-size="13px" font-style="normal" font-weight="normal" text-decoration="none" x="757.5" y="1512.5">47 : activity.performStart</text></g></g><g transform="translate(10,10) scale(1,1)"><rect fill="#ffffff" stroke="none" x="1553" y="1516" width="13" height="68"/></g><g transform="translate(10,10) scale(1,1)"><path fill="none" stroke="#000000" d="M 1553 1516 L 1566 1516 L 1566 1584 L 1553 1584 L 1553 1516 Z Z" stroke-miterlimit="10"/></g><g transform="translate(10,10) scale(1,1)"><path fill="none" stroke="#000000" d="M 1566 1520 L 1596 1520 L 1596 1540 L 1573 1540" stroke-miterlimit="10"/></g><g transform="translate(10,10) scale(1,1)"><path fill="#000000" stroke="none" d="M 1583.162674857624 1535.7904822439841 L 1573 1540 L 1583.162674857624 1544.2095177560159"/></g><g transform="translate(10,10) scale(1,1)"><path fill="none" stroke="#000000" d="M 1583.162674857624 1535.7904822439841 L 1573 1540 L 1583.162674857624 1544.2095177560159 L 1583.162674857624 1535.7904822439841" stroke-miterlimit="10"/></g><g transform="translate(10,10) scale(1,1)"><g><path fill="none" stroke="none"/><text fill="#000000" stroke="none" font-family="Arial" font-size="13px" font-style="normal" font-weight="normal" text-decoration="none" x="1571.5" y="1535.5">48 : performStart</text></g></g><g transform="translate(10,10) scale(1,1)"><rect fill="#ffffff" stroke="none" x="1560" y="1540" width="13" height="36"/></g><g transform="translate(10,10) scale(1,1)"><path fill="none" stroke="#000000" d="M 1560 1540 L 1573 1540 L 1573 1576 L 1560 1576 L 1560 1540 Z Z" stroke-miterlimit="10"/></g><g transform="translate(10,10) scale(1,1)"><path fill="none" stroke="#000000" d="M 1556 1568 L 1053 1568" stroke-miterlimit="10"/></g><g transform="translate(10,10) scale(1,1)"><path fill="#000000" stroke="none" d="M 1063.162674857624 1563.7904822439841 L 1053 1568 L 1063.162674857624 1572.2095177560159"/></g><g transform="translate(10,10) scale(1,1)"><path fill="none" stroke="#000000" d="M 1063.162674857624 1563.7904822439841 L 1053 1568 L 1063.162674857624 1572.2095177560159 L 1063.162674857624 1563.7904822439841" stroke-miterlimit="10"/></g><g transform="translate(10,10) scale(1,1)"><g><path fill="none" stroke="none"/><text fill="#000000" stroke="none" font-family="Arial" font-size="13px" font-style="normal" font-weight="normal" text-decoration="none" x="1167.5" y="1563.5">49 : mInstrumentation.callActivityOnStart(this)</text></g></g><g transform="translate(10,10) scale(1,1)"><rect fill="#ffffff" stroke="none" x="1040" y="1568" width="13" height="72"/></g><g transform="translate(10,10) scale(1,1)"><path fill="none" stroke="#000000" d="M 1040 1568 L 1053 1568 L 1053 1640 L 1040 1640 L 1040 1568 Z Z" stroke-miterlimit="10"/></g><g transform="translate(10,10) scale(1,1)"><path fill="none" stroke="#000000" d="M 1053 1580 L 1083 1580 L 1083 1600 L 1060 1600" stroke-miterlimit="10"/></g><g transform="translate(10,10) scale(1,1)"><path fill="#000000" stroke="none" d="M 1070.162674857624 1595.7904822439841 L 1060 1600 L 1070.162674857624 1604.2095177560159"/></g><g transform="translate(10,10) scale(1,1)"><path fill="none" stroke="#000000" d="M 1070.162674857624 1595.7904822439841 L 1060 1600 L 1070.162674857624 1604.2095177560159 L 1070.162674857624 1595.7904822439841" stroke-miterlimit="10"/></g><g transform="translate(10,10) scale(1,1)"><g><path fill="none" stroke="none"/><text fill="#000000" stroke="none" font-family="Arial" font-size="13px" font-style="normal" font-weight="normal" text-decoration="none" x="1066.5" y="1595.5">50 : callActivityOnStart</text></g></g><g transform="translate(10,10) scale(1,1)"><rect fill="#ffffff" stroke="none" x="1047" y="1600" width="13" height="28"/></g><g transform="translate(10,10) scale(1,1)"><path fill="none" stroke="#000000" d="M 1047 1600 L 1060 1600 L 1060 1628 L 1047 1628 L 1047 1600 Z Z" stroke-miterlimit="10"/></g><g transform="translate(10,10) scale(1,1)"><path fill="none" stroke="#000000" d="M 1062 1612 L 1553 1612" stroke-miterlimit="10"/></g><g transform="translate(10,10) scale(1,1)"><path fill="#000000" stroke="none" d="M 1542.837325142376 1616.2095177560159 L 1553 1612 L 1542.837325142376 1607.7904822439841"/></g><g transform="translate(10,10) scale(1,1)"><path fill="none" stroke="#000000" d="M 1542.837325142376 1616.2095177560159 L 1553 1612 L 1542.837325142376 1607.7904822439841 L 1542.837325142376 1616.2095177560159" stroke-miterlimit="10"/></g><g transform="translate(10,10) scale(1,1)"><g><path fill="none" stroke="none"/><text fill="#000000" stroke="none" font-family="Arial" font-size="13px" font-style="normal" font-weight="normal" text-decoration="none" x="1252.5" y="1608.5">51 : activity.onStart</text></g></g><g transform="translate(10,10) scale(1,1)"><rect fill="#ffffff" stroke="none" x="1553" y="1612" width="13" height="55"/></g><g transform="translate(10,10) scale(1,1)"><path fill="none" stroke="#000000" d="M 1553 1612 L 1566 1612 L 1566 1667 L 1553 1667 L 1553 1612 Z Z" stroke-miterlimit="10"/></g><g transform="translate(10,10) scale(1,1)"><path fill="none" stroke="#000000" d="M 1566 1616 L 1596 1616 L 1596 1636 L 1573 1636" stroke-miterlimit="10"/></g><g transform="translate(10,10) scale(1,1)"><path fill="#000000" stroke="none" d="M 1583.162674857624 1631.7904822439841 L 1573 1636 L 1583.162674857624 1640.2095177560159"/></g><g transform="translate(10,10) scale(1,1)"><path fill="none" stroke="#000000" d="M 1583.162674857624 1631.7904822439841 L 1573 1636 L 1583.162674857624 1640.2095177560159 L 1583.162674857624 1631.7904822439841" stroke-miterlimit="10"/></g><g transform="translate(10,10) scale(1,1)"><g><path fill="none" stroke="none"/><text fill="#000000" stroke="none" font-family="Arial" font-size="13px" font-style="normal" font-weight="normal" text-decoration="none" x="1571.53271484375" y="1631.5">52 : onStart</text></g></g><g transform="translate(10,10) scale(1,1)"><rect fill="#ffffff" stroke="none" x="1560" y="1636" width="13" height="28"/></g><g transform="translate(10,10) scale(1,1)"><path fill="none" stroke="#000000" d="M 1560 1636 L 1573 1636 L 1573 1664 L 1560 1664 L 1560 1636 Z Z" stroke-miterlimit="10"/></g><g transform="translate(10,10) scale(1,1)"><path fill="none" stroke="#000000" d="M 96 1624 L 126 1624 L 126 1644 L 103 1644" stroke-miterlimit="10"/></g><g transform="translate(10,10) scale(1,1)"><path fill="#000000" stroke="none" d="M 113.16267485762415 1639.7904822439841 L 103 1644 L 113.16267485762415 1648.2095177560159"/></g><g transform="translate(10,10) scale(1,1)"><path fill="none" stroke="#000000" d="M 113.16267485762415 1639.7904822439841 L 103 1644 L 113.16267485762415 1648.2095177560159 L 113.16267485762415 1639.7904822439841" stroke-miterlimit="10"/></g><g transform="translate(10,10) scale(1,1)"><g><path fill="none" stroke="none"/><text fill="#000000" stroke="none" font-family="Arial" font-size="13px" font-style="normal" font-weight="normal" text-decoration="none" x="105.5" y="1640.5">53 : handleResumeActivity</text></g></g><g transform="translate(10,10) scale(1,1)"><rect fill="#ffffff" stroke="none" x="90" y="1644" width="13" height="276"/></g><g transform="translate(10,10) scale(1,1)"><path fill="none" stroke="#000000" d="M 90 1644 L 103 1644 L 103 1920 L 90 1920 L 90 1644 Z Z" stroke-miterlimit="10"/></g><g transform="translate(10,10) scale(1,1)"><path fill="none" stroke="#000000" d="M 103 1652 L 133 1652 L 133 1672 L 110 1672" stroke-miterlimit="10"/></g><g transform="translate(10,10) scale(1,1)"><path fill="#000000" stroke="none" d="M 120.16267485762415 1667.7904822439841 L 110 1672 L 120.16267485762415 1676.2095177560159"/></g><g transform="translate(10,10) scale(1,1)"><path fill="none" stroke="#000000" d="M 120.16267485762415 1667.7904822439841 L 110 1672 L 120.16267485762415 1676.2095177560159 L 120.16267485762415 1667.7904822439841" stroke-miterlimit="10"/></g><g transform="translate(10,10) scale(1,1)"><g><path fill="none" stroke="none"/><text fill="#000000" stroke="none" font-family="Arial" font-size="13px" font-style="normal" font-weight="normal" text-decoration="none" x="113.5" y="1668.5">54 : r = performResumeActivity</text></g></g><g transform="translate(10,10) scale(1,1)"><rect fill="#ffffff" stroke="none" x="97" y="1672" width="13" height="36"/></g><g transform="translate(10,10) scale(1,1)"><path fill="none" stroke="#000000" d="M 97 1672 L 110 1672 L 110 1708 L 97 1708 L 97 1672 Z Z" stroke-miterlimit="10"/></g><g transform="translate(10,10) scale(1,1)"><path fill="none" stroke="#000000" d="M 118 1692 L 1553 1692" stroke-miterlimit="10"/></g><g transform="translate(10,10) scale(1,1)"><path fill="#000000" stroke="none" d="M 1542.837325142376 1696.2095177560159 L 1553 1692 L 1542.837325142376 1687.7904822439841"/></g><g transform="translate(10,10) scale(1,1)"><path fill="none" stroke="#000000" d="M 1542.837325142376 1696.2095177560159 L 1553 1692 L 1542.837325142376 1687.7904822439841 L 1542.837325142376 1696.2095177560159" stroke-miterlimit="10"/></g><g transform="translate(10,10) scale(1,1)"><g><path fill="none" stroke="none"/><text fill="#000000" stroke="none" font-family="Arial" font-size="13px" font-style="normal" font-weight="normal" text-decoration="none" x="750.5" y="1688.5">55 : r.activity.performResume</text></g></g><g transform="translate(10,10) scale(1,1)"><rect fill="#ffffff" stroke="none" x="1553" y="1692" width="13" height="56"/></g><g transform="translate(10,10) scale(1,1)"><path fill="none" stroke="#000000" d="M 1553 1692 L 1566 1692 L 1566 1748 L 1553 1748 L 1553 1692 Z Z" stroke-miterlimit="10"/></g><g transform="translate(10,10) scale(1,1)"><path fill="none" stroke="#000000" d="M 1566 1696 L 1596 1696 L 1596 1716 L 1573 1716" stroke-miterlimit="10"/></g><g transform="translate(10,10) scale(1,1)"><path fill="#000000" stroke="none" d="M 1583.162674857624 1711.7904822439841 L 1573 1716 L 1583.162674857624 1720.2095177560159"/></g><g transform="translate(10,10) scale(1,1)"><path fill="none" stroke="#000000" d="M 1583.162674857624 1711.7904822439841 L 1573 1716 L 1583.162674857624 1720.2095177560159 L 1583.162674857624 1711.7904822439841" stroke-miterlimit="10"/></g><g transform="translate(10,10) scale(1,1)"><g><path fill="none" stroke="none"/><text fill="#000000" stroke="none" font-family="Arial" font-size="13px" font-style="normal" font-weight="normal" text-decoration="none" x="1574.5" y="1711.5">56 : performResume</text></g></g><g transform="translate(10,10) scale(1,1)"><rect fill="#ffffff" stroke="none" x="1560" y="1716" width="13" height="28"/></g><g transform="translate(10,10) scale(1,1)"><path fill="none" stroke="#000000" d="M 1560 1716 L 1573 1716 L 1573 1744 L 1560 1744 L 1560 1716 Z Z" stroke-miterlimit="10"/></g><g transform="translate(10,10) scale(1,1)"><path fill="none" stroke="#000000" d="M 1556 1724 L 1053 1724" stroke-miterlimit="10"/></g><g transform="translate(10,10) scale(1,1)"><path fill="#000000" stroke="none" d="M 1063.162674857624 1719.7904822439841 L 1053 1724 L 1063.162674857624 1728.2095177560159"/></g><g transform="translate(10,10) scale(1,1)"><path fill="none" stroke="#000000" d="M 1063.162674857624 1719.7904822439841 L 1053 1724 L 1063.162674857624 1728.2095177560159 L 1063.162674857624 1719.7904822439841" stroke-miterlimit="10"/></g><g transform="translate(10,10) scale(1,1)"><g><path fill="none" stroke="none"/><text fill="#000000" stroke="none" font-family="Arial" font-size="13px" font-style="normal" font-weight="normal" text-decoration="none" x="1160.5" y="1740.5">57 : mInstrumentation.callActivityOnResume(this)</text></g></g><g transform="translate(10,10) scale(1,1)"><rect fill="#ffffff" stroke="none" x="1040" y="1724" width="13" height="84"/></g><g transform="translate(10,10) scale(1,1)"><path fill="none" stroke="#000000" d="M 1040 1724 L 1053 1724 L 1053 1808 L 1040 1808 L 1040 1724 Z Z" stroke-miterlimit="10"/></g><g transform="translate(10,10) scale(1,1)"><path fill="none" stroke="#000000" d="M 1053 1744 L 1083 1744 L 1083 1764 L 1060 1764" stroke-miterlimit="10"/></g><g transform="translate(10,10) scale(1,1)"><path fill="#000000" stroke="none" d="M 1070.162674857624 1759.7904822439841 L 1060 1764 L 1070.162674857624 1768.2095177560159"/></g><g transform="translate(10,10) scale(1,1)"><path fill="none" stroke="#000000" d="M 1070.162674857624 1759.7904822439841 L 1060 1764 L 1070.162674857624 1768.2095177560159 L 1070.162674857624 1759.7904822439841" stroke-miterlimit="10"/></g><g transform="translate(10,10) scale(1,1)"><g><path fill="none" stroke="none"/><text fill="#000000" stroke="none" font-family="Arial" font-size="13px" font-style="normal" font-weight="normal" text-decoration="none" x="1065.5" y="1760.5">58 : callActivityOnResumt</text></g></g><g transform="translate(10,10) scale(1,1)"><rect fill="#ffffff" stroke="none" x="1047" y="1764" width="13" height="31"/></g><g transform="translate(10,10) scale(1,1)"><path fill="none" stroke="#000000" d="M 1047 1764 L 1060 1764 L 1060 1795 L 1047 1795 L 1047 1764 Z Z" stroke-miterlimit="10"/></g><g transform="translate(10,10) scale(1,1)"><path fill="none" stroke="#000000" d="M 1066 1780 L 1553 1780" stroke-miterlimit="10"/></g><g transform="translate(10,10) scale(1,1)"><path fill="#000000" stroke="none" d="M 1542.837325142376 1784.2095177560159 L 1553 1780 L 1542.837325142376 1775.7904822439841"/></g><g transform="translate(10,10) scale(1,1)"><path fill="none" stroke="#000000" d="M 1542.837325142376 1784.2095177560159 L 1553 1780 L 1542.837325142376 1775.7904822439841 L 1542.837325142376 1784.2095177560159" stroke-miterlimit="10"/></g><g transform="translate(10,10) scale(1,1)"><g><path fill="none" stroke="none"/><text fill="#000000" stroke="none" font-family="Arial" font-size="13px" font-style="normal" font-weight="normal" text-decoration="none" x="1243.5" y="1776.5">59 : activity.onResume</text></g></g><g transform="translate(10,10) scale(1,1)"><rect fill="#ffffff" stroke="none" x="1553" y="1780" width="13" height="68"/></g><g transform="translate(10,10) scale(1,1)"><path fill="none" stroke="#000000" d="M 1553 1780 L 1566 1780 L 1566 1848 L 1553 1848 L 1553 1780 Z Z" stroke-miterlimit="10"/></g><g transform="translate(10,10) scale(1,1)"><path fill="none" stroke="#000000" d="M 1566 1788 L 1596 1788 L 1596 1808 L 1573 1808" stroke-miterlimit="10"/></g><g transform="translate(10,10) scale(1,1)"><path fill="#000000" stroke="none" d="M 1583.162674857624 1803.7904822439841 L 1573 1808 L 1583.162674857624 1812.2095177560159"/></g><g transform="translate(10,10) scale(1,1)"><path fill="none" stroke="#000000" d="M 1583.162674857624 1803.7904822439841 L 1573 1808 L 1583.162674857624 1812.2095177560159 L 1583.162674857624 1803.7904822439841" stroke-miterlimit="10"/></g><g transform="translate(10,10) scale(1,1)"><g><path fill="none" stroke="none"/><text fill="#000000" stroke="none" font-family="Arial" font-size="13px" font-style="normal" font-weight="normal" text-decoration="none" x="1560.5" y="1803.5">60 : onResume</text></g></g><g transform="translate(10,10) scale(1,1)"><rect fill="#ffffff" stroke="none" x="1560" y="1808" width="13" height="28"/></g><g transform="translate(10,10) scale(1,1)"><path fill="none" stroke="#000000" d="M 1560 1808 L 1573 1808 L 1573 1836 L 1560 1836 L 1560 1808 Z Z" stroke-miterlimit="10"/></g><g transform="translate(10,10) scale(1,1)"><path fill="none" stroke="#000000" d="M 103 1800 L 133 1800 L 133 1820 L 110 1820" stroke-miterlimit="10"/></g><g transform="translate(10,10) scale(1,1)"><path fill="#000000" stroke="none" d="M 120.16267485762415 1815.7904822439841 L 110 1820 L 120.16267485762415 1824.2095177560159"/></g><g transform="translate(10,10) scale(1,1)"><path fill="none" stroke="#000000" d="M 120.16267485762415 1815.7904822439841 L 110 1820 L 120.16267485762415 1824.2095177560159 L 120.16267485762415 1815.7904822439841" stroke-miterlimit="10"/></g><g transform="translate(10,10) scale(1,1)"><g><path fill="none" stroke="none"/><text fill="#000000" stroke="none" font-family="Arial" font-size="13px" font-style="normal" font-weight="normal" text-decoration="none" x="109.5" y="1816.5">61 : 接下来就是向WindowManager中添加 DecorView了，首次添加 DecorView 时会实例化 ViewRootImpl</text></g></g><g transform="translate(10,10) scale(1,1)"><rect fill="#ffffff" stroke="none" x="97" y="1820" width="13" height="28"/></g><g transform="translate(10,10) scale(1,1)"><path fill="none" stroke="#000000" d="M 97 1820 L 110 1820 L 110 1848 L 97 1848 L 97 1820 Z Z" stroke-miterlimit="10"/></g><g transform="translate(10,10) scale(1,1)"><path fill="none" stroke="#000000" d="M 103 1856 L 133 1856 L 133 1876 L 110 1876" stroke-miterlimit="10"/></g><g transform="translate(10,10) scale(1,1)"><path fill="#000000" stroke="none" d="M 120.16267485762415 1871.7904822439841 L 110 1876 L 120.16267485762415 1880.2095177560159"/></g><g transform="translate(10,10) scale(1,1)"><path fill="none" stroke="#000000" d="M 120.16267485762415 1871.7904822439841 L 110 1876 L 120.16267485762415 1880.2095177560159 L 120.16267485762415 1871.7904822439841" stroke-miterlimit="10"/></g><g transform="translate(10,10) scale(1,1)"><g><path fill="none" stroke="none"/><text fill="#000000" stroke="none" font-family="Arial" font-size="13px" font-style="normal" font-weight="normal" text-decoration="none" x="111.5" y="1872.5">62 : ViewRootImpl 里会执行到View的三大流程，之后界面就出来了</text></g></g><g transform="translate(10,10) scale(1,1)"><rect fill="#ffffff" stroke="none" x="97" y="1876" width="13" height="28"/></g><g transform="translate(10,10) scale(1,1)"><path fill="none" stroke="#000000" d="M 97 1876 L 110 1876 L 110 1904 L 97 1904 L 97 1876 Z Z" stroke-miterlimit="10"/></g></g></svg>